SplineFontDB: 3.2
FontName: D-DIN-PRO-Condensed-Regular
FullName: D-DIN-PRO-Condensed-Regular
FamilyName: D-DIN-PRO-Condensed
Weight: Regular
Copyright: Copyright (c) CyberFei. All rights reserved
Version: 1.1.0
ItalicAngle: 0
UnderlinePosition: -150
UnderlineWidth: 50
Ascent: 831
Descent: 169
InvalidEm: 0
sfntRevision: 0x00010000
LayerCount: 2
Layer: 0 0 "Back" 1
Layer: 1 0 "Fore" 0
XUID: [1021 868 -1451673819 24856]
StyleMap: 0x0040
FSType: 4
OS2Version: 3
OS2_WeightWidthSlopeOnly: 0
OS2_UseTypoMetrics: 0
CreationTime: 1462909513
ModificationTime: 1509658772
PfmFamily: 17
TTFWeight: 400
TTFWidth: 3
LineGap: 86
VLineGap: 0
Panose: 2 11 5 6 3 2 2 3 2 4
OS2TypoAscent: 831
OS2TypoAOffset: 0
OS2TypoDescent: -169
OS2TypoDOffset: 0
OS2TypoLinegap: 86
OS2WinAscent: 902
OS2WinAOffset: 0
OS2WinDescent: 184
OS2WinDOffset: 0
HheadAscent: 831
HheadAOffset: 0
HheadDescent: -169
HheadDOffset: 0
OS2SubXSize: 650
OS2SubYSize: 600
OS2SubXOff: 0
OS2SubYOff: 75
OS2SupXSize: 650
OS2SupYSize: 600
OS2SupXOff: 0
OS2SupYOff: 350
OS2StrikeYSize: 50
OS2StrikeYPos: 310
OS2CapHeight: 690
OS2XHeight: 517
OS2Vendor: 'MONO'
OS2CodePages: 00000001.00000000
OS2UnicodeRanges: 8000006f.4000000a.00000000.00000000
Lookup: 1 0 0 "'rtla' Right to Left Alternates lookup 0" { "'rtla' Right to Left Alternates lookup 0 subtable"  } ['rtla' ('DFLT' <'dflt' > ) ]
Lookup: 1 0 0 "'sups' Superscript lookup 1" { "'sups' Superscript lookup 1 subtable" ("superior") } ['sups' ('DFLT' <'dflt' > ) ]
Lookup: 4 0 0 "'frac' Diagonal Fractions lookup 2" { "'frac' Diagonal Fractions lookup 2 subtable"  } ['frac' ('DFLT' <'dflt' > ) ]
Lookup: 4 0 0 "'dlig' Discretionary Ligatures in Latin lookup 3" { "'dlig' Discretionary Ligatures in Latin lookup 3 subtable"  } ['dlig' ('latn' <'dflt' > ) ]
Lookup: 4 0 1 "'liga' Standard Ligatures in Latin lookup 4" { "'liga' Standard Ligatures in Latin lookup 4 subtable"  } ['liga' ('latn' <'dflt' > ) ]

StartChar: .notdef
Encoding: 65536 -1 0
Width: 600
GlyphClass: 1
Flags: W
LayerCount: 2
Fore
SplineSet
101 690 m 1
 498 690 l 1
 498 0 l 1
 101 0 l 1
 101 690 l 1
464 34 m 1
 464 656 l 1
 135 656 l 1
 135 34 l 1
 464 34 l 1
EndSplineSet
EndChar

StartChar: exclam
Encoding: 33 33 3
Width: 204
GlyphClass: 2
Flags: W
LayerCount: 2
Fore
SplineSet
59 690 m 1
 145 690 l 1
 130 196 l 1
 73 196 l 1
 59 690 l 1
63 97 m 1
 141 97 l 1
 141 0 l 1
 63 0 l 1
 63 97 l 1
EndSplineSet
EndChar

StartChar: quotedbl
Encoding: 34 34 4
Width: 280
GlyphClass: 2
Flags: W
LayerCount: 2
Fore
SplineSet
41 690 m 1
 109 690 l 1
 109 458 l 1
 41 458 l 1
 41 690 l 1
171 690 m 1
 239 690 l 1
 239 458 l 1
 171 458 l 1
 171 690 l 1
EndSplineSet
EndChar

StartChar: numbersign
Encoding: 35 35 5
Width: 462
GlyphClass: 2
Flags: W
LayerCount: 2
Fore
SplineSet
361 426 m 1
 345 283 l 1
 422 283 l 1
 422 223 l 1
 338 223 l 1
 313 0 l 1
 248 0 l 1
 273 223 l 1
 155 223 l 1
 130 0 l 1
 65 0 l 1
 90 223 l 1
 20 223 l 1
 20 283 l 1
 96 283 l 1
 112 426 l 1
 41 426 l 1
 41 486 l 1
 119 486 l 1
 141 690 l 1
 207 690 l 1
 184 486 l 1
 302 486 l 1
 324 690 l 1
 390 690 l 1
 367 486 l 1
 442 486 l 1
 442 426 l 1
 361 426 l 1
295 426 m 1
 178 426 l 1
 162 283 l 1
 279 283 l 1
 295 426 l 1
EndSplineSet
EndChar

StartChar: dollar
Encoding: 36 36 6
Width: 372
GlyphClass: 2
Flags: W
LayerCount: 2
Fore
SplineSet
304.5 79.5 m 0
 283.5 50.5 252.66796875 32.998046875 212.000976562 26.998046875 c 1
 212.000976562 -72.001953125 l 1
 159.000976562 -72.001953125 l 1
 159.000976562 25.998046875 l 1
 74.333984375 32.6650390625 30.0009765625 88.998046875 26.0009765625 194.998046875 c 1
 95.0009765625 194.998046875 l 1
 98.333984375 132.998046875 119.666992188 96.6650390625 159 85.998046875 c 1
 159 318.998046875 l 1
 148 323.998046875 l 2
 104 342.665039062 73 364.665039062 55 389.998046875 c 0
 37 415.33203125 28 448.665039062 28 489.998046875 c 0
 28 540.666015625 39.8330078125 580.333007812 63.5 608.999023438 c 0
 87.1669921875 637.66796875 119 654.334960938 159 658.999023438 c 1
 159 752.999023438 l 1
 212 752.999023438 l 1
 212 657.999023438 l 1
 284 646.666015625 323 590.666015625 329 489.999023438 c 1
 267 489.999023438 l 1
 265 547.999023438 246.666992188 582.666015625 212 593.999023438 c 1
 212 376.999023438 l 1
 254.666992188 358.999023438 286 335.83203125 306 307.499023438 c 0
 326 279.166015625 336 242.333007812 336 197 c 0
 336 147.666992188 325.5 108.5 304.5 79.5 c 0
110.500976562 437.498046875 m 0
 120.833984375 421.831054688 137.000976562 408.666015625 159.000976562 398 c 1
 159.000976562 597 l 1
 138.333984375 592.333007812 122.500976562 581.666015625 111.500976562 564.999023438 c 0
 100.500976562 548.33203125 95.0009765625 526.665039062 95.0009765625 499.998046875 c 0
 95.0009765625 473.998046875 100.16796875 453.165039062 110.500976562 437.498046875 c 0
269.000976562 188 m 0
 269.000976562 215.333007812 264.500976562 237 255.500976562 253 c 0
 246.500976562 269 232.000976562 282.666992188 212.000976562 294 c 1
 212.000976562 87 l 1
 250.000976562 98.3330078125 269.000976562 132 269.000976562 188 c 0
58.0009765625 690 m 1024
EndSplineSet
EndChar

StartChar: percent
Encoding: 37 37 7
Width: 691
GlyphClass: 2
Flags: W
LayerCount: 2
Fore
SplineSet
58.5 295.5 m 0
 41.5 316.5 33.0009765625 348.333007812 33.0009765625 391 c 2
 33.0009765625 572 l 2
 33.0009765625 614 41.66796875 645.333007812 59.0009765625 666 c 0
 76.333984375 686.666992188 102.666992188 697 138 697 c 0
 174 697 200.5 686.666992188 217.5 666 c 0
 234.5 645.333007812 243 614 243 572 c 2
 243 391 l 2
 243 348.333007812 234.5 316.5 217.5 295.5 c 0
 200.5 274.5 174 264 138 264 c 0
 102 264 75.5 274.5 58.5 295.5 c 0
439.000976562 690 m 1
 502.000976562 690 l 1
 254.000976562 0 l 1
 191.000976562 0 l 1
 439.000976562 690 l 1
166.000976562 341 m 0
 171.333984375 351 174.001953125 367.66796875 174.001953125 391.000976562 c 2
 174.001953125 572.000976562 l 2
 174.001953125 594.669921875 171.334960938 610.836914062 166.001953125 620.500976562 c 0
 160.66796875 630.16796875 151.334960938 635.000976562 138.001953125 635.000976562 c 0
 124.668945312 635.000976562 115.3359375 630.16796875 110.002929688 620.500976562 c 0
 104.669921875 610.833984375 102.002929688 594.666992188 102.002929688 572 c 2
 102.002929688 391 l 2
 102.002929688 367.666992188 104.669921875 351 110.002929688 341 c 0
 115.3359375 331 124.668945312 326 138.001953125 326 c 0
 151.334960938 326 160.66796875 331 166.000976562 341 c 0
474.501953125 23.5009765625 m 0
 457.501953125 44.5009765625 449.002929688 76.333984375 449.002929688 119.000976562 c 2
 449.002929688 300.000976562 l 2
 449.002929688 342.000976562 457.669921875 373.333984375 475.002929688 394.000976562 c 0
 492.3359375 414.66796875 518.668945312 425.000976562 554.001953125 425.000976562 c 0
 590.001953125 425.000976562 616.501953125 414.66796875 633.501953125 394.000976562 c 0
 650.501953125 373.333984375 659.001953125 342.000976562 659.001953125 300.000976562 c 2
 659.001953125 119.000976562 l 2
 659.001953125 76.333984375 650.501953125 44.5009765625 633.501953125 23.5009765625 c 0
 616.501953125 2.5009765625 590.001953125 -7.9990234375 554.001953125 -7.9990234375 c 0
 518.001953125 -7.9990234375 491.501953125 2.5009765625 474.501953125 23.5009765625 c 0
582.002929688 69.0009765625 m 0
 587.3359375 79.0009765625 590.00390625 95.6669921875 590.00390625 119 c 2
 590.00390625 300 l 2
 590.00390625 322.666992188 587.336914062 338.833984375 582.00390625 348.500976562 c 0
 576.666015625 358.16796875 567.333007812 363.000976562 554.00390625 363.000976562 c 0
 540.668945312 363.000976562 531.3359375 358.16796875 526.004882812 348.500976562 c 0
 520.671875 338.833984375 518.004882812 322.666992188 518.004882812 300.000976562 c 2
 518.004882812 119.000976562 l 2
 518.004882812 95.66796875 520.671875 79.0009765625 526.004882812 69.0009765625 c 0
 531.337890625 59.0009765625 540.670898438 54.0009765625 554.00390625 54.0009765625 c 0
 567.336914062 54.0009765625 576.669921875 59.0009765625 582.002929688 69.0009765625 c 0
EndSplineSet
EndChar

StartChar: ampersand
Encoding: 38 38 8
Width: 519
GlyphClass: 2
Flags: W
LayerCount: 2
Fore
SplineSet
469 67 m 1
 468.99609375 -0.9990234375 l 1
 435.99609375 -0.9990234375 l 2
 419.329101562 -0.9990234375 406.329101562 2.16796875 396.99609375 8.5009765625 c 0
 387.663085938 14.833984375 377.99609375 26.6669921875 367.99609375 44 c 2
 347.99609375 77 l 1
 327.329101562 46.3330078125 304.829101562 24.166015625 280.49609375 10.4990234375 c 0
 256.163085938 -3.16796875 228.330078125 -10.0009765625 196.997070312 -10.0009765625 c 0
 151.6640625 -10.0009765625 115.831054688 4.33203125 89.498046875 32.9990234375 c 0
 63.1650390625 61.666015625 49.998046875 99.666015625 49.998046875 146.999023438 c 0
 49.998046875 181.666015625 59.498046875 216.333007812 78.498046875 251 c 0
 97.498046875 285.666992188 128.665039062 327 171.998046875 375 c 1
 166.998046875 383 l 2
 139.665039062 429 120.665039062 464.5 109.998046875 489.5 c 0
 99.3310546875 514.5 93.998046875 538.666992188 93.998046875 562 c 0
 93.998046875 603.333007812 106.665039062 636.666015625 131.998046875 661.999023438 c 0
 157.331054688 687.33203125 189.6640625 699.999023438 228.997070312 699.999023438 c 0
 268.997070312 699.999023438 301.497070312 687.33203125 326.497070312 661.999023438 c 0
 351.497070312 636.6640625 363.997070312 603.331054688 363.997070312 561.999023438 c 0
 363.997070312 531.999023438 356.330078125 502.499023438 340.997070312 473.499023438 c 0
 325.6640625 444.499023438 298.331054688 408.999023438 258.998046875 366.999023438 c 1
 352.998046875 206.999023438 l 1
 406.998046875 296.999023438 l 1
 460.998046875 261.999023438 l 1
 389.998046875 144.999023438 l 1
 417.998046875 96.9990234375 l 2
 424.665039062 85.666015625 430.83203125 77.8330078125 436.499023438 73.5 c 0
 442.166015625 69.1669921875 449.333007812 67 458 67 c 2
 469 67 l 1
183.99609375 618.000976562 m 0
 172.663085938 604.66796875 166.99609375 586.666992188 166.99609375 564 c 0
 166.99609375 549.333007812 170.663085938 532.5 177.99609375 513.5 c 0
 185.329101562 494.5 199.99609375 466.666992188 221.99609375 430 c 1
 249.329101562 461.333007812 267.829101562 486.333007812 277.49609375 505 c 0
 287.163085938 523.668945312 291.99609375 543.3359375 291.99609375 564.000976562 c 0
 291.99609375 587.333984375 286.49609375 605.500976562 275.49609375 618.500976562 c 0
 264.49609375 631.500976562 249.329101562 638.000976562 229.99609375 638.000976562 c 0
 210.662109375 638.000976562 195.329101562 631.333984375 183.99609375 618.000976562 c 0
256.99609375 76.5 m 0
 273.663085938 88.1669921875 291.663085938 109 310.99609375 139 c 1
 208.99609375 313 l 1
 177.663085938 278.333007812 155.49609375 248.833007812 142.49609375 224.5 c 0
 129.49609375 200.166992188 122.99609375 175.666992188 122.99609375 151 c 0
 122.99609375 121.666992188 130.163085938 99 144.49609375 83 c 0
 158.829101562 67 178.329101562 59 202.99609375 59 c 0
 222.329101562 59 240.329101562 64.8330078125 256.99609375 76.5 c 0
EndSplineSet
EndChar

StartChar: quotesingle
Encoding: 39 39 9
Width: 150
GlyphClass: 2
Flags: W
LayerCount: 2
Fore
SplineSet
41 690 m 1
 109 690 l 1
 109 458 l 1
 41 458 l 1
 41 690 l 1
EndSplineSet
EndChar

StartChar: parenleft
Encoding: 40 40 10
Width: 259
GlyphClass: 2
Flags: W
LayerCount: 2
Fore
SplineSet
75.5 118 m 0
 58.5 188 50 257.999023438 50 327.999023438 c 0
 50 398.666015625 58.5 468.999023438 75.5 538.999023438 c 0
 92.5 608.999023438 117.333007812 675.999023438 150 739.999023438 c 1
 209 739.999023438 l 1
 179.666992188 673.999023438 157.333984375 605.999023438 142.000976562 535.999023438 c 0
 126.66796875 465.999023438 119.000976562 396.666015625 119.000976562 327.999023438 c 0
 119.000976562 259.33203125 126.66796875 189.83203125 142.000976562 119.499023438 c 0
 157.333984375 49.166015625 179.666992188 -18.6669921875 209 -84 c 1
 150 -84 l 1
 117.333007812 -19.3330078125 92.5 48 75.5 118 c 0
EndSplineSet
Substitution2: "'rtla' Right to Left Alternates lookup 0 subtable" parenright
EndChar

StartChar: parenright
Encoding: 41 41 11
Width: 259
GlyphClass: 2
Flags: W
LayerCount: 2
Fore
SplineSet
117 119.5 m 0
 132.333007812 189.833007812 140 259.333984375 140 328.000976562 c 0
 140 396.66796875 132.333007812 466.000976562 117 536.000976562 c 0
 101.666992188 606.000976562 79.333984375 674.000976562 50.0009765625 740.000976562 c 1
 109.000976562 740.000976562 l 1
 141.66796875 676.000976562 166.500976562 609.000976562 183.500976562 539.000976562 c 0
 200.500976562 469.000976562 209.000976562 398.66796875 209.000976562 328.000976562 c 0
 209.000976562 258.000976562 200.500976562 188.000976562 183.500976562 118.000976562 c 0
 166.500976562 48.0009765625 141.66796875 -19.33203125 109.000976562 -83.9990234375 c 1
 50.0009765625 -83.9990234375 l 1
 79.333984375 -18.666015625 101.666992188 49.1669921875 117 119.5 c 0
EndSplineSet
Substitution2: "'rtla' Right to Left Alternates lookup 0 subtable" parenleft
EndChar

StartChar: asterisk
Encoding: 42 42 12
Width: 348
GlyphClass: 2
Flags: W
LayerCount: 2
Fore
SplineSet
275 468 m 1
 199 512 l 1
 199 409 l 1
 149 409 l 1
 149 512 l 1
 73 468 l 1
 50 507 l 1
 128 552 l 1
 50 597 l 1
 73 637 l 1
 149 593 l 1
 149 690 l 1
 199 690 l 1
 199 592 l 1
 275 636 l 1
 297 597 l 1
 219 552 l 1
 298 507 l 1
 275 468 l 1
EndSplineSet
EndChar

StartChar: plus
Encoding: 43 43 13
Width: 420
GlyphClass: 2
Flags: W
LayerCount: 2
Fore
SplineSet
381 243 m 1
 243 243 l 1
 243 106 l 1
 178 106 l 1
 178 243 l 1
 40 243 l 1
 40 309 l 1
 178 309 l 1
 178 446 l 1
 243 446 l 1
 243 309 l 1
 381 309 l 1
 381 243 l 1
EndSplineSet
EndChar

StartChar: comma
Encoding: 44 44 14
Width: 150
GlyphClass: 2
Flags: W
LayerCount: 2
Fore
SplineSet
41 93 m 1
 109 93 l 1
 109 -82 l 1
 41 -141 l 1
 41 93 l 1
EndSplineSet
EndChar

StartChar: hyphen
Encoding: 45 45 15
Width: 375
GlyphClass: 2
Flags: W
LayerCount: 2
Fore
SplineSet
50 380 m 1
 325 380 l 1
 325 315 l 1
 50 315 l 1
 50 380 l 1
EndSplineSet
EndChar

StartChar: period
Encoding: 46 46 16
Width: 160
GlyphClass: 2
Flags: W
LayerCount: 2
Fore
SplineSet
41 89 m 1
 119 89 l 1
 119 0 l 1
 41 0 l 1
 41 89 l 1
EndSplineSet
EndChar

StartChar: slash
Encoding: 47 47 17
Width: 296
GlyphClass: 2
Flags: W
LayerCount: 2
Fore
SplineSet
181 690 m 1
 246 690 l 1
 115 -10 l 1
 50 -10 l 1
 181 690 l 1
EndSplineSet
EndChar

StartChar: zero
Encoding: 48 48 18
Width: 403
GlyphClass: 2
Flags: W
LayerCount: 2
Fore
SplineSet
52 174 m 2
 52 517 l 2
 52 638.333007812 102 699 202 699 c 0
 301.333007812 699 351 638.333007812 351 517 c 2
 351 174 l 2
 351 52 301.333007812 -9 202 -9 c 0
 102 -9 52 52 52 174 c 2
261.5 85 m 0
 272.5 104.333007812 278.000976562 137.666015625 278.000976562 184.999023438 c 2
 278.000976562 504.999023438 l 2
 278.000976562 552.33203125 272.500976562 585.665039062 261.500976562 604.998046875 c 0
 250.500976562 624.331054688 230.66796875 633.998046875 202.000976562 633.998046875 c 0
 173.333984375 633.998046875 153.333984375 624.331054688 142.000976562 604.998046875 c 0
 130.666992188 585.6640625 125 552.331054688 125 504.999023438 c 2
 125 184.999023438 l 2
 125 137.666015625 130.666992188 104.333007812 142 85 c 0
 153.333007812 65.6669921875 173.333007812 56 202 56 c 0
 230.666992188 56 250.5 65.6669921875 261.5 85 c 0
EndSplineSet
EndChar

StartChar: one
Encoding: 49 49 19
Width: 274
GlyphClass: 2
Flags: W
LayerCount: 2
Fore
SplineSet
141 605 m 1
 39 525 l 1
 39 610 l 1
 141 690 l 1
 208 690 l 1
 208 0 l 1
 141 0 l 1
 141 605 l 1
EndSplineSet
Substitution2: "'sups' Superscript lookup 1 subtable" uni00B9
EndChar

StartChar: two
Encoding: 50 50 20
Width: 392
GlyphClass: 2
Flags: W
LayerCount: 2
Fore
SplineSet
47 58 m 1
 238 397.002929688 l 2
 249.333007812 416.336914062 257.833007812 435.169921875 263.5 453.502929688 c 0
 269.166992188 471.8359375 272 492.3359375 272 515.002929688 c 2
 272 543.002929688 l 2
 272 572.3359375 265.5 594.8359375 252.5 610.502929688 c 0
 239.5 626.169921875 219.666992188 634.002929688 193 634.002929688 c 0
 170.333007812 634.002929688 152.333007812 626.169921875 139 610.502929688 c 0
 125.666992188 594.8359375 119 572.668945312 119 544.001953125 c 2
 119 504.001953125 l 1
 47 504.001953125 l 1
 47 551.001953125 l 2
 47 596.334960938 60.3330078125 632.334960938 87 659.001953125 c 0
 113.666992188 685.668945312 150 699.001953125 196 699.001953125 c 0
 242 699.001953125 278.333007812 685.668945312 305 659.001953125 c 0
 331.666992188 632.334960938 345 596.66796875 345 552.000976562 c 2
 345 515.000976562 l 2
 345 486.333007812 341.333007812 460.666015625 334 438 c 0
 326.666992188 415.333007812 315 390.333007812 299 363 c 2
 131 65 l 1
 342 65 l 1
 342 0 l 1
 47 0 l 1
 47 58 l 1
EndSplineSet
Substitution2: "'sups' Superscript lookup 1 subtable" uni00B2
EndChar

StartChar: three
Encoding: 51 51 21
Width: 405
GlyphClass: 2
Flags: W
LayerCount: 2
Fore
SplineSet
86 29 m 0
 60 54.3330078125 47 89.9990234375 47 135.999023438 c 2
 47 179.999023438 l 1
 119 179.999023438 l 1
 119 141.999023438 l 2
 119 114.666015625 126 93.4990234375 140 78.4990234375 c 0
 154 63.4990234375 173.666992188 55.9990234375 199 55.9990234375 c 0
 225.666992188 55.9990234375 245.833984375 63.9990234375 259.5 79.9990234375 c 0
 273.166992188 95.9990234375 280 118.666015625 280 147.999023438 c 2
 280 224.999023438 l 2
 280 258.33203125 273.333007812 283.499023438 260 300.499023438 c 0
 246.666992188 317.499023438 225 325.999023438 195 325.999023438 c 2
 166 325.999023438 l 1
 166 390.999023438 l 1
 195 390.999023438 l 2
 224.333007812 390.999023438 245.333007812 399.166015625 258 415.499023438 c 0
 270.666992188 431.83203125 277 455.999023438 277 487.999023438 c 2
 277 541.999023438 l 2
 277 571.999023438 270.166992188 594.83203125 256.5 610.499023438 c 0
 242.833007812 626.166015625 223.333007812 633.999023438 198 633.999023438 c 0
 173.333007812 633.999023438 154.333007812 626.499023438 141 611.499023438 c 0
 127.666992188 596.499023438 121 575.33203125 121 547.999023438 c 2
 121 507.999023438 l 1
 49 507.999023438 l 1
 49 548.999023438 l 2
 49 596.33203125 62 633.165039062 88 659.498046875 c 0
 114 685.831054688 151.333007812 698.998046875 200 698.998046875 c 0
 248 698.998046875 284.833007812 685.998046875 310.5 659.998046875 c 0
 336.166992188 633.998046875 349 597.331054688 349 549.998046875 c 2
 349 490.998046875 l 2
 349 457.665039062 343.5 430.83203125 332.5 410.499023438 c 0
 321.5 390.166015625 303 373.999023438 277 361.999023438 c 1
 305.666992188 348.666015625 325.5 331.333007812 336.5 310 c 0
 347.5 288.666992188 353 260 353 224 c 2
 353 151 l 2
 353 99.6669921875 339.666992188 60.1669921875 313 32.5 c 0
 286.333007812 4.8330078125 248 -9 198 -9 c 0
 149.333007812 -9 112 3.6669921875 86 29 c 0
EndSplineSet
Substitution2: "'sups' Superscript lookup 1 subtable" uni00B3
EndChar

StartChar: four
Encoding: 52 52 22
Width: 416
GlyphClass: 2
Flags: W
LayerCount: 2
Fore
SplineSet
380 139 m 1
 319 139 l 1
 319 0 l 1
 246 0 l 1
 246 139 l 1
 36 139 l 1
 36 204 l 1
 181 690 l 1
 254 690 l 1
 107 204 l 1
 246 204 l 1
 246 385 l 1
 319 385 l 1
 319 204 l 1
 380 204 l 1
 380 139 l 1
EndSplineSet
EndChar

StartChar: five
Encoding: 53 53 23
Width: 398
GlyphClass: 2
Flags: W
LayerCount: 2
Fore
SplineSet
89.5 30.5 m 0
 64.5 56.8330078125 52 95.3330078125 52 146 c 2
 52 164 l 1
 121 164 l 1
 121 147 l 2
 121 86.3330078125 146.333007812 56 197 56 c 0
 223 56 242.166992188 64 254.5 80 c 0
 266.833007812 96 273 121 273 155 c 2
 273 279 l 2
 273 313 267 338 255 354 c 0
 243 370 224 378 198 378 c 0
 164.666992188 378 139.333984375 361.666992188 122.000976562 329 c 1
 60.0009765625 329 l 1
 60.0009765625 690 l 1
 340.000976562 690 l 1
 340.000976562 622 l 1
 128.000976562 622 l 1
 128.000976562 410 l 1
 137.333984375 420 149.166992188 428 163.5 434 c 0
 177.833007812 440 194 443 212 443 c 0
 301.333007812 443 346 388.666992188 346 280 c 2
 346 158 l 2
 346 46.6669921875 296.666992188 -9 198 -9 c 0
 150.666992188 -9 114.5 4.1669921875 89.5 30.5 c 0
EndSplineSet
EndChar

StartChar: six
Encoding: 54 54 24
Width: 395
GlyphClass: 2
Flags: W
LayerCount: 2
Fore
SplineSet
87.5 34 m 0
 60.5 62.6669921875 46.998046875 101.666015625 46.998046875 150.999023438 c 2
 46.998046875 250.999023438 l 2
 46.998046875 278.999023438 49.3310546875 302.83203125 53.998046875 322.499023438 c 0
 58.6650390625 342.166015625 66.998046875 366.333007812 78.998046875 395 c 2
 202.998046875 690 l 1
 275.998046875 690 l 1
 154.998046875 398 l 1
 160.331054688 402 167.998046875 405.333007812 177.998046875 408 c 0
 187.998046875 410.666992188 198.665039062 412 209.998046875 412 c 0
 252.665039062 412 286.33203125 398.666992188 310.999023438 372 c 0
 335.666015625 345.333007812 347.999023438 308.666015625 347.999023438 262 c 2
 347.999023438 149 l 2
 347.999023438 100.333007812 334.33203125 61.8330078125 306.999023438 33.5 c 0
 279.666015625 5.1669921875 243.333007812 -9 198 -9 c 0
 151.333007812 -9 114.5 5.3330078125 87.5 34 c 0
254.998046875 79.9990234375 m 0
 268.331054688 95.9990234375 275 118.666015625 275 147.999023438 c 2
 275 255.999023438 l 2
 275 285.33203125 268.333007812 307.999023438 255 323.999023438 c 0
 241.666992188 339.999023438 222.666992188 347.999023438 198 347.999023438 c 0
 173.333007812 347.999023438 154.166015625 340.33203125 140.499023438 324.999023438 c 0
 126.83203125 309.666015625 119.999023438 287.999023438 119.999023438 259.999023438 c 2
 119.999023438 148.999023438 l 2
 119.999023438 118.999023438 126.666015625 95.9990234375 139.999023438 79.9990234375 c 0
 153.33203125 63.9990234375 172.665039062 55.9990234375 197.998046875 55.9990234375 c 0
 222.665039062 55.9990234375 241.665039062 63.9990234375 254.998046875 79.9990234375 c 0
EndSplineSet
EndChar

StartChar: seven
Encoding: 55 55 25
Width: 361
GlyphClass: 2
Flags: W
LayerCount: 2
Fore
SplineSet
330 690 m 1
 330 625 l 1
 144 0 l 1
 71 0 l 1
 258 625 l 1
 31 625 l 1
 31 690 l 1
 330 690 l 1
EndSplineSet
EndChar

StartChar: eight
Encoding: 56 56 26
Width: 403
GlyphClass: 2
Flags: W
LayerCount: 2
Fore
SplineSet
91.5 34 m 0
 65.1669921875 62.6669921875 51.9990234375 102.334960938 51.9990234375 153.001953125 c 2
 51.9990234375 229.001953125 l 2
 51.9990234375 293.001953125 74.9990234375 337.334960938 120.999023438 362.001953125 c 1
 100.33203125 373.334960938 84.33203125 389.834960938 72.9990234375 411.501953125 c 0
 61.666015625 433.168945312 55.9990234375 457.668945312 55.9990234375 485.001953125 c 2
 55.9990234375 549.001953125 l 2
 55.9990234375 594.334960938 69.166015625 630.66796875 95.4990234375 658.000976562 c 0
 121.83203125 685.333984375 156.999023438 699.000976562 200.999023438 699.000976562 c 0
 245.666015625 699.000976562 281.166015625 685.333984375 307.499023438 658.000976562 c 0
 333.83203125 630.666015625 346.999023438 594.333007812 346.999023438 549.000976562 c 2
 346.999023438 485.000976562 l 2
 346.999023438 457.000976562 341.33203125 432.16796875 329.999023438 410.500976562 c 0
 318.666015625 388.833984375 302.666015625 372.666992188 281.999023438 362.000976562 c 1
 327.999023438 337.333984375 350.999023438 293.000976562 350.999023438 229.000976562 c 2
 350.999023438 153.000976562 l 2
 350.999023438 102.333984375 337.83203125 62.6669921875 311.499023438 34 c 0
 285.166015625 5.3330078125 248.333007812 -9 201 -9 c 0
 154.333007812 -9 117.833007812 5.3330078125 91.5 34 c 0
260.499023438 417.000976562 m 0
 273.499023438 433.66796875 280.000976562 456.333007812 280.000976562 485 c 2
 280.000976562 549 l 2
 280.000976562 576.333007812 273.000976562 597.833007812 259.000976562 613.5 c 0
 245.000976562 629.166992188 225.66796875 637 201.000976562 637 c 0
 176.333984375 637 157.166992188 629 143.5 613 c 0
 129.833007812 597 123 575.666992188 123 549 c 2
 123 485 l 2
 123 455.666992188 129.666992188 432.833984375 143 416.500976562 c 0
 156.333007812 400.16796875 175.666015625 392.000976562 200.999023438 392.000976562 c 0
 227.666015625 392.000976562 247.499023438 400.333984375 260.499023438 417.000976562 c 0
284.000976562 154.999023438 m 2
 284.000976562 229.999023438 l 2
 284.000976562 297.33203125 256.333984375 330.999023438 201.000976562 330.999023438 c 0
 173.000976562 330.999023438 152.333984375 321.999023438 139.000976562 303.999023438 c 0
 125.66796875 285.999023438 119.000976562 261.33203125 119.000976562 229.999023438 c 2
 119.000976562 154.999023438 l 2
 119.000976562 122.999023438 125.66796875 97.9990234375 139.000976562 79.9990234375 c 0
 152.333984375 61.9990234375 173.000976562 52.9990234375 201.000976562 52.9990234375 c 0
 256.333984375 52.9990234375 284.000976562 86.9990234375 284.000976562 154.999023438 c 2
EndSplineSet
EndChar

StartChar: nine
Encoding: 57 57 27
Width: 395
GlyphClass: 2
Flags: W
LayerCount: 2
Fore
SplineSet
241 292 m 1
 235.666015625 288 227.833007812 284.666015625 217.5 281.999023438 c 0
 207.166015625 279.33203125 196.333007812 277.999023438 185 277.999023438 c 0
 142.333007812 277.999023438 108.666015625 291.33203125 83.9990234375 317.999023438 c 0
 59.33203125 344.666015625 46.9990234375 381.333007812 46.9990234375 428 c 2
 46.9990234375 541 l 2
 46.9990234375 590.333007812 60.666015625 629 87.9990234375 657 c 0
 115.33203125 685 151.999023438 699 197.999023438 699 c 0
 244.666015625 699 281.333007812 684.666992188 308 656 c 0
 334.666992188 627.333007812 348 588.333007812 348 539 c 2
 348 439 l 2
 348 411 345.666992188 387.166992188 341 367.5 c 0
 336.333007812 347.833007812 328 323.666015625 316 295 c 2
 192 0 l 1
 119 0 l 1
 241 292 l 1
255 364.999023438 m 0
 268.333007812 380.33203125 275 401.999023438 275 429.999023438 c 2
 275 540.999023438 l 2
 275 570.999023438 268.333007812 593.999023438 255 609.999023438 c 0
 241.666992188 625.999023438 222.666992188 633.999023438 198 633.999023438 c 0
 172.666992188 633.999023438 153.333984375 625.999023438 140.000976562 609.999023438 c 0
 126.66796875 593.999023438 120.000976562 571.33203125 120.000976562 541.999023438 c 2
 120.000976562 433.999023438 l 2
 120.000976562 404.666015625 126.66796875 381.999023438 140.000976562 365.999023438 c 0
 153.333984375 349.999023438 172.666992188 341.999023438 198 341.999023438 c 0
 222.666992188 341.999023438 241.666992188 349.666015625 255 364.999023438 c 0
EndSplineSet
EndChar

StartChar: colon
Encoding: 58 58 28
Width: 160
GlyphClass: 2
Flags: W
LayerCount: 2
Fore
SplineSet
41 89 m 1
 119 89 l 1
 119 0 l 1
 41 0 l 1
 41 89 l 1
41 427 m 1
 119 427 l 1
 119 338 l 1
 41 338 l 1
 41 427 l 1
EndSplineSet
EndChar

StartChar: semicolon
Encoding: 59 59 29
Width: 160
GlyphClass: 2
Flags: W
LayerCount: 2
Fore
SplineSet
49 93 m 1
 117 93 l 1
 117 -82 l 1
 49 -141 l 1
 49 93 l 1
41 427 m 1
 119 427 l 1
 119 338 l 1
 41 338 l 1
 41 427 l 1
EndSplineSet
EndChar

StartChar: less
Encoding: 60 60 30
Width: 420
GlyphClass: 2
Flags: W
LayerCount: 2
Fore
SplineSet
40 244 m 1
 40 308 l 1
 381 447 l 1
 381 380 l 1
 123 276 l 1
 381 172 l 1
 381 105 l 1
 40 244 l 1
EndSplineSet
Substitution2: "'rtla' Right to Left Alternates lookup 0 subtable" greater
EndChar

StartChar: equal
Encoding: 61 61 31
Width: 420
GlyphClass: 2
Flags: W
LayerCount: 2
Fore
SplineSet
40 401 m 1
 381 401 l 1
 381 336 l 1
 40 336 l 1
 40 401 l 1
40 215 m 1
 381 215 l 1
 381 149 l 1
 40 149 l 1
 40 215 l 1
EndSplineSet
EndChar

StartChar: greater
Encoding: 62 62 32
Width: 420
GlyphClass: 2
Flags: W
LayerCount: 2
Fore
SplineSet
40 172 m 1
 298 276 l 1
 40 380 l 1
 40 447 l 1
 381 308 l 1
 381 244 l 1
 40 105 l 1
 40 172 l 1
EndSplineSet
Substitution2: "'rtla' Right to Left Alternates lookup 0 subtable" less
EndChar

StartChar: question
Encoding: 63 63 33
Width: 363
GlyphClass: 2
Flags: W
LayerCount: 2
Fore
SplineSet
142 246 m 2
 142 268 144.166992188 286.498046875 148.5 301.498046875 c 0
 152.833007812 316.498046875 162.333007812 336.665039062 177 361.998046875 c 2
 219 431.998046875 l 2
 231.666992188 453.331054688 240.5 471.331054688 245.5 485.998046875 c 0
 250.5 500.665039062 253 518.33203125 253 538.999023438 c 0
 253 602.999023438 228.333007812 634.999023438 179 634.999023438 c 0
 150.333007812 634.999023438 130.5 625.33203125 119.5 605.999023438 c 0
 108.5 586.665039062 103 555.33203125 103 512 c 1
 30 512 l 1
 30 637.333007812 79.3330078125 700 178 700 c 0
 226 700 262.666992188 685.666992188 288 657 c 0
 313.333007812 628.333007812 326 589 326 539 c 0
 326 514.333007812 322.5 492.333007812 315.5 473 c 0
 308.5 453.666992188 295.666992188 427.666992188 277 395 c 2
 240 333 l 2
 229.333007812 315 222.5 300 219.5 288 c 0
 216.5 276 215 260.333007812 215 241 c 2
 215 178 l 1
 142 178 l 1
 142 246 l 2
139 96.998046875 m 1
 217 96.998046875 l 1
 217 -0.001953125 l 1
 139 -0.001953125 l 1
 139 96.998046875 l 1
EndSplineSet
EndChar

StartChar: at
Encoding: 64 64 34
Width: 734
GlyphClass: 2
Flags: W
LayerCount: 2
Fore
SplineSet
197.5 -86.5 m 0
 149.833007812 -58.8330078125 113.33203125 -19.8330078125 87.9990234375 30.5 c 0
 62.666015625 80.8330078125 49.9990234375 140 49.9990234375 208 c 2
 49.9990234375 362 l 2
 49.9990234375 428 62.9990234375 486 88.9990234375 536 c 0
 114.999023438 586 151.83203125 624.5 199.499023438 651.5 c 0
 247.166015625 678.5 302.666015625 692 365.999023438 692 c 0
 428.666015625 692 484.166015625 678.5 532.499023438 651.5 c 0
 580.83203125 624.5 618.165039062 586.666992188 644.498046875 538 c 0
 670.831054688 489.333007812 683.998046875 433.666015625 683.998046875 371 c 2
 683.998046875 216 l 2
 683.998046875 163.333007812 672.831054688 123.5 650.498046875 96.5 c 0
 628.165039062 69.5 596.665039062 56 555.998046875 56 c 0
 530.665039062 56 508.665039062 61.6669921875 489.998046875 73 c 0
 471.331054688 84.3330078125 457.6640625 100.333007812 448.998046875 121 c 1
 439.665039062 99 426.83203125 82.6669921875 410.499023438 72 c 0
 394.166015625 61.3330078125 372.666015625 56 345.999023438 56 c 0
 306.666015625 56 277.999023438 68.8330078125 259.999023438 94.5 c 0
 241.999023438 120.166992188 232.999023438 157 232.999023438 205 c 2
 232.999023438 352 l 2
 232.999023438 399.333007812 241.666015625 435.5 258.999023438 460.5 c 0
 276.333007812 485.5 304.666015625 498 343.999023438 498 c 0
 382.666015625 498 411.333007812 482.666992188 430 452 c 1
 430 490 l 1
 498 490 l 1
 498 186 l 2
 498 163.333007812 503.5 146 514.5 134 c 0
 525.5 122 539.666992188 116 557 116 c 0
 579 116 594.833007812 123.833007812 604.5 139.5 c 0
 614.166992188 155.166992188 619 178.333984375 619 209.000976562 c 2
 619 370.000976562 l 2
 619 450.000976562 596.5 513.500976562 551.5 560.500976562 c 0
 506.5 607.500976562 444.666992188 631.000976562 366 631.000976562 c 0
 286.666992188 631.000976562 225.166992188 607.333984375 181.5 560.000976562 c 0
 137.833007812 512.666992188 116 446.666992188 116 362.000976562 c 2
 116 209.000976562 l 2
 116 122.333984375 137.833007812 54.6669921875 181.5 6 c 0
 225.166992188 -42.6669921875 286.666992188 -67 366 -67 c 0
 402 -67 433.666992188 -63 461 -55 c 0
 488.333007812 -47 515 -34 541 -16 c 1
 573 -66 l 1
 541.666992188 -87.3330078125 509.333984375 -103 476.000976562 -113 c 0
 442.66796875 -123 406.000976562 -128 366.000976562 -128 c 0
 301.333984375 -128 245.166992188 -114.166992188 197.5 -86.5 c 0
415.499023438 141.5 m 0
 425.166015625 157.166992188 429.997070312 179 429.997070312 207 c 2
 429.997070312 350 l 2
 429.997070312 378 424.997070312 399.333007812 414.997070312 414 c 0
 404.997070312 428.666992188 388.330078125 436 364.997070312 436 c 0
 341.6640625 436 325.331054688 428.666992188 315.998046875 414 c 0
 306.665039062 399.333007812 301.998046875 378.333007812 301.998046875 351 c 2
 301.998046875 206 l 2
 301.998046875 177.333007812 306.831054688 155.5 316.498046875 140.5 c 0
 326.165039062 125.5 342.33203125 118 364.999023438 118 c 0
 388.999023438 118 405.83203125 125.833007812 415.499023438 141.5 c 0
EndSplineSet
EndChar

StartChar: A
Encoding: 65 65 35
Width: 461
GlyphClass: 2
Flags: W
LayerCount: 2
Fore
SplineSet
331 176 m 1
 129 176 l 1
 85 0 l 1
 9 0 l 1
 197 690 l 1
 264 690 l 1
 452 0 l 1
 375 0 l 1
 331 176 l 1
315 239 m 1
 230 580 l 1
 145 239 l 1
 315 239 l 1
EndSplineSet
EndChar

StartChar: B
Encoding: 66 66 36
Width: 470
GlyphClass: 2
Flags: W
LayerCount: 2
Fore
SplineSet
418 190 m 0
 418 127.333007812 403.5 80.0009765625 374.5 48.0009765625 c 0
 345.5 16.0009765625 299.666992188 0.0009765625 237 0.0009765625 c 2
 60 0.0009765625 l 1
 60 690.000976562 l 1
 236 690.000976562 l 2
 297.333007812 690.000976562 341.833007812 675.16796875 369.5 645.500976562 c 0
 397.166992188 615.833984375 411 570.666992188 411 510 c 0
 411 431.333007812 380.666992188 380.666015625 320 358 c 1
 385.333007812 340 418 284 418 190 c 0
133 625.000976562 m 1
 133 390.000976562 l 1
 230 390.000976562 l 2
 302 390.000976562 338 428.66796875 338 506.000976562 c 0
 338 548.66796875 329.5 579.16796875 312.5 597.500976562 c 0
 295.5 615.833984375 268.333007812 625.000976562 231 625.000976562 c 2
 133 625.000976562 l 1
318 97.0009765625 m 0
 336 118.333984375 345 151.000976562 345 195.000976562 c 0
 345 281.66796875 307 325.000976562 231 325.000976562 c 2
 133 325.000976562 l 1
 133 65.0009765625 l 1
 231 65.0009765625 l 2
 271 65.0009765625 300 75.66796875 318 97.0009765625 c 0
EndSplineSet
EndChar

StartChar: C
Encoding: 67 67 37
Width: 478
GlyphClass: 2
Flags: W
LayerCount: 2
Fore
SplineSet
104 44.5 m 0
 69.3330078125 79.5 52 131.666992188 52 201 c 2
 52 489 l 2
 52 559 69.1669921875 611.5 103.5 646.5 c 0
 137.833007812 681.5 183.333007812 699 240 699 c 0
 294.666992188 699 339.333984375 682.333007812 374.000976562 649 c 0
 408.66796875 615.665039062 426.000976562 565.33203125 426.000976562 498 c 2
 426.000976562 489 l 1
 353.000976562 489 l 1
 353.000976562 496 l 2
 353.000976562 543.333007812 342.833984375 578 322.500976562 600 c 0
 302.16796875 622 275.000976562 633 241.000976562 633 c 0
 202.333984375 633 173.333984375 620.833007812 154.000976562 596.5 c 0
 134.66796875 572.166992188 125.000976562 534 125.000976562 482 c 2
 125.000976562 200 l 2
 125.000976562 105.333007812 163.66796875 58 241.000976562 58 c 0
 275.66796875 58 303.000976562 69 323.000976562 91 c 0
 343.000976562 113 353.000976562 146.666992188 353.000976562 192 c 2
 353.000976562 201 l 1
 424.000976562 201 l 1
 424.000976562 191 l 2
 424.000976562 124.333007812 407.000976562 74.5 373.000976562 41.5 c 0
 339.000976562 8.5 295.000976562 -8 241.000976562 -8 c 0
 184.333984375 -8 138.666992188 9.5 104 44.5 c 0
EndSplineSet
EndChar

StartChar: D
Encoding: 68 68 38
Width: 477
GlyphClass: 2
Flags: W
LayerCount: 2
Fore
SplineSet
60 690 m 1
 239 690 l 2
 295 690 340 672.666992188 374 638 c 0
 408 603.333007812 425 551 425 481 c 2
 425 209 l 2
 425 139.666992188 408 87.5 374 52.5 c 0
 340 17.5 295 0 239 0 c 2
 60 0 l 1
 60 690 l 1
239 65 m 2
 275 65 302.833007812 77 322.5 101 c 0
 342.166992188 125 352 160.666992188 352 208 c 2
 352 474 l 2
 352 524.666992188 342.333007812 562.5 323 587.5 c 0
 303.666992188 612.5 275.666992188 625 239 625 c 2
 133 625 l 1
 133 65 l 1
 239 65 l 2
EndSplineSet
EndChar

StartChar: E
Encoding: 69 69 39
Width: 403
GlyphClass: 2
Flags: W
LayerCount: 2
Fore
SplineSet
132 625 m 1
 132 384 l 1
 334 384 l 1
 334 318 l 1
 132 318 l 1
 132 65 l 1
 367 65 l 1
 367 0 l 1
 60 0 l 1
 60 690 l 1
 367 690 l 1
 367 625 l 1
 132 625 l 1
EndSplineSet
EndChar

StartChar: F
Encoding: 70 70 40
Width: 397
GlyphClass: 2
Flags: W
LayerCount: 2
Fore
SplineSet
133 625 m 1
 133 381 l 1
 335 381 l 1
 335 315 l 1
 133 315 l 1
 133 0 l 1
 60 0 l 1
 60 690 l 1
 367 690 l 1
 367 625 l 1
 133 625 l 1
EndSplineSet
EndChar

StartChar: G
Encoding: 71 71 41
Width: 478
GlyphClass: 2
Flags: W
LayerCount: 2
Fore
SplineSet
103.5 44.5 m 0
 69.1669921875 79.5 52.0009765625 131.666992188 52.0009765625 201 c 2
 52.0009765625 489 l 2
 52.0009765625 559 69.16796875 611.5 103.500976562 646.5 c 0
 137.833984375 681.5 183.333984375 699 240.000976562 699 c 0
 295.333984375 699 340.166992188 682.5 374.5 649.5 c 0
 408.833007812 616.5 426 569.333007812 426 508 c 2
 426 496 l 1
 353 496 l 1
 353 508 l 2
 353 548 342.833007812 578.833007812 322.5 600.5 c 0
 302.166992188 622.166992188 274.666992188 633 240 633 c 0
 163.333007812 633 125 582.666992188 125 482 c 2
 125 200 l 2
 125 105.333007812 163.333007812 58 240 58 c 0
 276.666992188 58 304.666992188 69.5 324 92.5 c 0
 343.333007812 115.5 353 150.333007812 353 197 c 2
 353 293 l 1
 239 293 l 1
 239 354 l 1
 426 354 l 1
 426 200 l 2
 426 130.666992188 409 78.6669921875 375 44 c 0
 341 9.3330078125 296 -8 240 -8 c 0
 183.333007812 -8 137.833007812 9.5 103.5 44.5 c 0
EndSplineSet
EndChar

StartChar: H
Encoding: 72 72 42
Width: 478
GlyphClass: 2
Flags: W
LayerCount: 2
Fore
SplineSet
418 690 m 1
 418 0 l 1
 345 0 l 1
 345 319 l 1
 133 319 l 1
 133 0 l 1
 60 0 l 1
 60 690 l 1
 133 690 l 1
 133 384 l 1
 345 384 l 1
 345 690 l 1
 418 690 l 1
EndSplineSet
EndChar

StartChar: I
Encoding: 73 73 43
Width: 204
GlyphClass: 2
Flags: W
LayerCount: 2
Fore
SplineSet
66 690 m 1
 138 690 l 1
 138 0 l 1
 66 0 l 1
 66 690 l 1
EndSplineSet
EndChar

StartChar: J
Encoding: 74 74 44
Width: 263
GlyphClass: 2
Flags: W
LayerCount: 2
Fore
SplineSet
24 65 m 1
 53.0009765625 65 l 2
 76.333984375 65 94.0009765625 71.8330078125 106.000976562 85.5 c 0
 118.000976562 99.1669921875 124.000976562 119 124.000976562 145 c 2
 124.000976562 690 l 1
 197.000976562 690 l 1
 197.000976562 137 l 2
 197.000976562 92.3330078125 185.16796875 58.3330078125 161.500976562 35 c 0
 137.833984375 11.6669921875 103.666992188 0 59 0 c 2
 24 0 l 1
 24 65 l 1
EndSplineSet
EndChar

StartChar: K
Encoding: 75 75 45
Width: 461
GlyphClass: 2
Flags: W
LayerCount: 2
Fore
SplineSet
221 335 m 1
 133 185 l 1
 133 0 l 1
 60 0 l 1
 60 690 l 1
 133 690 l 1
 133 306 l 1
 354 690 l 1
 431 690 l 1
 265 409 l 1
 455 0 l 1
 375 0 l 1
 221 335 l 1
EndSplineSet
EndChar

StartChar: L
Encoding: 76 76 46
Width: 391
GlyphClass: 2
Flags: W
LayerCount: 2
Fore
SplineSet
60 690 m 1
 133 690 l 1
 133 65 l 1
 367 65 l 1
 367 0 l 1
 60 0 l 1
 60 690 l 1
EndSplineSet
EndChar

StartChar: M
Encoding: 77 77 47
Width: 598
GlyphClass: 2
Flags: W
LayerCount: 2
Fore
SplineSet
538 690 m 1
 538 0 l 1
 465 0 l 1
 465 530 l 1
 323 160 l 1
 275 160 l 1
 133 527 l 1
 133 0 l 1
 60 0 l 1
 60 690 l 1
 133 690 l 1
 300 264 l 1
 465 690 l 1
 538 690 l 1
EndSplineSet
EndChar

StartChar: N
Encoding: 78 78 48
Width: 502
GlyphClass: 2
Flags: W
LayerCount: 2
Fore
SplineSet
442 690 m 1
 442 0 l 1
 369 0 l 1
 133 530 l 1
 133 0 l 1
 60 0 l 1
 60 690 l 1
 133 690 l 1
 369 159 l 1
 369 690 l 1
 442 690 l 1
EndSplineSet
EndChar

StartChar: O
Encoding: 79 79 49
Width: 478
GlyphClass: 2
Flags: W
LayerCount: 2
Fore
SplineSet
103 44.5 m 0
 69 79.5 52 131.66796875 52 201.000976562 c 2
 52 489.000976562 l 2
 52 559.66796875 69 612.334960938 103 647.000976562 c 0
 137 681.66796875 182.333007812 699.000976562 239 699.000976562 c 0
 295.666992188 699.000976562 341 681.66796875 375 647.000976562 c 0
 409 612.333984375 426 559.666992188 426 489 c 2
 426 201 l 2
 426 131.666992188 408.833007812 79.5 374.5 44.5 c 0
 340.166992188 9.5 295 -8 239 -8 c 0
 182.333007812 -8 137 9.5 103 44.5 c 0
323.5 93.5009765625 m 0
 343.166992188 117.16796875 353 152.66796875 353 200.000976562 c 2
 353 482.000976562 l 2
 353 532.66796875 343.333007812 570.500976562 324 595.500976562 c 0
 304.666992188 620.500976562 276.666992188 633.000976562 240 633.000976562 c 0
 201.333007812 633.000976562 172.5 620.66796875 153.5 596.000976562 c 0
 134.5 571.333984375 125 533.333984375 125 482.000976562 c 2
 125 200.000976562 l 2
 125 105.333984375 163.333007812 58.0009765625 240 58.0009765625 c 0
 276 58.0009765625 303.833007812 69.833984375 323.5 93.5009765625 c 0
EndSplineSet
EndChar

StartChar: P
Encoding: 80 80 50
Width: 440
GlyphClass: 2
Flags: W
LayerCount: 2
Fore
SplineSet
373.5 639.5 m 0
 401.833007812 605.833007812 416.000976562 555.666992188 416.000976562 489 c 0
 416.000976562 357.666992188 357.000976562 292 239.000976562 292 c 2
 133.000976562 292 l 1
 133.000976562 0 l 1
 60.0009765625 0 l 1
 60.0009765625 690 l 1
 239.000976562 690 l 2
 300.333984375 690 345.166992188 673.166992188 373.5 639.5 c 0
317.500976562 388.000976562 m 0
 335.16796875 408.66796875 344.000976562 442.333984375 344.000976562 489.000976562 c 0
 344.000976562 537.000976562 335.16796875 571.66796875 317.500976562 593.000976562 c 0
 299.833984375 614.333984375 272.333984375 625.000976562 235.000976562 625.000976562 c 2
 133.000976562 625.000976562 l 1
 133.000976562 357.000976562 l 1
 235.000976562 357.000976562 l 2
 272.333984375 357.000976562 299.833984375 367.333984375 317.500976562 388.000976562 c 0
EndSplineSet
EndChar

StartChar: Q
Encoding: 81 81 51
Width: 478
GlyphClass: 2
Flags: W
LayerCount: 2
Fore
SplineSet
403 85.5 m 0
 387.666992188 54.5 366 31.333984375 338 16.0009765625 c 1
 394 -118.999023438 l 1
 334 -142.999023438 l 1
 277 -4.9990234375 l 1
 265 -6.9990234375 252.333007812 -7.9990234375 239 -7.9990234375 c 0
 182.333007812 -7.9990234375 137 9.5009765625 103 44.5009765625 c 0
 69 79.5009765625 52 131.66796875 52 201.000976562 c 2
 52 489.000976562 l 2
 52 559.66796875 69 612.334960938 103 647.000976562 c 0
 137 681.66796875 182.333007812 699.000976562 239 699.000976562 c 0
 295.666992188 699.000976562 341 681.66796875 375 647.000976562 c 0
 409 612.333984375 426 559.666992188 426 489 c 2
 426 201 l 2
 426 155 418.333007812 116.5 403 85.5 c 0
353 482.000976562 m 2
 353 532.66796875 343.333007812 570.500976562 324 595.500976562 c 0
 304.666992188 620.500976562 276.666992188 633.000976562 240 633.000976562 c 0
 201.333007812 633.000976562 172.5 620.66796875 153.5 596.000976562 c 0
 134.5 571.333984375 125 533.333984375 125 482.000976562 c 2
 125 200.000976562 l 2
 125 105.333984375 163.333007812 58.0009765625 240 58.0009765625 c 0
 276 58.0009765625 303.833007812 69.833984375 323.5 93.5009765625 c 0
 343.166992188 117.16796875 353 152.66796875 353 200.000976562 c 2
 353 482.000976562 l 2
EndSplineSet
EndChar

StartChar: R
Encoding: 82 82 52
Width: 466
GlyphClass: 2
Flags: W
LayerCount: 2
Fore
SplineSet
244 302 m 1
 132.999023438 302 l 1
 132.999023438 0 l 1
 59.9990234375 0 l 1
 59.9990234375 690 l 1
 241.999023438 690 l 2
 302.666015625 690 346.833007812 674 374.5 642 c 0
 402.166992188 610 416 561 416 495 c 0
 416 396.333007812 382 335.666015625 314 313 c 1
 436 0 l 1
 358 0 l 1
 244 302 l 1
132.999023438 366 m 1
 241.000976562 365.999023438 l 2
 276.333984375 365.999023438 302.166992188 376.83203125 318.5 398.499023438 c 0
 334.833007812 420.166015625 343 452.333007812 343 495 c 0
 343 538.333007812 335.166992188 570.833007812 319.5 592.5 c 0
 303.833007812 614.166992188 277.666015625 625 240.999023438 625 c 2
 132.999023438 625 l 1
 132.999023438 366 l 1
EndSplineSet
EndChar

StartChar: S
Encoding: 83 83 53
Width: 426
GlyphClass: 2
Flags: W
LayerCount: 2
Fore
SplineSet
73.5 43 m 0
 43.1669921875 76.3330078125 27.3310546875 125 25.998046875 189 c 1
 96.998046875 189 l 1
 98.998046875 142.333007812 109.498046875 108.833007812 128.498046875 88.5 c 0
 147.498046875 68.1669921875 174.665039062 58 209.998046875 58 c 0
 245.998046875 58 272.831054688 68.1669921875 290.498046875 88.5 c 0
 308.165039062 108.833007812 316.998046875 140 316.998046875 182 c 0
 316.998046875 218.666992188 309.165039062 246.333984375 293.498046875 265 c 0
 277.831054688 283.666992188 249.6640625 301.333984375 208.997070312 318.000976562 c 2
 168.997070312 334.000976562 l 2
 123.6640625 352.000976562 89.6640625 375.000976562 66.9970703125 403.000976562 c 0
 44.330078125 431.000976562 32.9970703125 468.66796875 32.9970703125 516.000976562 c 0
 32.9970703125 572.000976562 48.830078125 616.66796875 80.4970703125 650.000976562 c 0
 112.1640625 683.333984375 155.6640625 700.000976562 210.997070312 700.000976562 c 0
 263.6640625 700.000976562 305.331054688 684.500976562 335.998046875 653.500976562 c 0
 366.665039062 622.500976562 383.33203125 576.000976562 385.999023438 514.000976562 c 1
 316.999023438 514.000976562 l 1
 312.33203125 594.66796875 276.665039062 635.000976562 209.999023438 635.000976562 c 0
 175.33203125 635.000976562 149.33203125 625.000976562 131.999023438 605.000976562 c 0
 114.666015625 585.000976562 105.999023438 556.66796875 105.999023438 520.000976562 c 0
 105.999023438 487.333007812 113.83203125 461.666015625 129.499023438 443 c 0
 145.166015625 424.333007812 171.999023438 407.666015625 209.999023438 393 c 2
 250.999023438 377 l 2
 296.999023438 359 331.666015625 335.333007812 354.999023438 306 c 0
 378.33203125 276.666992188 389.999023438 235.666992188 389.999023438 183 c 0
 389.999023438 122.333007812 374.33203125 75.5 342.999023438 42.5 c 0
 311.666015625 9.5 266.333007812 -7 207 -7 c 0
 148.333007812 -7 103.833007812 9.6669921875 73.5 43 c 0
EndSplineSet
EndChar

StartChar: T
Encoding: 84 84 54
Width: 368
GlyphClass: 2
Flags: W
LayerCount: 2
Fore
SplineSet
362 625 m 1
 220 625 l 1
 220 0 l 1
 148 0 l 1
 148 625 l 1
 6 625 l 1
 6 690 l 1
 362 690 l 1
 362 625 l 1
EndSplineSet
EndChar

StartChar: U
Encoding: 85 85 55
Width: 480
GlyphClass: 2
Flags: W
LayerCount: 2
Fore
SplineSet
147 15 m 0
 119.666992188 30.3330078125 98.33203125 52 82.9990234375 80 c 0
 67.666015625 108 59.9990234375 140 59.9990234375 176 c 2
 59.9990234375 690 l 1
 132.999023438 690 l 1
 132.999023438 180 l 2
 132.999023438 140.666992188 142.499023438 110.5 161.499023438 89.5 c 0
 180.499023438 68.5 206.666015625 58 239.999023438 58 c 0
 273.33203125 58 299.499023438 68.6669921875 318.499023438 90 c 0
 337.499023438 111.333007812 346.999023438 141.333007812 346.999023438 180 c 2
 346.999023438 690 l 1
 419.999023438 690 l 1
 419.999023438 176 l 2
 419.999023438 120.666992188 403.33203125 76.1669921875 369.999023438 42.5 c 0
 336.666015625 8.8330078125 293.333007812 -8 240 -8 c 0
 205.333007812 -8 174.333007812 -0.3330078125 147 15 c 0
EndSplineSet
EndChar

StartChar: V
Encoding: 86 86 56
Width: 423
GlyphClass: 2
Flags: W
LayerCount: 2
Fore
SplineSet
9 690 m 1
 87 690 l 1
 212 114 l 1
 336 690 l 1
 414 690 l 1
 247 0 l 1
 177 0 l 1
 9 690 l 1
EndSplineSet
EndChar

StartChar: W
Encoding: 87 87 57
Width: 655
GlyphClass: 2
Flags: W
LayerCount: 2
Fore
SplineSet
646 690 m 1
 512 0 l 1
 434 0 l 1
 328 582 l 1
 223 0 l 1
 145 0 l 1
 9 690 l 1
 85 690 l 1
 185 110 l 1
 282 690 l 1
 378 690 l 1
 476 110 l 1
 574 690 l 1
 646 690 l 1
EndSplineSet
EndChar

StartChar: X
Encoding: 88 88 58
Width: 416
GlyphClass: 2
Flags: W
LayerCount: 2
Fore
SplineSet
166 358 m 1
 22 690 l 1
 104 690 l 1
 209 431 l 1
 312 690 l 1
 394 690 l 1
 249 359 l 1
 407 0 l 1
 324 0 l 1
 208 286 l 1
 91 0 l 1
 9 0 l 1
 166 358 l 1
EndSplineSet
EndChar

StartChar: Y
Encoding: 89 89 59
Width: 392
GlyphClass: 2
Flags: W
LayerCount: 2
Fore
SplineSet
232 287 m 1
 232 0 l 1
 160 0 l 1
 160 287 l 1
 9 690 l 1
 89 690 l 1
 196 374 l 1
 303 690 l 1
 383 690 l 1
 232 287 l 1
EndSplineSet
EndChar

StartChar: Z
Encoding: 90 90 60
Width: 385
GlyphClass: 2
Flags: W
LayerCount: 2
Fore
SplineSet
358 65 m 1
 358 0 l 1
 30 0 l 1
 30 65 l 1
 279 625 l 1
 41 625 l 1
 41 690 l 1
 351 690 l 1
 351 625 l 1
 101 65 l 1
 358 65 l 1
EndSplineSet
EndChar

StartChar: bracketleft
Encoding: 91 91 61
Width: 253
GlyphClass: 2
Flags: W
LayerCount: 2
Fore
SplineSet
60 740 m 1
 203 740 l 1
 203 675 l 1
 129 675 l 1
 129 -19 l 1
 203 -19 l 1
 203 -84 l 1
 60 -84 l 1
 60 740 l 1
EndSplineSet
Substitution2: "'rtla' Right to Left Alternates lookup 0 subtable" bracketright
EndChar

StartChar: backslash
Encoding: 92 92 62
Width: 296
GlyphClass: 2
Flags: W
LayerCount: 2
Fore
SplineSet
50 690 m 1
 115 690 l 1
 246 -10 l 1
 181 -10 l 1
 50 690 l 1
EndSplineSet
EndChar

StartChar: bracketright
Encoding: 93 93 63
Width: 252
GlyphClass: 2
Flags: W
LayerCount: 2
Fore
SplineSet
50 -19 m 1
 123 -19 l 1
 123 675 l 1
 50 675 l 1
 50 740 l 1
 192 740 l 1
 192 -84 l 1
 50 -84 l 1
 50 -19 l 1
EndSplineSet
Substitution2: "'rtla' Right to Left Alternates lookup 0 subtable" bracketleft
EndChar

StartChar: asciicircum
Encoding: 94 94 64
Width: 420
GlyphClass: 2
Flags: W
LayerCount: 2
Fore
SplineSet
177 690 m 1
 242 690 l 1
 384 280 l 1
 318 280 l 1
 210 600 l 1
 101 280 l 1
 36 280 l 1
 177 690 l 1
EndSplineSet
EndChar

StartChar: underscore
Encoding: 95 95 65
Width: 416
GlyphClass: 2
Flags: W
LayerCount: 2
Fore
SplineSet
0 -54 m 1
 416 -54 l 1
 416 -104 l 1
 0 -104 l 1
 0 -54 l 1
EndSplineSet
EndChar

StartChar: grave
Encoding: 96 96 66
Width: 501
GlyphClass: 2
Flags: W
LayerCount: 2
Fore
SplineSet
269 576 m 1
 160 705 l 1
 234 705 l 1
 325 576 l 1
 269 576 l 1
EndSplineSet
EndChar

StartChar: a
Encoding: 97 97 67
Width: 401
GlyphClass: 2
Flags: W
LayerCount: 2
Fore
SplineSet
304 485.5 m 0
 329.333007812 459.166992188 342 422.333007812 342 375 c 2
 342 0 l 1
 277 0 l 1
 277 48 l 1
 253.666992188 10.6669921875 218.666992188 -8 172 -8 c 0
 129.333007812 -8 96.666015625 5.5 73.9990234375 32.5 c 0
 51.33203125 59.5 39.9990234375 97.3330078125 39.9990234375 146 c 0
 39.9990234375 192.666992188 53.166015625 229.166992188 79.4990234375 255.5 c 0
 105.83203125 281.833007812 143.999023438 295 193.999023438 295 c 2
 273.999023438 295 l 1
 273.999023438 378 l 2
 273.999023438 436 247.33203125 465 193.999023438 465 c 0
 169.33203125 465 150.33203125 458.333007812 136.999023438 445 c 0
 123.666015625 431.666992188 116.999023438 413 116.999023438 389 c 2
 116.999023438 381 l 1
 52.9990234375 381 l 1
 52.9990234375 390 l 2
 52.9990234375 432 65.83203125 465 91.4990234375 489 c 0
 117.166015625 513 151.333007812 525 194 525 c 0
 242 525 278.666992188 511.833007812 304 485.5 c 0
251.5 76.4990234375 m 0
 266.5 93.4990234375 274 117.33203125 274 147.999023438 c 2
 274 243.999023438 l 1
 201 243.999023438 l 2
 139 243.999023438 108 211.666015625 108 146.999023438 c 0
 108 82.9990234375 134.666992188 50.9990234375 188 50.9990234375 c 0
 215.333007812 50.9990234375 236.5 59.4990234375 251.5 76.4990234375 c 0
EndSplineSet
EndChar

StartChar: b
Encoding: 98 98 68
Width: 412
GlyphClass: 2
Flags: W
LayerCount: 2
Fore
SplineSet
127 47 m 1
 126.999023438 0 l 1
 58.9990234375 0 l 1
 58.9990234375 690 l 1
 126.999023438 690 l 1
 126.999023438 467 l 1
 149.666015625 505.666992188 182.333007812 525 225 525 c 0
 266.333007812 525 299.5 510.5 324.5 481.5 c 0
 349.5 452.5 362 408.333007812 362 349 c 2
 362 168 l 2
 362 108.666992188 349.5 64.5 324.5 35.5 c 0
 299.5 6.5 266.666992188 -8 226 -8 c 0
 182.666992188 -8 149.666992188 10.3330078125 127 47 c 1
273.499023438 81.5 m 0
 287.166015625 100.5 293.998046875 132 293.998046875 176 c 2
 293.998046875 341 l 2
 293.998046875 423 266.998046875 464 212.998046875 464 c 0
 184.998046875 464 163.665039062 453.5 148.998046875 432.5 c 0
 134.331054688 411.5 126.998046875 380.666992188 126.998046875 340 c 2
 126.998046875 175 l 2
 126.998046875 135 134.331054688 104.666992188 148.998046875 84 c 0
 163.665039062 63.3330078125 184.998046875 53 212.998046875 53 c 0
 239.665039062 53 259.83203125 62.5 273.499023438 81.5 c 0
EndSplineSet
EndChar

StartChar: c
Encoding: 99 99 69
Width: 409
GlyphClass: 2
Flags: W
LayerCount: 2
Fore
SplineSet
91 34.5 m 0
 63.6669921875 62.8330078125 50 107.333007812 50 168 c 2
 50 349 l 2
 50 409.666992188 63.6669921875 454.166992188 91 482.5 c 0
 118.333007812 510.833007812 156.666015625 525 205.999023438 525 c 0
 254.666015625 525 292.333007812 511.333007812 319 484 c 0
 345.666992188 456.666992188 359 415.333984375 359 360.000976562 c 2
 359 346.000976562 l 1
 291 346.000976562 l 1
 291 360.000976562 l 2
 291 429.333984375 263 464.000976562 207 464.000976562 c 0
 177.666992188 464.000976562 155.5 454.66796875 140.5 436.000976562 c 0
 125.5 417.333984375 118 385.666992188 118 341.000976562 c 2
 118 176.000976562 l 2
 118 131.333984375 125.5 99.6669921875 140.5 81 c 0
 155.5 62.3330078125 177.333007812 53 206 53 c 0
 262.666992188 53 291 87.6669921875 291 157 c 2
 291 171 l 1
 359 171 l 1
 359 158 l 2
 359 102.666992188 345.666992188 61.1669921875 319 33.5 c 0
 292.333007812 5.8330078125 255 -8 207 -8 c 0
 157 -8 118.333007812 6.1669921875 91 34.5 c 0
EndSplineSet
EndChar

StartChar: d
Encoding: 100 100 70
Width: 412
GlyphClass: 2
Flags: W
LayerCount: 2
Fore
SplineSet
87.5 35.5 m 0
 62.5 64.5 50 108.666992188 50 168 c 2
 50 349 l 2
 50 408.333007812 62.5 452.5 87.5 481.5 c 0
 112.5 510.5 145.333007812 525 186 525 c 0
 229.333007812 525 262.333007812 505.666992188 285 467 c 1
 285 690 l 1
 353 690 l 1
 353 0 l 1
 285 0 l 1
 285 47 l 1
 262.333007812 10.3330078125 229.333007812 -8 186 -8 c 0
 145.333007812 -8 112.5 6.5 87.5 35.5 c 0
263 84 m 0
 277.666992188 104.666992188 285 135 285 175 c 2
 285 340 l 2
 285 422.666992188 256.333007812 464 199 464 c 0
 145 464 118 423 118 341 c 2
 118 176 l 2
 118 132 124.833007812 100.5 138.5 81.5 c 0
 152.166992188 62.5 172.333984375 53 199 53 c 0
 227 53 248.333007812 63.3330078125 263 84 c 0
EndSplineSet
EndChar

StartChar: e
Encoding: 101 101 71
Width: 408
GlyphClass: 2
Flags: W
LayerCount: 2
Fore
SplineSet
118 238 m 1
 118 176.999023438 l 2
 118 131.666015625 125.833007812 99.3330078125 141.5 80 c 0
 157.166992188 60.6669921875 179.333984375 51 208 51 c 0
 262.666992188 51 290 85.3330078125 290 154 c 2
 290 158 l 1
 357 158 l 1
 357 155 l 2
 357 101 343.833007812 60.3330078125 317.5 33 c 0
 291.166992188 5.6669921875 254 -8 206 -8 c 0
 102 -8 50 53.3330078125 50 176 c 2
 50 343 l 2
 50 403 63.5 448.333007812 90.5 479 c 0
 117.5 509.666992188 155 525 203 525 c 0
 251 525 288.833007812 509.666992188 316.5 479 c 0
 344.166992188 448.333007812 358 403 358 343 c 2
 358 238 l 1
 118 238 l 1
140 435.499023438 m 0
 125.333007812 416.499023438 118 384.999023438 118 340.999023438 c 2
 118 289.999023438 l 1
 291 289.999023438 l 1
 291 342.999023438 l 2
 291 386.33203125 283.5 417.33203125 268.5 435.999023438 c 0
 253.5 454.666015625 232 463.999023438 204 463.999023438 c 0
 176 463.999023438 154.666992188 454.499023438 140 435.499023438 c 0
EndSplineSet
EndChar

StartChar: f
Encoding: 102 102 72
Width: 288
GlyphClass: 2
Flags: W
LayerCount: 2
Fore
SplineSet
185 619 m 0
 174.333007812 607.6640625 169.000976562 589.331054688 169.000976562 564 c 2
 169.000976562 517 l 1
 258.000976562 517 l 1
 258.000976562 464 l 1
 169.000976562 464 l 1
 169.000976562 0 l 1
 101.000976562 0 l 1
 101.000976562 464 l 1
 39.0009765625 464 l 1
 39.0009765625 517 l 1
 101.000976562 517 l 1
 101.000976562 555 l 2
 101.000976562 599 112.16796875 632.5 134.500976562 655.5 c 0
 156.833984375 678.5 189.333984375 690 232.000976562 690 c 2
 258.000976562 690 l 1
 258.000976562 636 l 1
 238.000976562 636 l 2
 213.333984375 636 195.666992188 630.333007812 185 619 c 0
EndSplineSet
EndChar

StartChar: g
Encoding: 103 103 73
Width: 412
GlyphClass: 2
Flags: W
LayerCount: 2
Fore
SplineSet
95.5 -127 m 0
 70.5 -103.666992188 57.333984375 -71.6669921875 56.0009765625 -31 c 1
 121.000976562 -31 l 1
 122.333984375 -53 130.000976562 -70.5 144.000976562 -83.5 c 0
 158.000976562 -96.5 177.000976562 -103 201.000976562 -103 c 0
 230.333984375 -103 251.666992188 -93.6669921875 265 -75 c 0
 278.333007812 -56.3330078125 285 -28 285 10 c 2
 285 86 l 1
 263 50 230 32 186 32 c 0
 145.333007812 32 112.5 46.5 87.5 75.5 c 0
 62.5 104.5 50 148.333007812 50 207 c 2
 50 350 l 2
 50 408.666992188 62.5 452.5 87.5 481.5 c 0
 112.5 510.5 145.333007812 525 186 525 c 0
 230 525 263 505.666992188 285 467 c 1
 285 517 l 1
 353 517 l 1
 353 16 l 2
 353 -38.6669921875 340.5 -82 315.5 -114 c 0
 290.5 -146 252.333007812 -162 201 -162 c 0
 155.666992188 -162 120.5 -150.333007812 95.5 -127 c 0
263.000976562 124 m 0
 277.66796875 144.666992188 285 175 285 215 c 2
 285 341 l 2
 285 423 256.333007812 464 199 464 c 0
 173.666015625 464 153.833007812 454.666992188 139.5 436 c 0
 125.166992188 417.333007812 118 386 118 342 c 2
 118 215 l 2
 118 171 124.833007812 139.666992188 138.5 121 c 0
 152.166992188 102.333007812 172.333984375 93 199.000976562 93 c 0
 227.000976562 93 248.333984375 103.333007812 263.000976562 124 c 0
EndSplineSet
EndChar

StartChar: h
Encoding: 104 104 74
Width: 416
GlyphClass: 2
Flags: W
LayerCount: 2
Fore
SplineSet
59 690 m 1
 127 690 l 1
 127 472 l 1
 137.666992188 488.666992188 151.833984375 501.666992188 169.500976562 511 c 0
 187.16796875 520.333007812 206.334960938 525 227.000976562 525 c 0
 268.333984375 525 300.333984375 511.833007812 323.000976562 485.5 c 0
 345.66796875 459.166992188 357.000976562 422 357.000976562 374 c 2
 357.000976562 0 l 1
 289.000976562 0 l 1
 289.000976562 371 l 2
 289.000976562 401 281.66796875 424 267.000976562 440 c 0
 252.333984375 456 232.666992188 464 208 464 c 0
 184 464 164.5 456 149.5 440 c 0
 134.5 424 127 401 127 371 c 2
 127 0 l 1
 59 0 l 1
 59 690 l 1
EndSplineSet
EndChar

StartChar: i
Encoding: 105 105 75
Width: 199
GlyphClass: 2
Flags: W
LayerCount: 2
Fore
SplineSet
65 517 m 1
 133 517 l 1
 133 0 l 1
 65 0 l 1
 65 517 l 1
65 689 m 1
 134 689 l 1
 134 599 l 1
 65 599 l 1
 65 689 l 1
EndSplineSet
EndChar

StartChar: j
Encoding: 106 106 76
Width: 195
GlyphClass: 2
Flags: W
LayerCount: 2
Fore
SplineSet
61 689 m 1
 130 689 l 1
 130 599 l 1
 61 599 l 1
 61 689 l 1
-25 -91 m 1
 -9.9990234375 -91 l 2
 37.333984375 -91 61.0009765625 -64.6669921875 61.0009765625 -12 c 2
 61.0009765625 517 l 1
 130.000976562 517 l 1
 130.000976562 -15 l 2
 130.000976562 -59.6669921875 118.16796875 -93.6669921875 94.5009765625 -117 c 0
 70.833984375 -140.333007812 36.6669921875 -152 -8 -152 c 2
 -25 -152 l 1
 -25 -91 l 1
EndSplineSet
EndChar

StartChar: k
Encoding: 107 107 77
Width: 409
GlyphClass: 2
Flags: W
LayerCount: 2
Fore
SplineSet
197 256 m 1
 127 153 l 1
 127 0 l 1
 59 0 l 1
 59 690 l 1
 127 690 l 1
 127 248 l 1
 300 517 l 1
 375 517 l 1
 239 318 l 1
 394 0 l 1
 316 0 l 1
 197 256 l 1
EndSplineSet
EndChar

StartChar: l
Encoding: 108 108 78
Width: 234
GlyphClass: 2
Flags: W
LayerCount: 2
Fore
SplineSet
94.5 35 m 0
 70.8330078125 58.3330078125 59.0009765625 92.3330078125 59.0009765625 137 c 2
 59.0009765625 690 l 1
 128.000976562 690 l 1
 128.000976562 140 l 2
 128.000976562 87.3330078125 151.66796875 61 199.000976562 61 c 2
 214.000976562 61 l 1
 214.000976562 0 l 1
 197.000976562 0 l 2
 152.333984375 0 118.166992188 11.6669921875 94.5 35 c 0
EndSplineSet
EndChar

StartChar: m
Encoding: 109 109 79
Width: 646
GlyphClass: 2
Flags: W
LayerCount: 2
Fore
SplineSet
59 517 m 1
 126.000976562 516.999023438 l 1
 126.000976562 469.999023438 l 1
 136.000976562 486.666015625 149.833984375 499.999023438 167.500976562 509.999023438 c 0
 185.16796875 519.999023438 205.000976562 524.999023438 227.000976562 524.999023438 c 0
 251.66796875 524.999023438 273.66796875 519.166015625 293.000976562 507.499023438 c 0
 312.333984375 495.83203125 327.666992188 479.999023438 339 459.999023438 c 1
 351.666992188 480.666015625 367.833984375 496.666015625 387.500976562 507.999023438 c 0
 407.16796875 519.33203125 429.000976562 524.999023438 453.000976562 524.999023438 c 0
 497.000976562 524.999023438 530.333984375 511.83203125 553.000976562 485.499023438 c 0
 575.66796875 459.166015625 587.000976562 421.999023438 587.000976562 373.999023438 c 2
 587.000976562 -0.0009765625 l 1
 518.000976562 -0.0009765625 l 1
 518.000976562 370.999023438 l 2
 518.000976562 400.999023438 510.833984375 423.999023438 496.500976562 439.999023438 c 0
 482.16796875 455.999023438 463.000976562 463.999023438 439.000976562 463.999023438 c 0
 414.333984375 463.999023438 394.500976562 455.83203125 379.500976562 439.499023438 c 0
 364.500976562 423.166015625 357.000976562 400.666015625 357.000976562 371.999023438 c 2
 357.000976562 -0.0009765625 l 1
 289.000976562 -0.0009765625 l 1
 289.000976562 370.999023438 l 2
 289.000976562 400.333007812 281.66796875 423.166015625 267.000976562 439.499023438 c 0
 252.333984375 455.83203125 232.666992188 463.999023438 208 463.999023438 c 0
 184 463.999023438 164.666992188 455.83203125 150 439.499023438 c 0
 135.333007812 423.166015625 128 400.333007812 128 371 c 2
 128 0 l 1
 59 0 l 1
 59 517 l 1
EndSplineSet
EndChar

StartChar: n
Encoding: 110 110 80
Width: 416
GlyphClass: 2
Flags: W
LayerCount: 2
Fore
SplineSet
59 517 m 1
 125.000976562 516.999023438 l 1
 125.000976562 469.999023438 l 1
 135.000976562 486.666015625 149.000976562 499.999023438 167.000976562 509.999023438 c 0
 185.000976562 519.999023438 205.000976562 524.999023438 227.000976562 524.999023438 c 0
 268.333984375 524.999023438 300.333984375 511.666015625 323.000976562 484.999023438 c 0
 345.66796875 458.33203125 357.000976562 421.33203125 357.000976562 373.999023438 c 2
 357.000976562 -0.0009765625 l 1
 289.000976562 -0.0009765625 l 1
 289.000976562 370.999023438 l 2
 289.000976562 400.999023438 281.66796875 423.999023438 267.000976562 439.999023438 c 0
 252.333984375 455.999023438 232.666992188 463.999023438 208 463.999023438 c 0
 184 463.999023438 164.5 455.83203125 149.5 439.499023438 c 0
 134.5 423.166015625 127 400.333007812 127 371 c 2
 127 0 l 1
 59 0 l 1
 59 517 l 1
EndSplineSet
EndChar

StartChar: o
Encoding: 111 111 81
Width: 409
GlyphClass: 2
Flags: W
LayerCount: 2
Fore
SplineSet
91 34.5 m 0
 63.6669921875 62.8330078125 50 107.333007812 50 168 c 2
 50 349 l 2
 50 409.666992188 63.6669921875 454.166992188 91 482.5 c 0
 118.333007812 510.833007812 156.666015625 525 205.999023438 525 c 0
 253.999023438 525 291.499023438 510.666992188 318.499023438 482 c 0
 345.499023438 453.333007812 358.999023438 409 358.999023438 349 c 2
 358.999023438 168 l 2
 358.999023438 108 345.499023438 63.6669921875 318.499023438 35 c 0
 291.499023438 6.3330078125 253.999023438 -8 205.999023438 -8 c 0
 156.666015625 -8 118.333007812 6.1669921875 91 34.5 c 0
269 81.5 m 0
 283.666992188 100.5 291 132.000976562 291 176.000976562 c 2
 291 341.000976562 l 2
 291 385.000976562 283.666992188 416.500976562 269 435.500976562 c 0
 254.333007812 454.500976562 233 464.000976562 205 464.000976562 c 0
 177 464.000976562 155.5 454.66796875 140.5 436.000976562 c 0
 125.5 417.333984375 118 385.666992188 118 341.000976562 c 2
 118 176.000976562 l 2
 118 131.333984375 125.5 99.6669921875 140.5 81 c 0
 155.5 62.3330078125 177 53 205 53 c 0
 233 53 254.333007812 62.5 269 81.5 c 0
EndSplineSet
EndChar

StartChar: p
Encoding: 112 112 82
Width: 412
GlyphClass: 2
Flags: W
LayerCount: 2
Fore
SplineSet
59 517 m 1
 126.999023438 517 l 1
 126.999023438 467 l 1
 149.666015625 505.666992188 182.333007812 525 225 525 c 0
 266.333007812 525 299.5 510.5 324.5 481.5 c 0
 349.5 452.5 362 408.333007812 362 349 c 2
 362 168 l 2
 362 108.666992188 349.5 64.5 324.5 35.5 c 0
 299.5 6.5 266.666992188 -8 226 -8 c 0
 182.666992188 -8 149.666992188 10 127 46 c 1
 127 -152 l 1
 59 -152 l 1
 59 517 l 1
273.499023438 81.5 m 0
 287.166015625 100.5 293.998046875 132 293.998046875 176 c 2
 293.998046875 341 l 2
 293.998046875 423 266.998046875 464 212.998046875 464 c 0
 184.998046875 464 163.665039062 453.5 148.998046875 432.5 c 0
 134.331054688 411.5 126.998046875 380.666992188 126.998046875 340 c 2
 126.998046875 175 l 2
 126.998046875 135 134.331054688 104.666992188 148.998046875 84 c 0
 163.665039062 63.3330078125 184.998046875 53 212.998046875 53 c 0
 239.665039062 53 259.83203125 62.5 273.499023438 81.5 c 0
EndSplineSet
EndChar

StartChar: q
Encoding: 113 113 83
Width: 412
GlyphClass: 2
Flags: W
LayerCount: 2
Fore
SplineSet
285 46 m 1
 262.333007812 10 229.33203125 -8 185.999023438 -8 c 0
 145.33203125 -8 112.499023438 6.5 87.4990234375 35.5 c 0
 62.4990234375 64.5 49.9990234375 108.666992188 49.9990234375 168 c 2
 49.9990234375 349 l 2
 49.9990234375 408.333007812 62.4990234375 452.5 87.4990234375 481.5 c 0
 112.499023438 510.5 145.666015625 525 186.999023438 525 c 0
 229.666015625 525 262.333007812 505.666992188 285 467 c 1
 285 517 l 1
 353 517 l 1
 353 -152 l 1
 285 -152 l 1
 285 46 l 1
262.999023438 84 m 0
 277.666015625 104.666992188 284.998046875 135 284.998046875 175 c 2
 284.998046875 340 l 2
 284.998046875 422.666992188 256.331054688 464 198.998046875 464 c 0
 144.998046875 464 117.998046875 423 117.998046875 341 c 2
 117.998046875 176 l 2
 117.998046875 132 124.831054688 100.5 138.498046875 81.5 c 0
 152.165039062 62.5 172.33203125 53 198.999023438 53 c 0
 226.999023438 53 248.33203125 63.3330078125 262.999023438 84 c 0
EndSplineSet
EndChar

StartChar: r
Encoding: 114 114 84
Width: 290
GlyphClass: 2
Flags: W
LayerCount: 2
Fore
SplineSet
59 517 m 1
 125 517 l 1
 125 466 l 1
 136.333007812 486 151.333007812 500.833007812 170 510.5 c 0
 188.666992188 520.166992188 209.666992188 525 233 525 c 0
 247 525 259.333007812 523.666992188 270 521 c 1
 270 455 l 1
 252 461 235.333007812 464 220 464 c 0
 192.666015625 464 170.333007812 455.333007812 153 438 c 0
 135.666992188 420.666992188 127 397 127 367 c 2
 127 0 l 1
 59 0 l 1
 59 517 l 1
EndSplineSet
EndChar

StartChar: s
Encoding: 115 115 85
Width: 382
GlyphClass: 2
Flags: W
LayerCount: 2
Fore
SplineSet
80.5 31.5 m 0
 53.5 57.8330078125 40.0029296875 93.6669921875 40.0029296875 139 c 2
 40.0029296875 145 l 1
 103.002929688 145 l 1
 103.002929688 139 l 2
 103.002929688 111 111.002929688 89.5 127.002929688 74.5 c 0
 143.002929688 59.5 165.002929688 52 193.002929688 52 c 0
 219.002929688 52 239.8359375 58.8330078125 255.502929688 72.5 c 0
 271.169921875 86.1669921875 279.002929688 107 279.002929688 135 c 0
 279.002929688 157 273.669921875 174.333007812 263.002929688 187 c 0
 252.3359375 199.666992188 234.3359375 211.333984375 209.002929688 222 c 2
 144.002929688 249 l 2
 78.0029296875 276.333007812 45.0029296875 321.333007812 45.0029296875 384 c 0
 45.0029296875 426.666992188 58.5029296875 460.833984375 85.5029296875 486.500976562 c 0
 112.502929688 512.16796875 148.669921875 525.000976562 194.002929688 525.000976562 c 0
 239.3359375 525.000976562 275.168945312 512.000976562 301.501953125 486.000976562 c 0
 327.834960938 460.000976562 341.001953125 425.000976562 341.001953125 381.000976562 c 2
 341.001953125 368.000976562 l 1
 278.001953125 368.000976562 l 1
 278.001953125 374.000976562 l 2
 278.001953125 403.333984375 270.668945312 426.000976562 256.001953125 442.000976562 c 0
 241.334960938 458.000976562 220.334960938 466.000976562 193.001953125 466.000976562 c 0
 168.334960938 466.000976562 148.834960938 459.16796875 134.501953125 445.500976562 c 0
 120.168945312 431.833984375 113.001953125 413.000976562 113.001953125 389.000976562 c 0
 113.001953125 371.000976562 117.668945312 355.333984375 127.001953125 342.000976562 c 0
 136.334960938 328.66796875 152.66796875 317.000976562 176.000976562 307.000976562 c 2
 241.000976562 280.000976562 l 2
 276.333984375 265.333984375 302.833984375 247.666992188 320.500976562 227 c 0
 338.16796875 206.333007812 347.000976562 177.333007812 347.000976562 140 c 0
 347.000976562 93.3330078125 333.16796875 57 305.500976562 31 c 0
 277.833984375 5 239.666992188 -8 191 -8 c 0
 144.333007812 -8 107.5 5.1669921875 80.5 31.5 c 0
EndSplineSet
EndChar

StartChar: t
Encoding: 116 116 86
Width: 295
GlyphClass: 2
Flags: W
LayerCount: 2
Fore
SplineSet
161 464 m 1
 161 139 l 2
 161 112.333007812 167.333007812 92.5 180 79.5 c 0
 192.666992188 66.5 212 60 238 60 c 2
 252 60 l 1
 252 0 l 1
 235 0 l 2
 140.333007812 0 93 45.3330078125 93 136 c 2
 93 464 l 1
 27 464 l 1
 27 517 l 1
 93 517 l 1
 93 625 l 1
 161 656 l 1
 161 517 l 1
 260 517 l 1
 260 464 l 1
 161 464 l 1
EndSplineSet
EndChar

StartChar: u
Encoding: 117 117 87
Width: 416
GlyphClass: 2
Flags: W
LayerCount: 2
Fore
SplineSet
95.5 33.5 m 0
 71.1669921875 61.1669921875 59.0009765625 103 59.0009765625 159 c 2
 59.0009765625 517 l 1
 127.000976562 517 l 1
 127.000976562 205 l 2
 127.000976562 150.333007812 132.500976562 111.333007812 143.500976562 88 c 0
 154.500976562 64.6669921875 176.333984375 53 209.000976562 53 c 0
 231.000976562 53 247.66796875 58 259.000976562 68 c 0
 270.334960938 78 278.16796875 93.6669921875 282.5 115 c 0
 286.833007812 136.333007812 289 166.333007812 289 205 c 2
 289 517 l 1
 357 517 l 1
 357 159 l 2
 357 103 344.833007812 61.1669921875 320.5 33.5 c 0
 296.166992188 5.8330078125 258.666992188 -8 208 -8 c 0
 157.333007812 -8 119.833007812 5.8330078125 95.5 33.5 c 0
EndSplineSet
EndChar

StartChar: v
Encoding: 118 118 88
Width: 371
GlyphClass: 2
Flags: W
LayerCount: 2
Fore
SplineSet
15 517 m 1
 89 517 l 1
 186 108 l 1
 282 517 l 1
 356 517 l 1
 219 0 l 1
 151 0 l 1
 15 517 l 1
EndSplineSet
EndChar

StartChar: w
Encoding: 119 119 89
Width: 577
GlyphClass: 2
Flags: W
LayerCount: 2
Fore
SplineSet
15 517 m 1
 89 517 l 1
 167 110 l 1
 258 517 l 1
 316 517 l 1
 409 110 l 1
 487 517 l 1
 562 517 l 1
 443 0 l 1
 378 0 l 1
 287 391 l 1
 198 0 l 1
 132 0 l 1
 15 517 l 1
EndSplineSet
EndChar

StartChar: x
Encoding: 120 120 90
Width: 349
GlyphClass: 2
Flags: W
LayerCount: 2
Fore
SplineSet
261 0 m 1
 173 192 l 1
 87 0 l 1
 15 0 l 1
 138 269 l 1
 24 517 l 1
 97 517 l 1
 176 346 l 1
 251 517 l 1
 324 517 l 1
 209 273 l 1
 334 0 l 1
 261 0 l 1
EndSplineSet
EndChar

StartChar: y
Encoding: 121 121 91
Width: 371
GlyphClass: 2
Flags: W
LayerCount: 2
Fore
SplineSet
356 517 m 1
 205 -48.9990234375 l 2
 195 -87.666015625 178 -114.833007812 154 -130.5 c 0
 130 -146.166992188 97 -154 55 -154 c 2
 45 -154 l 1
 45 -93 l 1
 62 -93 l 2
 88 -93 108 -88 122 -78 c 0
 136 -68 145.666992188 -51.3330078125 151 -28 c 2
 155 -12 l 1
 15 517 l 1
 89 517 l 1
 187 122 l 1
 282 517 l 1
 356 517 l 1
EndSplineSet
EndChar

StartChar: z
Encoding: 122 122 92
Width: 376
GlyphClass: 2
Flags: W
LayerCount: 2
Fore
SplineSet
326 455 m 1
 123 62 l 1
 326 62 l 1
 326 0 l 1
 50 0 l 1
 50 62 l 1
 253 455 l 1
 50 455 l 1
 50 517 l 1
 326 517 l 1
 326 455 l 1
EndSplineSet
EndChar

StartChar: braceleft
Encoding: 123 123 93
Width: 307
GlyphClass: 2
Flags: W
LayerCount: 2
Fore
SplineSet
141 -56 m 0
 124.333007812 -37.3330078125 116 -9.00390625 116 28.99609375 c 2
 116 222.99609375 l 2
 116 249.663085938 111.166992188 268.830078125 101.5 280.497070312 c 0
 91.8330078125 292.1640625 74.666015625 298.331054688 49.9990234375 298.998046875 c 1
 49.9990234375 361.998046875 l 1
 74.666015625 362.665039062 91.8330078125 368.83203125 101.5 380.499023438 c 0
 111.166992188 392.166015625 116 411.999023438 116 439.999023438 c 2
 116 626.999023438 l 2
 116 664.999023438 124.333007812 693.33203125 141 711.999023438 c 0
 157.666992188 730.666015625 183.333984375 739.999023438 218.000976562 739.999023438 c 2
 257.000976562 739.999023438 l 1
 257.000976562 674.999023438 l 1
 232.000976562 674.999023438 l 2
 202.66796875 674.999023438 188.000976562 658.666015625 188.000976562 625.999023438 c 2
 188.000976562 455.999023438 l 2
 188.000976562 416.666015625 184.16796875 388.166015625 176.500976562 370.499023438 c 0
 168.833984375 352.83203125 153.666992188 339.665039062 131 330.999023438 c 1
 153.666992188 320.999023438 168.833984375 307.33203125 176.500976562 289.999023438 c 0
 184.16796875 272.666015625 188.000976562 244.333007812 188.000976562 205 c 2
 188.000976562 30 l 2
 188.000976562 -2.6669921875 202.66796875 -19 232.000976562 -19 c 2
 257.000976562 -19 l 1
 257.000976562 -84 l 1
 218.000976562 -84 l 2
 183.333984375 -84 157.666992188 -74.6669921875 141 -56 c 0
EndSplineSet
Substitution2: "'rtla' Right to Left Alternates lookup 0 subtable" braceright
EndChar

StartChar: bar
Encoding: 124 124 94
Width: 266
GlyphClass: 2
Flags: W
LayerCount: 2
Fore
SplineSet
100 740 m 1
 166 740 l 1
 166 -83 l 1
 100 -83 l 1
 100 740 l 1
EndSplineSet
EndChar

StartChar: braceright
Encoding: 125 125 95
Width: 307
GlyphClass: 2
Flags: W
LayerCount: 2
Fore
SplineSet
50 -19 m 1
 74 -18.998046875 l 2
 103.333007812 -18.998046875 118 -2.6650390625 118 30.001953125 c 2
 118 205.001953125 l 2
 118 244.334960938 121.833007812 272.66796875 129.5 290.000976562 c 0
 137.166992188 307.333984375 152.666992188 321.000976562 176 331.000976562 c 1
 152.666992188 339.66796875 137.166992188 352.834960938 129.5 370.501953125 c 0
 121.833007812 388.168945312 118 416.668945312 118 456.001953125 c 2
 118 626.001953125 l 2
 118 658.668945312 103.333007812 675.001953125 74 675.001953125 c 2
 50 675.001953125 l 1
 50 740.001953125 l 1
 89 740.001953125 l 2
 123.666992188 740.001953125 149.333984375 730.668945312 166.000976562 712.001953125 c 0
 182.66796875 693.334960938 191.000976562 665.001953125 191.000976562 627.001953125 c 2
 191.000976562 440.001953125 l 2
 191.000976562 412.001953125 195.833984375 392.168945312 205.500976562 380.501953125 c 0
 215.16796875 368.83203125 232.334960938 362.665039062 257.001953125 362.000976562 c 1
 257.001953125 299.000976562 l 1
 232.334960938 298.333984375 215.16796875 292.166992188 205.500976562 280.500976562 c 0
 195.833984375 268.833984375 191.000976562 249.666992188 191.000976562 223 c 2
 191.000976562 29 l 2
 191.000976562 -9 182.66796875 -37.3330078125 166.000976562 -56 c 0
 149.333984375 -74.6669921875 123.666992188 -84 89 -84 c 2
 50 -84 l 1
 50 -19 l 1
EndSplineSet
Substitution2: "'rtla' Right to Left Alternates lookup 0 subtable" braceleft
EndChar

StartChar: asciitilde
Encoding: 126 126 96
Width: 420
GlyphClass: 2
Flags: W
LayerCount: 2
Fore
SplineSet
238.5 223.5 m 0
 226.833007812 228.5 213.666992188 235.665039062 199 244.998046875 c 0
 177 259.665039062 159.666992188 266.998046875 147 266.998046875 c 0
 135 266.998046875 124.5 263.331054688 115.5 255.998046875 c 0
 106.5 248.6640625 96 234.331054688 84 212.998046875 c 1
 30 245.998046875 l 1
 44.6669921875 276.665039062 61.333984375 299.33203125 80.0009765625 313.999023438 c 0
 98.66796875 328.666015625 119.66796875 335.999023438 143.000976562 335.999023438 c 0
 157.000976562 335.999023438 169.66796875 333.499023438 181.000976562 328.499023438 c 0
 192.333984375 323.499023438 205.666992188 315.999023438 221 305.999023438 c 0
 233.666992188 297.999023438 243.666992188 292.33203125 251 288.999023438 c 0
 258.334960938 285.666015625 265.66796875 283.999023438 272.999023438 283.999023438 c 0
 285.666015625 283.999023438 296.333007812 287.666015625 305 294.999023438 c 0
 313.666992188 302.33203125 324 316.999023438 336 338.999023438 c 1
 390 305.999023438 l 1
 375.333007812 274.666015625 358.833007812 251.833007812 340.5 237.5 c 0
 322.166992188 223.166992188 301 216 277 216 c 0
 263 216 250.166992188 218.5 238.5 223.5 c 0
EndSplineSet
EndChar

StartChar: exclamdown
Encoding: 161 161 98
Width: 204
GlyphClass: 2
Flags: W
LayerCount: 2
Fore
SplineSet
67 517 m 1
 145 517 l 1
 145 420 l 1
 67 420 l 1
 67 517 l 1
78 325 m 1
 135 325 l 1
 153 -152 l 1
 61 -152 l 1
 78 325 l 1
EndSplineSet
EndChar

StartChar: cent
Encoding: 162 162 99
Width: 409
GlyphClass: 2
Flags: W
LayerCount: 2
Fore
SplineSet
291 346 m 1
 291 359.998046875 l 2
 291 417.33203125 272.333007812 450.665039062 235 459.998046875 c 1
 235 56.998046875 l 1
 272.333007812 67.6650390625 291 100.998046875 291 156.998046875 c 2
 291 170.998046875 l 1
 359 170.998046875 l 1
 359 157.998046875 l 2
 359 108.665039062 348.166992188 70.33203125 326.5 42.9990234375 c 0
 304.833007812 15.666015625 274.333007812 -0.6669921875 235 -6 c 1
 235 -100 l 1
 182 -100 l 1
 182 -7 l 1
 94 3 50 61.3330078125 50 168 c 2
 50 349 l 2
 50 404.333007812 61.5 446.333007812 84.5 475 c 0
 107.5 503.666992188 140 520 182 524 c 1
 182 612 l 1
 235 612 l 1
 235 523 l 1
 274.333007812 517.665039062 304.833007812 501.498046875 326.5 474.5 c 0
 348.166992188 447.5 359 409.333007812 359 360 c 2
 359 346 l 1
 291 346 l 1
134.5 90.998046875 m 0
 145.5 71.6650390625 161.333007812 59.6630859375 182 54.99609375 c 1
 182 461.99609375 l 1
 161.333007812 457.329101562 145.5 445.329101562 134.5 425.99609375 c 0
 123.5 406.663085938 118 378.330078125 118 340.997070312 c 2
 118 175.997070312 l 2
 118 138.6640625 123.5 110.331054688 134.5 90.998046875 c 0
EndSplineSet
EndChar

StartChar: sterling
Encoding: 163 163 100
Width: 383
GlyphClass: 2
Flags: W
LayerCount: 2
Fore
SplineSet
357 66 m 1
 357.000976562 0.0009765625 l 1
 43.0009765625 0.0009765625 l 1
 43.0009765625 68.0009765625 l 1
 59.66796875 76.0009765625 71.16796875 87.66796875 77.5009765625 103.000976562 c 0
 83.833984375 118.333984375 87.0009765625 138.666992188 87.0009765625 164 c 2
 87.0009765625 303 l 1
 26.0009765625 303 l 1
 26.0009765625 368 l 1
 87.0009765625 368 l 1
 87.0009765625 543 l 2
 87.0009765625 592.333007812 98.16796875 630.833007812 120.500976562 658.5 c 0
 142.833984375 686.166992188 175.666992188 700 219 700 c 0
 261.666992188 700 294 686.5 316 659.5 c 0
 338 632.5 349 594.333007812 349 545 c 1
 279 545 l 1
 279 577 274.166992188 600 264.5 614 c 0
 254.833007812 628 240.333007812 635 221 635 c 0
 181 635 161 609.666992188 161 559 c 2
 161 368 l 1
 278 368 l 1
 278 303 l 1
 161 303 l 1
 161 163 l 2
 161 141 158 122.166992188 152 106.5 c 0
 146 90.8330078125 136.333007812 77.3330078125 123 66 c 1
 357 66 l 1
EndSplineSet
EndChar

StartChar: currency
Encoding: 164 164 101
Width: 584
GlyphClass: 2
Flags: W
LayerCount: 2
Fore
SplineSet
407 162 m 1
 371.666992188 138.666992188 333.333007812 127 292 127 c 0
 250 127 211.666992188 138.666992188 177 162 c 1
 109 95 l 1
 59 146 l 1
 127 213 l 1
 104.333007812 245.666992188 93 283.666992188 93 327 c 0
 93 371 104.666992188 408.666992188 128 440 c 1
 60 509 l 1
 110 559 l 1
 177 491 l 1
 211 514.333007812 249.333007812 526 292 526 c 0
 334 526 372 514.333007812 406 491 c 1
 474 559 l 1
 524 509 l 1
 456 441 l 1
 479.333007812 407 491 369 491 327 c 0
 491 283.666992188 479.666992188 245.666992188 457 213 c 1
 525 145 l 1
 475 94 l 1
 407 162 l 1
383.499023438 233.5 m 0
 407.83203125 258.5 419.999023438 289.666992188 419.999023438 327 c 0
 419.999023438 364.333007812 407.83203125 395.333007812 383.499023438 420 c 0
 359.166015625 444.666992188 328.666015625 457 291.999023438 457 c 0
 254.666015625 457 223.999023438 444.666992188 199.999023438 420 c 0
 175.999023438 395.333007812 163.999023438 364.333007812 163.999023438 327 c 0
 163.999023438 289 175.999023438 257.666992188 199.999023438 233 c 0
 223.999023438 208.333007812 254.666015625 196 291.999023438 196 c 0
 328.666015625 196 359.166015625 208.5 383.499023438 233.5 c 0
EndSplineSet
EndChar

StartChar: yen
Encoding: 165 165 102
Width: 389
GlyphClass: 2
Flags: W
LayerCount: 2
Fore
SplineSet
158 147 m 1
 37 147 l 1
 37 206 l 1
 158 206 l 1
 158 273 l 1
 37 273 l 1
 37 333 l 1
 143 333 l 1
 8 690 l 1
 91 690 l 1
 196 375 l 1
 300 690 l 1
 381 690 l 1
 246 333 l 1
 352 333 l 1
 352 273 l 1
 231 273 l 1
 231 206 l 1
 352 206 l 1
 352 147 l 1
 231 147 l 1
 231 0 l 1
 158 0 l 1
 158 147 l 1
EndSplineSet
EndChar

StartChar: brokenbar
Encoding: 166 166 103
Width: 266
GlyphClass: 2
Flags: W
LayerCount: 2
Fore
SplineSet
100 740 m 1
 166 740 l 1
 166 388 l 1
 100 388 l 1
 100 740 l 1
100 271 m 1
 166 271 l 1
 166 -83 l 1
 100 -83 l 1
 100 271 l 1
EndSplineSet
EndChar

StartChar: section
Encoding: 167 167 104
Width: 428
GlyphClass: 2
Flags: W
LayerCount: 2
Fore
SplineSet
105 -128 m 0
 83.6669921875 -101.333007812 72.9990234375 -60.6669921875 72.9990234375 -6 c 1
 141.999023438 -6 l 1
 141.999023438 -40.6669921875 147.166015625 -65.6669921875 157.499023438 -81 c 0
 167.83203125 -96.3330078125 186.33203125 -104 212.999023438 -104 c 0
 237.666015625 -104 255.499023438 -96.8330078125 266.499023438 -82.5 c 0
 277.499023438 -68.1669921875 282.999023438 -47.333984375 282.999023438 -20.0009765625 c 0
 282.999023438 3.33203125 279.999023438 21.83203125 273.999023438 35.4990234375 c 0
 267.999023438 49.166015625 257.499023438 60.4990234375 242.499023438 69.4990234375 c 0
 227.499023438 78.4990234375 205.666015625 86.9990234375 176.999023438 94.9990234375 c 0
 134.33203125 106.999023438 104.165039062 127.499023438 86.498046875 156.499023438 c 0
 68.8310546875 185.499023438 59.998046875 224.999023438 59.998046875 274.999023438 c 0
 59.998046875 359.666015625 89.3310546875 412.333007812 147.998046875 433 c 1
 121.998046875 443.666992188 103.665039062 460.166992188 92.998046875 482.5 c 0
 82.3310546875 504.833007812 76.998046875 533 76.998046875 567 c 0
 76.998046875 613.666992188 88.6650390625 650 111.998046875 676 c 0
 135.331054688 702 169.998046875 715 215.998046875 715 c 0
 264.665039062 715 299.498046875 701.166992188 320.498046875 673.5 c 0
 341.498046875 645.833007812 351.998046875 606 351.998046875 554 c 1
 282.998046875 554 l 1
 282.998046875 586.668945312 278.331054688 610.8359375 268.998046875 626.5 c 0
 259.665039062 642.166992188 242.33203125 650 216.999023438 650 c 0
 192.33203125 650 174.999023438 643 164.999023438 629 c 0
 154.999023438 615 149.999023438 594.333007812 149.999023438 567 c 0
 149.999023438 535 157.33203125 511.5 171.999023438 496.5 c 0
 186.666015625 481.5 213.666015625 468.333007812 252.999023438 457 c 0
 295.666015625 445.666992188 325.499023438 425.5 342.499023438 396.5 c 0
 359.499023438 367.5 367.999023438 327 367.999023438 275 c 0
 367.999023438 191 339.33203125 139.333007812 281.999023438 120 c 1
 309.33203125 108.666992188 328.499023438 91.5 339.499023438 68.5 c 0
 350.499023438 45.5 355.999023438 16.6669921875 355.999023438 -18 c 0
 355.999023438 -66 343.83203125 -103 319.499023438 -129 c 0
 295.166015625 -155 259.333007812 -168 212 -168 c 0
 162 -168 126.333007812 -154.666992188 105 -128 c 0
276.999023438 188.499023438 m 0
 289.666015625 208.166015625 295.997070312 236.999023438 295.997070312 274.999023438 c 0
 295.997070312 314.33203125 289.830078125 343.83203125 277.497070312 363.499023438 c 0
 265.1640625 383.166015625 244.331054688 392.999023438 214.998046875 392.999023438 c 0
 184.998046875 392.999023438 163.665039062 382.999023438 150.998046875 362.999023438 c 0
 138.331054688 342.999023438 131.998046875 313.666015625 131.998046875 274.999023438 c 0
 131.998046875 236.999023438 138.331054688 208.166015625 150.998046875 188.499023438 c 0
 163.665039062 168.83203125 184.998046875 158.999023438 214.998046875 158.999023438 c 0
 243.665039062 158.999023438 264.33203125 168.83203125 276.999023438 188.499023438 c 0
90.9970703125 689.999023438 m 1024
EndSplineSet
EndChar

StartChar: dieresis
Encoding: 168 168 105
Width: 501
GlyphClass: 2
Flags: W
LayerCount: 2
Fore
SplineSet
137 665 m 1
 212 665 l 1
 212 579 l 1
 137 579 l 1
 137 665 l 1
289 665 m 1
 364 665 l 1
 364 579 l 1
 289 579 l 1
 289 665 l 1
EndSplineSet
EndChar

StartChar: copyright
Encoding: 169 169 106
Width: 746
GlyphClass: 2
Flags: W
LayerCount: 2
Fore
SplineSet
200.5 33 m 0
 152.166992188 61.6669921875 115.333007812 102.333007812 90 155 c 0
 64.6669921875 207.666992188 52 269.333984375 52 340.000976562 c 0
 52 411.333984375 64.8330078125 473.333984375 90.5 526.000976562 c 0
 116.166992188 578.66796875 153.166992188 619.16796875 201.5 647.500976562 c 0
 249.833007812 675.833984375 307 690.000976562 373 690.000976562 c 0
 440.333007812 690.000976562 498 675.66796875 546 647.000976562 c 0
 594 618.333984375 630.666992188 577.666992188 656 525 c 0
 681.333007812 472.333007812 694 410.666015625 694 340 c 0
 694 268.666992188 681.333007812 206.666992188 656 154 c 0
 630.665039062 101.333007812 593.83203125 60.8330078125 545.5 32.5 c 0
 497.166992188 4.1669921875 439.666992188 -10 373 -10 c 0
 306.333007812 -10 248.833007812 4.3330078125 200.5 33 c 0
570.999023438 118.499023438 m 0
 616.999023438 171.499023438 639.999023438 245.33203125 639.999023438 339.999023438 c 0
 639.999023438 435.33203125 616.999023438 509.33203125 570.999023438 561.999023438 c 0
 524.999023438 614.666015625 458.999023438 640.999023438 372.999023438 640.999023438 c 0
 286.999023438 640.999023438 221.166015625 614.499023438 175.499023438 561.499023438 c 0
 129.83203125 508.499023438 106.999023438 434.666015625 106.999023438 339.999023438 c 0
 106.999023438 244.666015625 129.999023438 170.666015625 175.999023438 117.999023438 c 0
 221.999023438 65.33203125 287.666015625 38.9990234375 372.999023438 38.9990234375 c 0
 458.999023438 38.9990234375 524.999023438 65.4990234375 570.999023438 118.499023438 c 0
257.999023438 276.999023438 m 2
 257.999023438 406.999023438 l 2
 257.999023438 494.33203125 296.999023438 537.999023438 374.999023438 537.999023438 c 0
 411.666015625 537.999023438 439.999023438 527.83203125 459.999023438 507.499023438 c 0
 479.999023438 487.166015625 489.999023438 456.333007812 489.999023438 415 c 2
 489.999023438 404 l 1
 436.999023438 404 l 1
 436.999023438 414 l 2
 436.999023438 465.333007812 416.666015625 491 375.999023438 491 c 0
 354.666015625 491 338.499023438 484.166992188 327.499023438 470.5 c 0
 316.499023438 456.833007812 310.999023438 433.666015625 310.999023438 400.999023438 c 2
 310.999023438 282.999023438 l 2
 310.999023438 250.33203125 316.499023438 226.999023438 327.499023438 212.999023438 c 0
 338.499023438 198.999023438 354.666015625 191.999023438 375.999023438 191.999023438 c 0
 416.666015625 191.999023438 436.999023438 217.666015625 436.999023438 268.999023438 c 2
 436.999023438 279.999023438 l 1
 489.999023438 279.999023438 l 1
 489.999023438 268.999023438 l 2
 489.999023438 227.666015625 479.83203125 196.666015625 459.499023438 175.999023438 c 0
 439.166015625 155.33203125 410.999023438 144.999023438 374.999023438 144.999023438 c 0
 296.999023438 144.999023438 257.999023438 188.999023438 257.999023438 276.999023438 c 2
EndSplineSet
EndChar

StartChar: ordfeminine
Encoding: 170 170 107
Width: 294
GlyphClass: 2
Flags: W
LayerCount: 2
Fore
SplineSet
220 721 m 0
 238 703 247 677.999023438 247 645.999023438 c 2
 247 429.999023438 l 1
 185 429.999023438 l 1
 185 457.999023438 l 1
 176.333007812 446.666015625 167.333007812 438.333007812 158 433 c 0
 148.666992188 427.666992188 136.666992188 425 122 425 c 0
 94 425 72.6669921875 433.5 58 450.5 c 0
 43.3330078125 467.5 36 491.333007812 36 522 c 0
 36 550.666992188 45.1669921875 573 63.5 589 c 0
 81.8330078125 605 107.333007812 613 140 613 c 2
 182 613 l 1
 182 651 l 2
 182 678.333007812 169 692 143 692 c 0
 131 692 121.666992188 688.833007812 115 682.5 c 0
 108.333007812 676.166015625 105 667.333007812 105 656 c 2
 105 651 l 1
 45 651 l 1
 45 654 l 2
 45 684 54 707.166992188 72 723.5 c 0
 90 739.833007812 114 748 144 748 c 0
 176.666992188 748 202 739 220 721 c 0
170.5 494.499023438 m 0
 178.166992188 502.833984375 182 514.333984375 182 528.999023438 c 2
 182 566.999023438 l 1
 149 566.999023438 l 2
 133 566.999023438 121 563.666015625 113 556.999023438 c 0
 105 550.33203125 101 539.33203125 101 523.999023438 c 0
 101 495.999023438 113.666992188 481.999023438 139 481.999023438 c 0
 152.333007812 481.999023438 162.833007812 486.166015625 170.5 494.499023438 c 0
137 846.999023438 m 1024
EndSplineSet
EndChar

StartChar: guillemotleft
Encoding: 171 171 108
Width: 422
GlyphClass: 2
Flags: W
LayerCount: 2
Fore
SplineSet
20 264 m 1
 199 447 l 1
 199 371 l 1
 95 264 l 1
 199 157 l 1
 199 81 l 1
 20 264 l 1
185 264 m 1
 363 447 l 1
 363 371 l 1
 260 264 l 1
 363 157 l 1
 363 81 l 1
 185 264 l 1
EndSplineSet
EndChar

StartChar: logicalnot
Encoding: 172 172 109
Width: 420
GlyphClass: 2
Flags: W
LayerCount: 2
Fore
SplineSet
311 264 m 1
 42 264 l 1
 42 325 l 1
 379 325 l 1
 379 155 l 1
 311 155 l 1
 311 264 l 1
EndSplineSet
EndChar

StartChar: uni00AD
Encoding: 173 173 110
Width: 375
GlyphClass: 2
Flags: W
LayerCount: 2
Fore
SplineSet
50 380 m 1
 325 380 l 1
 325 315 l 1
 50 315 l 1
 50 380 l 1
EndSplineSet
EndChar

StartChar: registered
Encoding: 174 174 111
Width: 472
GlyphClass: 2
Flags: W
LayerCount: 2
Fore
SplineSet
107.5 359 m 0
 75.8330078125 393.666992188 60 440.333007812 60 499 c 0
 60 557 76 603.166992188 108 637.5 c 0
 140 671.833007812 182.666992188 689 236 689 c 0
 290.666992188 689 333.666992188 671.833007812 365 637.5 c 0
 396.333007812 603.166992188 412 557 412 499 c 0
 412 440.333007812 396.166992188 393.666015625 364.5 359 c 0
 332.833007812 324.333007812 290 307 236 307 c 0
 182 307 139.166992188 324.333007812 107.5 359 c 0
340 381.999023438 m 0
 364.666992188 410.666015625 376.999023438 449.666015625 376.999023438 498.999023438 c 0
 376.999023438 548.33203125 364.499023438 586.999023438 339.499023438 614.999023438 c 0
 314.499023438 642.999023438 279.999023438 656.999023438 235.999023438 656.999023438 c 0
 191.33203125 656.999023438 156.665039062 642.83203125 131.998046875 614.499023438 c 0
 107.331054688 586.166015625 94.998046875 547.666015625 94.998046875 498.999023438 c 0
 94.998046875 448.33203125 107.331054688 408.999023438 131.998046875 380.999023438 c 0
 156.665039062 352.999023438 191.33203125 338.999023438 235.999023438 338.999023438 c 0
 280.666015625 338.999023438 315.333007812 353.33203125 340 381.999023438 c 0
178.999023438 605.999023438 m 1
 240.999023438 605.999023438 l 2
 282.33203125 605.999023438 302.999023438 585.33203125 302.999023438 543.999023438 c 0
 302.999023438 517.999023438 293.33203125 499.666015625 273.999023438 488.999023438 c 1
 308.999023438 393.999023438 l 1
 269.999023438 393.999023438 l 1
 238.999023438 480.999023438 l 1
 214.999023438 480.999023438 l 1
 214.999023438 393.999023438 l 1
 178.999023438 393.999023438 l 1
 178.999023438 605.999023438 l 1
237.999023438 513.999023438 m 2
 248.666015625 513.999023438 256.166015625 516.33203125 260.499023438 520.999023438 c 0
 264.83203125 525.666015625 266.999023438 533.666015625 266.999023438 544.999023438 c 0
 266.999023438 555.666015625 264.83203125 563.166015625 260.499023438 567.499023438 c 0
 256.166015625 571.83203125 248.666015625 573.999023438 237.999023438 573.999023438 c 2
 214.999023438 573.999023438 l 1
 214.999023438 513.999023438 l 1
 237.999023438 513.999023438 l 2
EndSplineSet
EndChar

StartChar: macron
Encoding: 175 175 112
Width: 501
GlyphClass: 2
Flags: W
LayerCount: 2
Fore
SplineSet
135 652 m 1
 366 652 l 1
 366 591 l 1
 135 591 l 1
 135 652 l 1
EndSplineSet
EndChar

StartChar: degree
Encoding: 176 176 113
Width: 352
GlyphClass: 2
Flags: W
LayerCount: 2
Fore
SplineSet
87.5 488 m 0
 63.8330078125 511.333007812 52 540.666015625 52 575.999023438 c 0
 52 611.33203125 63.8330078125 640.83203125 87.5 664.499023438 c 0
 111.166992188 688.166015625 140.666992188 699.999023438 176 699.999023438 c 0
 211.333007812 699.999023438 240.833007812 688.166015625 264.5 664.499023438 c 0
 288.166992188 640.83203125 300 611.33203125 300 575.999023438 c 0
 300 540.666015625 288.166992188 511.333007812 264.5 488 c 0
 240.833007812 464.666992188 211.333007812 453 176 453 c 0
 140.666992188 453 111.166992188 464.666992188 87.5 488 c 0
227 523.5 m 0
 240.333007812 537.166992188 247 554.666992188 247 576 c 0
 247 597.333007812 240.333007812 615 227 629 c 0
 213.666992188 643 196.666992188 650 176 650 c 0
 155.333007812 650 138.333007812 643 125 629 c 0
 111.666992188 615 105 597.333007812 105 576 c 0
 105 554.666992188 111.666992188 537.166992188 125 523.5 c 0
 138.333007812 509.833007812 155.333007812 503 176 503 c 0
 196.666992188 503 213.666992188 509.833007812 227 523.5 c 0
EndSplineSet
EndChar

StartChar: plusminus
Encoding: 177 177 114
Width: 420
GlyphClass: 2
Flags: W
LayerCount: 2
Fore
SplineSet
381 349 m 1
 381 283 l 1
 243 283 l 1
 243 146 l 1
 178 146 l 1
 178 283 l 1
 40 283 l 1
 40 349 l 1
 178 349 l 1
 178 486 l 1
 243 486 l 1
 243 349 l 1
 381 349 l 1
40 90 m 1
 381 90 l 1
 381 24 l 1
 40 24 l 1
 40 90 l 1
EndSplineSet
EndChar

StartChar: uni00B2
Encoding: 178 178 115
Width: 271
GlyphClass: 2
Flags: W
LayerCount: 2
Fore
SplineSet
32 490 m 1
 147 668 l 2
 155 680.666992188 160.666992188 691.666992188 164 701 c 0
 167.333007812 710.333007812 169 721 169 733 c 2
 169 753 l 2
 169 765.666992188 166.166992188 775.666992188 160.5 783 c 0
 154.833007812 790.333007812 146.333007812 794 135 794 c 0
 112.333007812 794 101 778.666992188 101 748 c 2
 101 726 l 1
 34 726 l 1
 34 756 l 2
 34 786 43.3330078125 810 62 828 c 0
 80.6669921875 846 105.666992188 855 137 855 c 0
 167.666992188 855 192.166992188 845.833007812 210.5 827.5 c 0
 228.833007812 809.166992188 238 785 238 755 c 2
 238 731 l 2
 238 713.666992188 235.333007812 698 230 684 c 0
 224.666015625 670 216.333007812 654.333007812 205 637 c 2
 112 492 l 1
 238 492 l 1
 238 430 l 1
 32 430 l 1
 32 490 l 1
EndSplineSet
EndChar

StartChar: uni00B3
Encoding: 179 179 116
Width: 268
GlyphClass: 2
Flags: W
LayerCount: 2
Fore
SplineSet
56.5 450.5 m 0
 38.8330078125 468.166992188 30.001953125 492.333984375 30.001953125 523.000976562 c 2
 30.001953125 548.000976562 l 1
 96.001953125 548.000976562 l 1
 96.001953125 525.000976562 l 2
 96.001953125 512.333984375 99.001953125 502.500976562 105.001953125 495.500976562 c 0
 111.001953125 488.500976562 119.668945312 485.000976562 131.001953125 485.000976562 c 0
 155.001953125 485.000976562 167.001953125 500.333984375 167.001953125 531.000976562 c 2
 167.001953125 567.000976562 l 2
 167.001953125 583.671875 163.834960938 595.838867188 157.501953125 603.500976562 c 0
 151.168945312 611.16796875 141.001953125 615.000976562 127.001953125 615.000976562 c 2
 109.001953125 615.000976562 l 1
 109.001953125 676.000976562 l 1
 127.001953125 676.000976562 l 2
 152.334960938 676.000976562 165.001953125 690.66796875 165.001953125 720.000976562 c 2
 165.001953125 750.000976562 l 2
 165.001953125 779.333984375 153.668945312 794.000976562 131.001953125 794.000976562 c 0
 119.668945312 794.000976562 111.168945312 790.500976562 105.501953125 783.500976562 c 0
 99.8349609375 776.500976562 97.001953125 766.66796875 97.001953125 754.000976562 c 2
 97.001953125 731.000976562 l 1
 30.001953125 731.000976562 l 1
 30.001953125 757.000976562 l 2
 30.001953125 787.000976562 39.1689453125 810.833984375 57.501953125 828.500976562 c 0
 75.8349609375 846.16796875 100.66796875 855.000976562 132.000976562 855.000976562 c 0
 164.000976562 855.000976562 189.000976562 846.000976562 207.000976562 828.000976562 c 0
 225.000976562 810.000976562 234.000976562 785.000976562 234.000976562 753.000976562 c 2
 234.000976562 729.000976562 l 2
 234.000976562 709.000976562 230.500976562 692.500976562 223.500976562 679.500976562 c 0
 216.500976562 666.500976562 205.333984375 656.333984375 190.000976562 649.000976562 c 1
 207.333984375 641.66796875 219.333984375 631.16796875 226.000976562 617.500976562 c 0
 232.66796875 603.833984375 236.000976562 585.666992188 236.000976562 563 c 2
 236.000976562 528 l 2
 236.000976562 496 226.500976562 470.666992188 207.500976562 452 c 0
 188.500976562 433.333007812 163.333984375 424 132.000976562 424 c 0
 99.333984375 424 74.1669921875 432.833007812 56.5 450.5 c 0
EndSplineSet
EndChar

StartChar: acute
Encoding: 180 180 117
Width: 501
GlyphClass: 2
Flags: W
LayerCount: 2
Fore
SplineSet
267 705 m 1
 341 705 l 1
 232 576 l 1
 176 576 l 1
 267 705 l 1
EndSplineSet
EndChar

StartChar: uni00B5
Encoding: 181 181 118
Width: 413
GlyphClass: 2
Flags: W
LayerCount: 2
Fore
SplineSet
59 517 m 1
 126 517 l 1
 126 144 l 2
 126 114 133.333007812 91.1669921875 148 75.5 c 0
 162.666992188 59.8330078125 182 52 206 52 c 0
 229.333007812 52 248.5 60.1669921875 263.5 76.5 c 0
 278.5 92.8330078125 286 115.333007812 286 144 c 2
 286 517 l 1
 354 517 l 1
 354 0 l 1
 289 0 l 1
 289 47 l 1
 279 29 265.666992188 15.3330078125 249 6 c 0
 232.333007812 -3.3330078125 214 -8 194 -8 c 0
 166 -8 143.666992188 0.6669921875 127 18 c 1
 127 -154 l 1
 59 -154 l 1
 59 517 l 1
EndSplineSet
EndChar

StartChar: paragraph
Encoding: 182 182 119
Width: 520
GlyphClass: 2
Flags: W
LayerCount: 2
Fore
SplineSet
226 269 m 1
 176 273.666992188 135.833007812 295.666992188 105.5 335 c 0
 75.1669921875 374.333984375 60 422.666992188 60 480 c 0
 60 518.666992188 68 554 84 586 c 0
 100 618 123 643.333007812 153 662 c 0
 183 680.666992188 218 690 258 690 c 2
 430 690 l 1
 430 -152 l 1
 364 -152 l 1
 364 625 l 1
 292 625 l 1
 292 -152 l 1
 226 -152 l 1
 226 269 l 1
EndSplineSet
EndChar

StartChar: periodcentered
Encoding: 183 183 120
Width: 160
GlyphClass: 2
Flags: W
LayerCount: 2
Fore
SplineSet
41 315 m 1
 119 315 l 1
 119 226 l 1
 41 226 l 1
 41 315 l 1
EndSplineSet
EndChar

StartChar: cedilla
Encoding: 184 184 121
Width: 501
GlyphClass: 2
Flags: W
LayerCount: 2
Fore
SplineSet
253 12 m 1
 318 12 l 1
 260 -152 l 1
 184 -152 l 1
 253 12 l 1
EndSplineSet
EndChar

StartChar: uni00B9
Encoding: 185 185 122
Width: 199
GlyphClass: 2
Flags: W
LayerCount: 2
Fore
SplineSet
83 770 m 1
 21 720 l 1
 21 799 l 1
 83 848 l 1
 154 848 l 1
 154 430 l 1
 83 430 l 1
 83 770 l 1
EndSplineSet
EndChar

StartChar: ordmasculine
Encoding: 186 186 123
Width: 295
GlyphClass: 2
Flags: W
LayerCount: 2
Fore
SplineSet
41 545 m 2
 41 629 l 2
 41 671 50.1669921875 701.333007812 68.5 720 c 0
 86.8330078125 738.666992188 113.333007812 748 148 748 c 0
 182.666992188 748 209 738.666992188 227 720 c 0
 245 701.333007812 254 671 254 629 c 2
 254 545 l 2
 254 503 245 472.5 227 453.5 c 0
 209 434.5 182.666992188 425 148 425 c 0
 76.6669921875 425 41 465 41 545 c 2
189 544 m 2
 189 630 l 2
 189 670 175.333007812 690 148 690 c 0
 120 690 106 670 106 630 c 2
 106 544 l 2
 106 504 120 484 148 484 c 0
 175.333007812 484 189 504 189 544 c 2
141 847 m 1024
EndSplineSet
EndChar

StartChar: guillemotright
Encoding: 187 187 124
Width: 422
GlyphClass: 2
Flags: W
LayerCount: 2
Fore
SplineSet
59 157 m 1
 163 264 l 1
 59 371 l 1
 59 447 l 1
 238 264 l 1
 59 81 l 1
 59 157 l 1
224 157 m 1
 328 264 l 1
 224 371 l 1
 224 447 l 1
 402 264 l 1
 224 81 l 1
 224 157 l 1
EndSplineSet
EndChar

StartChar: onequarter
Encoding: 188 188 125
Width: 635
GlyphClass: 3
Flags: W
LayerCount: 2
Fore
SplineSet
83 272 m 1
 83 612 l 1
 21 562 l 1
 21 641 l 1
 83 690 l 1
 154 690 l 1
 154 272 l 1
 83 272 l 1
446 690 m 1
 198 0 l 1
 135 0 l 1
 383 690 l 1
 446 690 l 1
610 74 m 1
 579 74 l 1
 579 0 l 1
 509 0 l 1
 509 74 l 1
 375 74 l 1
 375 136 l 1
 467 418 l 1
 537 418 l 1
 445 136 l 1
 509 136 l 1
 509 232 l 1
 579 232 l 1
 579 136 l 1
 610 136 l 1
 610 74 l 1
EndSplineSet
Ligature2: "'frac' Diagonal Fractions lookup 2 subtable" one slash four
EndChar

StartChar: onehalf
Encoding: 189 189 126
Width: 644
GlyphClass: 3
Flags: W
LayerCount: 2
Fore
SplineSet
83 612 m 1
 21 562 l 1
 21 641 l 1
 83 690 l 1
 154 690 l 1
 154 272 l 1
 83 272 l 1
 83 612 l 1
383 690 m 1
 446 690 l 1
 198 0 l 1
 135 0 l 1
 383 690 l 1
405 60 m 1
 520 238 l 2
 528 250.666992188 533.666992188 261.666992188 537 271 c 0
 540.333007812 280.333007812 542 291 542 303 c 2
 542 323 l 2
 542 335.666992188 539.166992188 345.666992188 533.5 353 c 0
 527.833007812 360.333007812 519.333007812 364 508 364 c 0
 485.333007812 364 474 348.666992188 474 318 c 2
 474 296 l 1
 407 296 l 1
 407 326 l 2
 407 356 416.333007812 380 435 398 c 0
 453.666992188 416 478.666992188 425 510 425 c 0
 540.666992188 425 565.166992188 415.833007812 583.5 397.5 c 0
 601.833007812 379.166992188 611 355 611 325 c 2
 611 301 l 2
 611 283.666992188 608.333007812 268 603 254 c 0
 597.662109375 240 589.329101562 224.333007812 578 207 c 2
 485 62 l 1
 611 62 l 1
 611 0 l 1
 405 0 l 1
 405 60 l 1
EndSplineSet
Ligature2: "'frac' Diagonal Fractions lookup 2 subtable" one slash two
EndChar

StartChar: threequarters
Encoding: 190 190 127
Width: 662
GlyphClass: 3
Flags: W
LayerCount: 2
Fore
SplineSet
207.5 294 m 0
 188.5 275.333007812 163.334960938 265.999023438 132.001953125 265.999023438 c 0
 99.3349609375 265.999023438 74.16796875 274.83203125 56.5009765625 292.499023438 c 0
 38.833984375 310.166015625 30.0009765625 334.333007812 30.0009765625 365 c 2
 30.0009765625 390 l 1
 96.0009765625 390 l 1
 96.0009765625 367 l 2
 96.0009765625 354.333007812 99.0009765625 344.5 105.000976562 337.5 c 0
 111.000976562 330.5 119.66796875 327 131.000976562 327 c 0
 155.000976562 327 167.000976562 342.333007812 167.000976562 373 c 2
 167.000976562 409 l 2
 167.000976562 425.666992188 163.833984375 437.833984375 157.500976562 445.500976562 c 0
 151.16796875 453.16796875 141.000976562 457.000976562 127.000976562 457.000976562 c 2
 109.000976562 457.000976562 l 1
 109.000976562 518.000976562 l 1
 127.000976562 518.000976562 l 2
 152.333984375 518.000976562 165.000976562 532.66796875 165.000976562 562.000976562 c 2
 165.000976562 592.000976562 l 2
 165.000976562 621.333984375 153.66796875 636.000976562 131.000976562 636.000976562 c 0
 119.66796875 636.000976562 111.16796875 632.500976562 105.500976562 625.500976562 c 0
 99.833984375 618.500976562 97.0009765625 608.66796875 97.0009765625 596.000976562 c 2
 97.0009765625 573.000976562 l 1
 30.0009765625 573.000976562 l 1
 30.0009765625 599.000976562 l 2
 30.0009765625 629.000976562 39.16796875 652.833984375 57.5009765625 670.500976562 c 0
 75.833984375 688.16796875 100.666992188 697.000976562 132 697.000976562 c 0
 164 697.000976562 189 688.000976562 207 670.000976562 c 0
 225 652.000976562 234 627.000976562 234 595.000976562 c 2
 234 571.000976562 l 2
 234 551.000976562 230.5 534.500976562 223.5 521.500976562 c 0
 216.5 508.500976562 205.333007812 498.333984375 190 491.000976562 c 1
 207.333007812 483.66796875 219.333007812 473.16796875 226 459.500976562 c 0
 232.666992188 445.833007812 236 427.666015625 236 405 c 2
 236 370 l 2
 236 338 226.5 312.666992188 207.5 294 c 0
497.001953125 689.999023438 m 1
 249.001953125 -0.0009765625 l 1
 186.001953125 -0.0009765625 l 1
 434.001953125 689.999023438 l 1
 497.001953125 689.999023438 l 1
637.001953125 73.9990234375 m 1
 606.001953125 73.9990234375 l 1
 606.001953125 -0.0009765625 l 1
 536.001953125 -0.0009765625 l 1
 536.001953125 73.9990234375 l 1
 402.001953125 73.9990234375 l 1
 402.001953125 135.999023438 l 1
 494.001953125 417.999023438 l 1
 564.001953125 417.999023438 l 1
 472.001953125 135.999023438 l 1
 536.001953125 135.999023438 l 1
 536.001953125 231.999023438 l 1
 606.001953125 231.999023438 l 1
 606.001953125 135.999023438 l 1
 637.001953125 135.999023438 l 1
 637.001953125 73.9990234375 l 1
EndSplineSet
Ligature2: "'frac' Diagonal Fractions lookup 2 subtable" three slash four
EndChar

StartChar: questiondown
Encoding: 191 191 128
Width: 363
GlyphClass: 2
Flags: W
LayerCount: 2
Fore
SplineSet
145 517 m 1
 223 517 l 1
 223 420 l 1
 145 420 l 1
 145 517 l 1
75 -120.5 m 0
 49.6669921875 -91.5 37 -51.6669921875 37 -1 c 0
 37 24.3330078125 40.5 47 47.5 67 c 0
 54.5 87 67.6669921875 113.333007812 87 146 c 2
 121 203 l 2
 132.333007812 222.333007812 139.666015625 238 142.999023438 250 c 0
 146.33203125 262 147.999023438 277.666992188 147.999023438 297 c 2
 147.999023438 332 l 1
 220.999023438 332 l 1
 220.999023438 293 l 2
 220.999023438 269.666992188 218.83203125 250.5 214.499023438 235.5 c 0
 210.166015625 220.5 199.999023438 200 183.999023438 174 c 2
 143.999023438 108 l 2
 131.33203125 87.3330078125 122.499023438 69.3330078125 117.499023438 54 c 0
 112.499023438 38.6669921875 109.999023438 20.333984375 109.999023438 -0.9990234375 c 0
 109.999023438 -66.33203125 134.666015625 -98.9990234375 183.999023438 -98.9990234375 c 0
 212.666015625 -98.9990234375 232.499023438 -89.33203125 243.499023438 -69.9990234375 c 0
 254.499023438 -50.666015625 259.999023438 -19.3330078125 259.999023438 24 c 1
 332.999023438 24 l 1
 331.666015625 -101.333007812 282.333007812 -164 185 -164 c 0
 137 -164 100.333007812 -149.5 75 -120.5 c 0
EndSplineSet
EndChar

StartChar: Agrave
Encoding: 192 192 129
Width: 461
GlyphClass: 2
Flags: W
LayerCount: 2
Fore
SplineSet
331 176 m 1
 129 176 l 1
 85 0 l 1
 9 0 l 1
 197 690 l 1
 264 690 l 1
 452 0 l 1
 375 0 l 1
 331 176 l 1
315 239 m 1
 230 580 l 1
 145 239 l 1
 315 239 l 1
229 749 m 1
 120 878 l 1
 194 878 l 1
 285 749 l 1
 229 749 l 1
EndSplineSet
EndChar

StartChar: Aacute
Encoding: 193 193 130
Width: 461
GlyphClass: 2
Flags: W
LayerCount: 2
Fore
SplineSet
331 176 m 1
 129 176 l 1
 85 0 l 1
 9 0 l 1
 197 690 l 1
 264 690 l 1
 452 0 l 1
 375 0 l 1
 331 176 l 1
315 239 m 1
 230 580 l 1
 145 239 l 1
 315 239 l 1
258 878 m 1
 332 878 l 1
 223 749 l 1
 167 749 l 1
 258 878 l 1
EndSplineSet
EndChar

StartChar: Acircumflex
Encoding: 194 194 131
Width: 461
GlyphClass: 2
Flags: W
LayerCount: 2
Fore
SplineSet
331 176 m 1
 129 176 l 1
 85 0 l 1
 9 0 l 1
 197 690 l 1
 264 690 l 1
 452 0 l 1
 375 0 l 1
 331 176 l 1
315 239 m 1
 230 580 l 1
 145 239 l 1
 315 239 l 1
198 884 m 1
 262 884 l 1
 362 741 l 1
 295 741 l 1
 232 831 l 1
 168 741 l 1
 101 741 l 1
 198 884 l 1
EndSplineSet
EndChar

StartChar: Atilde
Encoding: 195 195 132
Width: 461
GlyphClass: 2
Flags: W
LayerCount: 2
Fore
SplineSet
331 176 m 1
 129 176 l 1
 85 0 l 1
 9 0 l 1
 197 690 l 1
 264 690 l 1
 452 0 l 1
 375 0 l 1
 331 176 l 1
315 239 m 1
 230 580 l 1
 145 239 l 1
 315 239 l 1
123 814 m 1
 135 826.666992188 145.334960938 835.5 154.001953125 840.5 c 0
 162.668945312 845.5 173.001953125 848 185.001953125 848 c 0
 195.001953125 848 203.501953125 846.5 210.501953125 843.5 c 0
 217.501953125 840.5 225.668945312 836 235.001953125 830 c 0
 244.334960938 824 252.501953125 819.5 259.501953125 816.5 c 0
 266.501953125 813.5 274.334960938 812 283.001953125 812 c 0
 293.001953125 812 301.501953125 814.5 308.501953125 819.5 c 0
 315.501953125 824.5 325.334960938 834.333007812 338.001953125 849 c 1
 338.001953125 779 l 1
 327.333984375 766.333007812 317.666992188 757.5 309.001953125 752.5 c 0
 300.334960938 747.5 289.66796875 745 277.001953125 745 c 0
 266.333984375 745 257.166992188 746.666992188 249.500976562 750 c 0
 241.833984375 753.333007812 232.666992188 758 222 764 c 0
 212.666015625 769.333007812 205.333007812 773.333007812 200 776 c 0
 194.666992188 778.666992188 188.666992188 780 182 780 c 0
 171.333007812 780 161.833007812 777.333007812 153.5 772 c 0
 145.166992188 766.666992188 135 756.666992188 123 742 c 1
 123 814 l 1
EndSplineSet
EndChar

StartChar: Adieresis
Encoding: 196 196 133
Width: 461
GlyphClass: 2
Flags: W
LayerCount: 2
Fore
SplineSet
331 176 m 1
 129 176 l 1
 85 0 l 1
 9 0 l 1
 197 690 l 1
 264 690 l 1
 452 0 l 1
 375 0 l 1
 331 176 l 1
315 239 m 1
 230 580 l 1
 145 239 l 1
 315 239 l 1
117 838 m 1
 192 838 l 1
 192 752 l 1
 117 752 l 1
 117 838 l 1
269 838 m 1
 344 838 l 1
 344 752 l 1
 269 752 l 1
 269 838 l 1
EndSplineSet
EndChar

StartChar: Aring
Encoding: 197 197 134
Width: 461
GlyphClass: 2
Flags: W
LayerCount: 2
Fore
SplineSet
331 176 m 1
 129 176.000976562 l 1
 85 0.0009765625 l 1
 9 0.0009765625 l 1
 197 690.000976562 l 1
 180.333007812 696.672851562 167 707.33984375 157 722.000976562 c 0
 147 736.66796875 142 753.66796875 142 773.000976562 c 0
 142 798.333984375 150.333007812 819.500976562 167 836.500976562 c 0
 183.666992188 853.500976562 204.666992188 862.000976562 230 862.000976562 c 0
 256 862.000976562 277.5 853.500976562 294.5 836.500976562 c 0
 311.5 819.500976562 320 798.333984375 320 773.000976562 c 0
 320 753.66796875 315 736.66796875 305 722.000976562 c 0
 295 707.333984375 281.333007812 696.666992188 264 690 c 1
 452 0 l 1
 375 0 l 1
 331 176 l 1
195.5 737.000976562 m 0
 204.5 727.66796875 216 723.000976562 230 723.000976562 c 0
 244.666992188 723.000976562 256.5 727.66796875 265.5 737.000976562 c 0
 274.5 746.333984375 279 758.333984375 279 773.000976562 c 0
 279 787.670898438 274.5 799.837890625 265.5 809.501953125 c 0
 256.5 819.168945312 244.666992188 824.001953125 230 824.001953125 c 0
 216 824.001953125 204.5 819.168945312 195.5 809.501953125 c 0
 186.5 799.834960938 182 787.66796875 182 773.000976562 c 0
 182 758.333984375 186.5 746.333984375 195.5 737.000976562 c 0
315 239.000976562 m 1
 230 580.000976562 l 1
 145 239.000976562 l 1
 315 239.000976562 l 1
EndSplineSet
EndChar

StartChar: AE
Encoding: 198 198 135
Width: 688
GlyphClass: 2
Flags: W
LayerCount: 2
Fore
SplineSet
426 625 m 1
 426 384 l 1
 619 384 l 1
 619 318 l 1
 426 318 l 1
 426 65 l 1
 652 65 l 1
 652 0 l 1
 354 0 l 1
 354 172 l 1
 159 172 l 1
 85 0 l 1
 9 0 l 1
 310 690 l 1
 652 690 l 1
 652 625 l 1
 426 625 l 1
354 236 m 1
 354 627 l 1
 186 236 l 1
 354 236 l 1
EndSplineSet
EndChar

StartChar: Ccedilla
Encoding: 199 199 136
Width: 478
GlyphClass: 2
Flags: W
LayerCount: 2
Fore
SplineSet
353 489 m 1
 352.998046875 496 l 2
 352.998046875 543.333007812 342.831054688 578 322.498046875 600 c 0
 302.165039062 622 274.998046875 633 240.998046875 633 c 0
 202.331054688 633 173.331054688 620.833007812 153.998046875 596.5 c 0
 134.665039062 572.166992188 124.998046875 534 124.998046875 482 c 2
 124.998046875 200 l 2
 124.998046875 105.333007812 163.665039062 58 240.998046875 58 c 0
 275.665039062 58 302.998046875 69 322.998046875 91 c 0
 342.998046875 113 352.998046875 146.666992188 352.998046875 192 c 2
 352.998046875 201 l 1
 423.998046875 201 l 1
 423.998046875 191 l 2
 423.998046875 135 411.831054688 90.8330078125 387.498046875 58.5 c 0
 363.165039062 26.1669921875 330.33203125 5.6669921875 288.999023438 -3 c 1
 235.999023438 -152 l 1
 159.999023438 -152 l 1
 220.999023438 -7 l 1
 169.666015625 -3 128.666015625 16.3330078125 97.9990234375 51 c 0
 67.33203125 85.6669921875 51.9990234375 135.666992188 51.9990234375 201 c 2
 51.9990234375 489 l 2
 51.9990234375 559 69.166015625 611.5 103.499023438 646.5 c 0
 137.83203125 681.5 183.33203125 699 239.999023438 699 c 0
 294.666015625 699 339.333007812 682.333007812 374 649 c 0
 408.666992188 615.665039062 426 565.33203125 426 498 c 2
 426 489 l 1
 353 489 l 1
EndSplineSet
EndChar

StartChar: Egrave
Encoding: 200 200 137
Width: 403
GlyphClass: 2
Flags: W
LayerCount: 2
Fore
SplineSet
132 625 m 1
 132 384 l 1
 334 384 l 1
 334 318 l 1
 132 318 l 1
 132 65 l 1
 367 65 l 1
 367 0 l 1
 60 0 l 1
 60 690 l 1
 367 690 l 1
 367 625 l 1
 132 625 l 1
211 749 m 1
 102 878 l 1
 176 878 l 1
 267 749 l 1
 211 749 l 1
EndSplineSet
EndChar

StartChar: Eacute
Encoding: 201 201 138
Width: 403
GlyphClass: 2
Flags: W
LayerCount: 2
Fore
SplineSet
132 625 m 1
 132 384 l 1
 334 384 l 1
 334 318 l 1
 132 318 l 1
 132 65 l 1
 367 65 l 1
 367 0 l 1
 60 0 l 1
 60 690 l 1
 367 690 l 1
 367 625 l 1
 132 625 l 1
240 878 m 1
 314 878 l 1
 205 749 l 1
 149 749 l 1
 240 878 l 1
EndSplineSet
EndChar

StartChar: Ecircumflex
Encoding: 202 202 139
Width: 403
GlyphClass: 2
Flags: W
LayerCount: 2
Fore
SplineSet
132 625 m 1
 132 384 l 1
 334 384 l 1
 334 318 l 1
 132 318 l 1
 132 65 l 1
 367 65 l 1
 367 0 l 1
 60 0 l 1
 60 690 l 1
 367 690 l 1
 367 625 l 1
 132 625 l 1
180 884 m 1
 244 884 l 1
 344 741 l 1
 277 741 l 1
 214 831 l 1
 150 741 l 1
 83 741 l 1
 180 884 l 1
EndSplineSet
EndChar

StartChar: Edieresis
Encoding: 203 203 140
Width: 403
GlyphClass: 2
Flags: W
LayerCount: 2
Fore
SplineSet
132 625 m 1
 132 384 l 1
 334 384 l 1
 334 318 l 1
 132 318 l 1
 132 65 l 1
 367 65 l 1
 367 0 l 1
 60 0 l 1
 60 690 l 1
 367 690 l 1
 367 625 l 1
 132 625 l 1
99 838 m 1
 174 838 l 1
 174 752 l 1
 99 752 l 1
 99 838 l 1
251 838 m 1
 326 838 l 1
 326 752 l 1
 251 752 l 1
 251 838 l 1
EndSplineSet
EndChar

StartChar: Igrave
Encoding: 204 204 141
Width: 204
GlyphClass: 2
Flags: W
LayerCount: 2
Fore
SplineSet
66 690 m 1
 138 690 l 1
 138 0 l 1
 66 0 l 1
 66 690 l 1
100 749 m 1
 -9 878 l 1
 65 878 l 1
 156 749 l 1
 100 749 l 1
EndSplineSet
EndChar

StartChar: Iacute
Encoding: 205 205 142
Width: 204
GlyphClass: 2
Flags: W
LayerCount: 2
Fore
SplineSet
66 690 m 1
 138 690 l 1
 138 0 l 1
 66 0 l 1
 66 690 l 1
129 878 m 1
 203 878 l 1
 94 749 l 1
 38 749 l 1
 129 878 l 1
EndSplineSet
EndChar

StartChar: Icircumflex
Encoding: 206 206 143
Width: 204
GlyphClass: 2
Flags: W
LayerCount: 2
Fore
SplineSet
66 690 m 1
 138 690 l 1
 138 0 l 1
 66 0 l 1
 66 690 l 1
69 884 m 1
 133 884 l 1
 233 741 l 1
 166 741 l 1
 103 831 l 1
 39 741 l 1
 -28 741 l 1
 69 884 l 1
EndSplineSet
EndChar

StartChar: Idieresis
Encoding: 207 207 144
Width: 204
GlyphClass: 2
Flags: W
LayerCount: 2
Fore
SplineSet
66 690 m 1
 138 690 l 1
 138 0 l 1
 66 0 l 1
 66 690 l 1
-12 838 m 1
 63 838 l 1
 63 752 l 1
 -12 752 l 1
 -12 838 l 1
140 838 m 1
 215 838 l 1
 215 752 l 1
 140 752 l 1
 140 838 l 1
EndSplineSet
EndChar

StartChar: Eth
Encoding: 208 208 145
Width: 505
GlyphClass: 2
Flags: W
LayerCount: 2
Fore
SplineSet
402 638 m 0
 436 603.333007812 453 551 453 481 c 2
 453 209 l 2
 453 139.666992188 436 87.5 402 52.5 c 0
 368 17.5 323 0 267 0 c 2
 88 0 l 1
 88 318 l 1
 30 318 l 1
 30 383 l 1
 88 383 l 1
 88 690 l 1
 267 690 l 2
 323 690 368 672.666992188 402 638 c 0
380 474 m 2
 380 524.666992188 370.333007812 562.5 351 587.5 c 0
 331.666992188 612.5 303.666992188 625 267 625 c 2
 161 625 l 1
 161 383 l 1
 268 383 l 1
 268 318 l 1
 161 318 l 1
 161 65 l 1
 267 65 l 2
 303 65 330.833007812 77 350.5 101 c 0
 370.166992188 125 380 160.666992188 380 208 c 2
 380 474 l 2
EndSplineSet
EndChar

StartChar: Ntilde
Encoding: 209 209 146
Width: 502
GlyphClass: 2
Flags: W
LayerCount: 2
Fore
SplineSet
442 690 m 1
 442 0 l 1
 369 0 l 1
 133 530 l 1
 133 0 l 1
 60 0 l 1
 60 690 l 1
 133 690 l 1
 369 159 l 1
 369 690 l 1
 442 690 l 1
144 814 m 1
 156 826.666992188 166.333984375 835.5 175.000976562 840.5 c 0
 183.66796875 845.5 194.000976562 848 206.000976562 848 c 0
 216.000976562 848 224.500976562 846.5 231.500976562 843.5 c 0
 238.500976562 840.5 246.66796875 836 256.000976562 830 c 0
 265.333984375 824 273.500976562 819.5 280.500976562 816.5 c 0
 287.500976562 813.5 295.333984375 812 304.000976562 812 c 0
 314.000976562 812 322.500976562 814.5 329.500976562 819.5 c 0
 336.500976562 824.5 346.333984375 834.333007812 359.000976562 849 c 1
 359.000976562 779 l 1
 348.333984375 766.333007812 338.666992188 757.5 330.000976562 752.5 c 0
 321.333007812 747.5 310.666015625 745 298.000976562 745 c 0
 287.333007812 745 278.166015625 746.666992188 270.5 750 c 0
 262.833007812 753.333007812 253.666015625 758 242.999023438 764 c 0
 233.665039062 769.333007812 226.33203125 773.333007812 221 776 c 0
 215.666992188 778.666992188 209.666992188 780 203 780 c 0
 192.333007812 780 182.833007812 777.333007812 174.5 772 c 0
 166.166992188 766.666992188 156 756.666992188 144 742 c 1
 144 814 l 1
EndSplineSet
EndChar

StartChar: Ograve
Encoding: 210 210 147
Width: 478
GlyphClass: 2
Flags: W
LayerCount: 2
Fore
SplineSet
103 44.5 m 0
 69 79.5 52 131.66796875 52 201.000976562 c 2
 52 489.000976562 l 2
 52 559.66796875 69 612.334960938 103 647.000976562 c 0
 137 681.66796875 182.333007812 699.000976562 239 699.000976562 c 0
 295.666992188 699.000976562 341 681.66796875 375 647.000976562 c 0
 409 612.333984375 426 559.666992188 426 489 c 2
 426 201 l 2
 426 131.666992188 408.833007812 79.5 374.5 44.5 c 0
 340.166992188 9.5 295 -8 239 -8 c 0
 182.333007812 -8 137 9.5 103 44.5 c 0
323.5 93.5009765625 m 0
 343.166992188 117.16796875 353 152.66796875 353 200.000976562 c 2
 353 482.000976562 l 2
 353 532.66796875 343.333007812 570.500976562 324 595.500976562 c 0
 304.666992188 620.500976562 276.666992188 633.000976562 240 633.000976562 c 0
 201.333007812 633.000976562 172.5 620.66796875 153.5 596.000976562 c 0
 134.5 571.333984375 125 533.333984375 125 482.000976562 c 2
 125 200.000976562 l 2
 125 105.333984375 163.333007812 58.0009765625 240 58.0009765625 c 0
 276 58.0009765625 303.833007812 69.833984375 323.5 93.5009765625 c 0
237 749.000976562 m 1
 128 878.000976562 l 1
 202 878.000976562 l 1
 293 749.000976562 l 1
 237 749.000976562 l 1
EndSplineSet
EndChar

StartChar: Oacute
Encoding: 211 211 148
Width: 478
GlyphClass: 2
Flags: W
LayerCount: 2
Fore
SplineSet
103 44.5 m 0
 69 79.5 52 131.66796875 52 201.000976562 c 2
 52 489.000976562 l 2
 52 559.66796875 69 612.334960938 103 647.000976562 c 0
 137 681.66796875 182.333007812 699.000976562 239 699.000976562 c 0
 295.666992188 699.000976562 341 681.66796875 375 647.000976562 c 0
 409 612.333984375 426 559.666992188 426 489 c 2
 426 201 l 2
 426 131.666992188 408.833007812 79.5 374.5 44.5 c 0
 340.166992188 9.5 295 -8 239 -8 c 0
 182.333007812 -8 137 9.5 103 44.5 c 0
323.5 93.5009765625 m 0
 343.166992188 117.16796875 353 152.66796875 353 200.000976562 c 2
 353 482.000976562 l 2
 353 532.66796875 343.333007812 570.500976562 324 595.500976562 c 0
 304.666992188 620.500976562 276.666992188 633.000976562 240 633.000976562 c 0
 201.333007812 633.000976562 172.5 620.66796875 153.5 596.000976562 c 0
 134.5 571.333984375 125 533.333984375 125 482.000976562 c 2
 125 200.000976562 l 2
 125 105.333984375 163.333007812 58.0009765625 240 58.0009765625 c 0
 276 58.0009765625 303.833007812 69.833984375 323.5 93.5009765625 c 0
266 878.000976562 m 1
 340 878.000976562 l 1
 231 749.000976562 l 1
 175 749.000976562 l 1
 266 878.000976562 l 1
EndSplineSet
EndChar

StartChar: Ocircumflex
Encoding: 212 212 149
Width: 478
GlyphClass: 2
Flags: W
LayerCount: 2
Fore
SplineSet
103 44.5 m 0
 69 79.5 52 131.66796875 52 201.000976562 c 2
 52 489.000976562 l 2
 52 559.66796875 69 612.334960938 103 647.000976562 c 0
 137 681.66796875 182.333007812 699.000976562 239 699.000976562 c 0
 295.666992188 699.000976562 341 681.66796875 375 647.000976562 c 0
 409 612.333984375 426 559.666992188 426 489 c 2
 426 201 l 2
 426 131.666992188 408.833007812 79.5 374.5 44.5 c 0
 340.166992188 9.5 295 -8 239 -8 c 0
 182.333007812 -8 137 9.5 103 44.5 c 0
323.5 93.5009765625 m 0
 343.166992188 117.16796875 353 152.66796875 353 200.000976562 c 2
 353 482.000976562 l 2
 353 532.66796875 343.333007812 570.500976562 324 595.500976562 c 0
 304.666992188 620.500976562 276.666992188 633.000976562 240 633.000976562 c 0
 201.333007812 633.000976562 172.5 620.66796875 153.5 596.000976562 c 0
 134.5 571.333984375 125 533.333984375 125 482.000976562 c 2
 125 200.000976562 l 2
 125 105.333984375 163.333007812 58.0009765625 240 58.0009765625 c 0
 276 58.0009765625 303.833007812 69.833984375 323.5 93.5009765625 c 0
206 884.000976562 m 1
 270 884.000976562 l 1
 370 741.000976562 l 1
 303 741.000976562 l 1
 240 831.000976562 l 1
 176 741.000976562 l 1
 109 741.000976562 l 1
 206 884.000976562 l 1
EndSplineSet
EndChar

StartChar: Otilde
Encoding: 213 213 150
Width: 478
GlyphClass: 2
Flags: W
LayerCount: 2
Fore
SplineSet
103 44.5 m 0
 69 79.5 52 131.66796875 52 201.000976562 c 2
 52 489.000976562 l 2
 52 559.66796875 69 612.334960938 103 647.000976562 c 0
 137 681.66796875 182.333007812 699.000976562 239 699.000976562 c 0
 295.666992188 699.000976562 341 681.66796875 375 647.000976562 c 0
 409 612.333984375 426 559.666992188 426 489 c 2
 426 201 l 2
 426 131.666992188 408.833007812 79.5 374.5 44.5 c 0
 340.166992188 9.5 295 -8 239 -8 c 0
 182.333007812 -8 137 9.5 103 44.5 c 0
323.5 93.5009765625 m 0
 343.166992188 117.16796875 353 152.66796875 353 200.000976562 c 2
 353 482.000976562 l 2
 353 532.66796875 343.333007812 570.500976562 324 595.500976562 c 0
 304.666992188 620.500976562 276.666992188 633.000976562 240 633.000976562 c 0
 201.333007812 633.000976562 172.5 620.66796875 153.5 596.000976562 c 0
 134.5 571.333984375 125 533.333984375 125 482.000976562 c 2
 125 200.000976562 l 2
 125 105.333984375 163.333007812 58.0009765625 240 58.0009765625 c 0
 276 58.0009765625 303.833007812 69.833984375 323.5 93.5009765625 c 0
131 814.000976562 m 1
 143 826.66796875 153.334960938 835.500976562 162.001953125 840.500976562 c 0
 170.668945312 845.500976562 181.001953125 848.000976562 193.001953125 848.000976562 c 0
 203.001953125 848.000976562 211.501953125 846.500976562 218.501953125 843.500976562 c 0
 225.501953125 840.500976562 233.668945312 836.000976562 243.001953125 830.000976562 c 0
 252.334960938 824.000976562 260.501953125 819.500976562 267.501953125 816.500976562 c 0
 274.501953125 813.500976562 282.334960938 812.000976562 291.001953125 812.000976562 c 0
 301.001953125 812.000976562 309.501953125 814.500976562 316.501953125 819.500976562 c 0
 323.501953125 824.500976562 333.334960938 834.333984375 346.001953125 849.000976562 c 1
 346.001953125 779.000976562 l 1
 335.333984375 766.333984375 325.666992188 757.500976562 317.001953125 752.500976562 c 0
 308.334960938 747.500976562 297.66796875 745.000976562 285.001953125 745.000976562 c 0
 274.333984375 745.000976562 265.166992188 746.66796875 257.500976562 750.000976562 c 0
 249.833984375 753.333984375 240.666992188 758.000976562 230 764.000976562 c 0
 220.666015625 769.333984375 213.333007812 773.333984375 208 776.000976562 c 0
 202.666992188 778.66796875 196.666992188 780.000976562 190 780.000976562 c 0
 179.333007812 780.000976562 169.833007812 777.333984375 161.5 772.000976562 c 0
 153.166992188 766.66796875 143 756.66796875 131 742.000976562 c 1
 131 814.000976562 l 1
EndSplineSet
EndChar

StartChar: Odieresis
Encoding: 214 214 151
Width: 478
GlyphClass: 2
Flags: W
LayerCount: 2
Fore
SplineSet
103 44.5 m 0
 69 79.5 52 131.66796875 52 201.000976562 c 2
 52 489.000976562 l 2
 52 559.66796875 69 612.334960938 103 647.000976562 c 0
 137 681.66796875 182.333007812 699.000976562 239 699.000976562 c 0
 295.666992188 699.000976562 341 681.66796875 375 647.000976562 c 0
 409 612.333984375 426 559.666992188 426 489 c 2
 426 201 l 2
 426 131.666992188 408.833007812 79.5 374.5 44.5 c 0
 340.166992188 9.5 295 -8 239 -8 c 0
 182.333007812 -8 137 9.5 103 44.5 c 0
323.5 93.5009765625 m 0
 343.166992188 117.16796875 353 152.66796875 353 200.000976562 c 2
 353 482.000976562 l 2
 353 532.66796875 343.333007812 570.500976562 324 595.500976562 c 0
 304.666992188 620.500976562 276.666992188 633.000976562 240 633.000976562 c 0
 201.333007812 633.000976562 172.5 620.66796875 153.5 596.000976562 c 0
 134.5 571.333984375 125 533.333984375 125 482.000976562 c 2
 125 200.000976562 l 2
 125 105.333984375 163.333007812 58.0009765625 240 58.0009765625 c 0
 276 58.0009765625 303.833007812 69.833984375 323.5 93.5009765625 c 0
125 838.000976562 m 1
 200 838.000976562 l 1
 200 752.000976562 l 1
 125 752.000976562 l 1
 125 838.000976562 l 1
277 838.000976562 m 1
 352 838.000976562 l 1
 352 752.000976562 l 1
 277 752.000976562 l 1
 277 838.000976562 l 1
EndSplineSet
EndChar

StartChar: multiply
Encoding: 215 215 152
Width: 420
GlyphClass: 2
Flags: W
LayerCount: 2
Fore
SplineSet
63 172 m 1
 167 276 l 1
 63 380 l 1
 107 423 l 1
 211 320 l 1
 314 423 l 1
 357 380 l 1
 254 276 l 1
 357 172 l 1
 314 129 l 1
 211 233 l 1
 107 129 l 1
 63 172 l 1
EndSplineSet
EndChar

StartChar: Oslash
Encoding: 216 216 153
Width: 478
GlyphClass: 2
Flags: W
LayerCount: 2
Fore
SplineSet
391 626 m 1
 414.333007812 591.333007812 425.999023438 545.66796875 425.999023438 489.000976562 c 2
 425.999023438 201.000976562 l 2
 425.999023438 131.66796875 408.83203125 79.5009765625 374.499023438 44.5009765625 c 0
 340.166015625 9.5009765625 294.999023438 -7.9990234375 238.999023438 -7.9990234375 c 0
 194.999023438 -7.9990234375 157.33203125 3.0009765625 125.999023438 25.0009765625 c 1
 105.999023438 -19.9990234375 l 1
 52.9990234375 -19.9990234375 l 1
 88.9990234375 62.0009765625 l 1
 64.33203125 97.333984375 51.9990234375 143.666992188 51.9990234375 201 c 2
 51.9990234375 489 l 2
 51.9990234375 559.666992188 68.9990234375 612.333984375 102.999023438 647 c 0
 136.999023438 681.666992188 182.33203125 699 238.999023438 699 c 0
 285.666015625 699 324.333007812 687.666992188 355 665 c 1
 375 710 l 1
 428 710 l 1
 391 626 l 1
128.999023438 152.001953125 m 1
 323.999023438 595.001953125 l 1
 305.33203125 620.334960938 277.33203125 633.001953125 239.999023438 633.001953125 c 0
 201.33203125 633.001953125 172.499023438 620.668945312 153.499023438 596.001953125 c 0
 134.499023438 571.334960938 124.999023438 533.334960938 124.999023438 482.001953125 c 2
 124.999023438 200.001953125 l 2
 124.999023438 180.668945312 126.33203125 164.668945312 128.999023438 152.001953125 c 1
348.999023438 531.001953125 m 1
 154.999023438 92.001953125 l 1
 173.666015625 69.3349609375 201.999023438 58.001953125 239.999023438 58.001953125 c 0
 275.999023438 58.001953125 303.83203125 69.8349609375 323.499023438 93.501953125 c 0
 343.166015625 117.168945312 352.999023438 152.668945312 352.999023438 200.001953125 c 2
 352.999023438 482.001953125 l 2
 352.999023438 502.00390625 351.666015625 518.336914062 348.999023438 531.001953125 c 1
EndSplineSet
EndChar

StartChar: Ugrave
Encoding: 217 217 154
Width: 480
GlyphClass: 2
Flags: W
LayerCount: 2
Fore
SplineSet
147 15 m 0
 119.666992188 30.3330078125 98.33203125 52 82.9990234375 80 c 0
 67.666015625 108 59.9990234375 140 59.9990234375 176 c 2
 59.9990234375 690 l 1
 132.999023438 690 l 1
 132.999023438 180 l 2
 132.999023438 140.666992188 142.499023438 110.5 161.499023438 89.5 c 0
 180.499023438 68.5 206.666015625 58 239.999023438 58 c 0
 273.33203125 58 299.499023438 68.6669921875 318.499023438 90 c 0
 337.499023438 111.333007812 346.999023438 141.333007812 346.999023438 180 c 2
 346.999023438 690 l 1
 419.999023438 690 l 1
 419.999023438 176 l 2
 419.999023438 120.666992188 403.33203125 76.1669921875 369.999023438 42.5 c 0
 336.666015625 8.8330078125 293.333007812 -8 240 -8 c 0
 205.333007812 -8 174.333007812 -0.3330078125 147 15 c 0
237.998046875 749 m 1
 128.998046875 878 l 1
 202.998046875 878 l 1
 293.998046875 749 l 1
 237.998046875 749 l 1
EndSplineSet
EndChar

StartChar: Uacute
Encoding: 218 218 155
Width: 480
GlyphClass: 2
Flags: W
LayerCount: 2
Fore
SplineSet
147 15 m 0
 119.666992188 30.3330078125 98.33203125 52 82.9990234375 80 c 0
 67.666015625 108 59.9990234375 140 59.9990234375 176 c 2
 59.9990234375 690 l 1
 132.999023438 690 l 1
 132.999023438 180 l 2
 132.999023438 140.666992188 142.499023438 110.5 161.499023438 89.5 c 0
 180.499023438 68.5 206.666015625 58 239.999023438 58 c 0
 273.33203125 58 299.499023438 68.6669921875 318.499023438 90 c 0
 337.499023438 111.333007812 346.999023438 141.333007812 346.999023438 180 c 2
 346.999023438 690 l 1
 419.999023438 690 l 1
 419.999023438 176 l 2
 419.999023438 120.666992188 403.33203125 76.1669921875 369.999023438 42.5 c 0
 336.666015625 8.8330078125 293.333007812 -8 240 -8 c 0
 205.333007812 -8 174.333007812 -0.3330078125 147 15 c 0
266.998046875 878 m 1
 340.998046875 878 l 1
 231.998046875 749 l 1
 175.998046875 749 l 1
 266.998046875 878 l 1
EndSplineSet
EndChar

StartChar: Ucircumflex
Encoding: 219 219 156
Width: 480
GlyphClass: 2
Flags: W
LayerCount: 2
Fore
SplineSet
147 15 m 0
 119.666992188 30.3330078125 98.33203125 52 82.9990234375 80 c 0
 67.666015625 108 59.9990234375 140 59.9990234375 176 c 2
 59.9990234375 690 l 1
 132.999023438 690 l 1
 132.999023438 180 l 2
 132.999023438 140.666992188 142.499023438 110.5 161.499023438 89.5 c 0
 180.499023438 68.5 206.666015625 58 239.999023438 58 c 0
 273.33203125 58 299.499023438 68.6669921875 318.499023438 90 c 0
 337.499023438 111.333007812 346.999023438 141.333007812 346.999023438 180 c 2
 346.999023438 690 l 1
 419.999023438 690 l 1
 419.999023438 176 l 2
 419.999023438 120.666992188 403.33203125 76.1669921875 369.999023438 42.5 c 0
 336.666015625 8.8330078125 293.333007812 -8 240 -8 c 0
 205.333007812 -8 174.333007812 -0.3330078125 147 15 c 0
206.998046875 884 m 1
 270.998046875 884 l 1
 370.998046875 741 l 1
 303.998046875 741 l 1
 240.998046875 831 l 1
 176.998046875 741 l 1
 109.998046875 741 l 1
 206.998046875 884 l 1
EndSplineSet
EndChar

StartChar: Udieresis
Encoding: 220 220 157
Width: 480
GlyphClass: 2
Flags: W
LayerCount: 2
Fore
SplineSet
147 15 m 0
 119.666992188 30.3330078125 98.33203125 52 82.9990234375 80 c 0
 67.666015625 108 59.9990234375 140 59.9990234375 176 c 2
 59.9990234375 690 l 1
 132.999023438 690 l 1
 132.999023438 180 l 2
 132.999023438 140.666992188 142.499023438 110.5 161.499023438 89.5 c 0
 180.499023438 68.5 206.666015625 58 239.999023438 58 c 0
 273.33203125 58 299.499023438 68.6669921875 318.499023438 90 c 0
 337.499023438 111.333007812 346.999023438 141.333007812 346.999023438 180 c 2
 346.999023438 690 l 1
 419.999023438 690 l 1
 419.999023438 176 l 2
 419.999023438 120.666992188 403.33203125 76.1669921875 369.999023438 42.5 c 0
 336.666015625 8.8330078125 293.333007812 -8 240 -8 c 0
 205.333007812 -8 174.333007812 -0.3330078125 147 15 c 0
125.998046875 838 m 1
 200.998046875 838 l 1
 200.998046875 752 l 1
 125.998046875 752 l 1
 125.998046875 838 l 1
277.998046875 838 m 1
 352.998046875 838 l 1
 352.998046875 752 l 1
 277.998046875 752 l 1
 277.998046875 838 l 1
EndSplineSet
EndChar

StartChar: Yacute
Encoding: 221 221 158
Width: 392
GlyphClass: 2
Flags: W
LayerCount: 2
Fore
SplineSet
232 287 m 1
 232 0 l 1
 160 0 l 1
 160 287 l 1
 9 690 l 1
 89 690 l 1
 196 374 l 1
 303 690 l 1
 383 690 l 1
 232 287 l 1
227 878 m 1
 301 878 l 1
 192 749 l 1
 136 749 l 1
 227 878 l 1
EndSplineSet
EndChar

StartChar: Thorn
Encoding: 222 222 159
Width: 440
GlyphClass: 2
Flags: W
LayerCount: 2
Fore
SplineSet
370 513.5 m 0
 398.666992188 479.833007812 413 429.666992188 413 363 c 0
 413 231.666992188 353.666992188 166 235 166 c 2
 132 166 l 1
 132 0 l 1
 60 0 l 1
 60 690 l 1
 132 690 l 1
 132 564 l 1
 235 564 l 2
 296.333007812 564 341.333007812 547.166992188 370 513.5 c 0
313.5 261.500976562 m 0
 331.166992188 282.500976562 340 316.333984375 340 363.000976562 c 0
 340 410.333984375 331.166992188 444.833984375 313.5 466.500976562 c 0
 295.833007812 488.16796875 268.333007812 499.000976562 231 499.000976562 c 2
 132 499.000976562 l 1
 132 230.000976562 l 1
 231 230.000976562 l 2
 268.333007812 230.000976562 295.833007812 240.500976562 313.5 261.500976562 c 0
EndSplineSet
EndChar

StartChar: germandbls
Encoding: 223 223 160
Width: 413
GlyphClass: 2
Flags: W
LayerCount: 2
Fore
SplineSet
210 58 m 1
 228.998046875 58 l 2
 249.665039062 58 264.498046875 63 273.498046875 73 c 0
 282.498046875 83 288.165039062 98.5 290.498046875 119.5 c 0
 292.831054688 140.5 293.998046875 174 293.998046875 220 c 0
 293.998046875 260.666992188 292.831054688 291.166992188 290.498046875 311.5 c 0
 288.165039062 331.833984375 282.33203125 347.666992188 272.999023438 359 c 0
 263.666015625 370.333007812 248.666015625 376 227.999023438 376 c 2
 206.999023438 376 l 1
 206.999023438 437 l 1
 227.999023438 437 l 2
 251.999023438 437 268.166015625 445.333007812 276.499023438 462 c 0
 284.83203125 478.666992188 288.999023438 504.666992188 288.999023438 540 c 0
 288.999023438 574 282.33203125 598.666992188 268.999023438 614 c 0
 255.666015625 629.333007812 235.999023438 637 209.999023438 637 c 0
 155.33203125 637 127.999023438 606.333007812 127.999023438 545 c 2
 127.999023438 0 l 1
 58.9990234375 0 l 1
 58.9990234375 522 l 2
 58.9990234375 580 70.83203125 624 94.4990234375 654 c 0
 118.166015625 684 156.999023438 699 210.999023438 699 c 0
 255.666015625 699 291.333007812 685.333007812 318 658 c 0
 344.666992188 630.666992188 358 593 358 545 c 0
 358 507 353.666992188 478.666992188 345 460 c 0
 336.333007812 441.33203125 320.666015625 425.665039062 298 412.999023438 c 1
 317.333007812 402.999023438 331.5 390.666015625 340.5 375.999023438 c 0
 349.5 361.33203125 355.5 342.33203125 358.5 318.999023438 c 0
 361.5 295.666015625 363 262.666015625 363 219.999023438 c 0
 363 161.999023438 360.333007812 117.83203125 355 87.4990234375 c 0
 349.666992188 57.166015625 338 34.3330078125 320 19 c 0
 302 3.6669921875 274.333007812 -4 237 -4 c 2
 210 -4 l 1
 210 58 l 1
EndSplineSet
EndChar

StartChar: agrave
Encoding: 224 224 161
Width: 401
GlyphClass: 2
Flags: W
LayerCount: 2
Fore
SplineSet
304 485.5 m 0
 329.333007812 459.166992188 342 422.333007812 342 375 c 2
 342 0 l 1
 277 0 l 1
 277 48 l 1
 253.666992188 10.6669921875 218.666992188 -8 172 -8 c 0
 129.333007812 -8 96.666015625 5.5 73.9990234375 32.5 c 0
 51.33203125 59.5 39.9990234375 97.3330078125 39.9990234375 146 c 0
 39.9990234375 192.666992188 53.166015625 229.166992188 79.4990234375 255.5 c 0
 105.83203125 281.833007812 143.999023438 295 193.999023438 295 c 2
 273.999023438 295 l 1
 273.999023438 378 l 2
 273.999023438 436 247.33203125 465 193.999023438 465 c 0
 169.33203125 465 150.33203125 458.333007812 136.999023438 445 c 0
 123.666015625 431.666992188 116.999023438 413 116.999023438 389 c 2
 116.999023438 381 l 1
 52.9990234375 381 l 1
 52.9990234375 390 l 2
 52.9990234375 432 65.83203125 465 91.4990234375 489 c 0
 117.166015625 513 151.333007812 525 194 525 c 0
 242 525 278.666992188 511.833007812 304 485.5 c 0
251.5 76.4990234375 m 0
 266.5 93.4990234375 274 117.33203125 274 147.999023438 c 2
 274 243.999023438 l 1
 201 243.999023438 l 2
 139 243.999023438 108 211.666015625 108 146.999023438 c 0
 108 82.9990234375 134.666992188 50.9990234375 188 50.9990234375 c 0
 215.333007812 50.9990234375 236.5 59.4990234375 251.5 76.4990234375 c 0
199 575.999023438 m 1
 90 704.999023438 l 1
 164 704.999023438 l 1
 255 575.999023438 l 1
 199 575.999023438 l 1
EndSplineSet
EndChar

StartChar: aacute
Encoding: 225 225 162
Width: 401
GlyphClass: 2
Flags: W
LayerCount: 2
Fore
SplineSet
304 485.5 m 0
 329.333007812 459.166992188 342 422.333007812 342 375 c 2
 342 0 l 1
 277 0 l 1
 277 48 l 1
 253.666992188 10.6669921875 218.666992188 -8 172 -8 c 0
 129.333007812 -8 96.666015625 5.5 73.9990234375 32.5 c 0
 51.33203125 59.5 39.9990234375 97.3330078125 39.9990234375 146 c 0
 39.9990234375 192.666992188 53.166015625 229.166992188 79.4990234375 255.5 c 0
 105.83203125 281.833007812 143.999023438 295 193.999023438 295 c 2
 273.999023438 295 l 1
 273.999023438 378 l 2
 273.999023438 436 247.33203125 465 193.999023438 465 c 0
 169.33203125 465 150.33203125 458.333007812 136.999023438 445 c 0
 123.666015625 431.666992188 116.999023438 413 116.999023438 389 c 2
 116.999023438 381 l 1
 52.9990234375 381 l 1
 52.9990234375 390 l 2
 52.9990234375 432 65.83203125 465 91.4990234375 489 c 0
 117.166015625 513 151.333007812 525 194 525 c 0
 242 525 278.666992188 511.833007812 304 485.5 c 0
251.5 76.4990234375 m 0
 266.5 93.4990234375 274 117.33203125 274 147.999023438 c 2
 274 243.999023438 l 1
 201 243.999023438 l 2
 139 243.999023438 108 211.666015625 108 146.999023438 c 0
 108 82.9990234375 134.666992188 50.9990234375 188 50.9990234375 c 0
 215.333007812 50.9990234375 236.5 59.4990234375 251.5 76.4990234375 c 0
228 704.999023438 m 1
 302 704.999023438 l 1
 193 575.999023438 l 1
 137 575.999023438 l 1
 228 704.999023438 l 1
EndSplineSet
EndChar

StartChar: acircumflex
Encoding: 226 226 163
Width: 401
GlyphClass: 2
Flags: W
LayerCount: 2
Fore
SplineSet
304 485.5 m 0
 329.333007812 459.166992188 342 422.333007812 342 375 c 2
 342 0 l 1
 277 0 l 1
 277 48 l 1
 253.666992188 10.6669921875 218.666992188 -8 172 -8 c 0
 129.333007812 -8 96.666015625 5.5 73.9990234375 32.5 c 0
 51.33203125 59.5 39.9990234375 97.3330078125 39.9990234375 146 c 0
 39.9990234375 192.666992188 53.166015625 229.166992188 79.4990234375 255.5 c 0
 105.83203125 281.833007812 143.999023438 295 193.999023438 295 c 2
 273.999023438 295 l 1
 273.999023438 378 l 2
 273.999023438 436 247.33203125 465 193.999023438 465 c 0
 169.33203125 465 150.33203125 458.333007812 136.999023438 445 c 0
 123.666015625 431.666992188 116.999023438 413 116.999023438 389 c 2
 116.999023438 381 l 1
 52.9990234375 381 l 1
 52.9990234375 390 l 2
 52.9990234375 432 65.83203125 465 91.4990234375 489 c 0
 117.166015625 513 151.333007812 525 194 525 c 0
 242 525 278.666992188 511.833007812 304 485.5 c 0
251.5 76.4990234375 m 0
 266.5 93.4990234375 274 117.33203125 274 147.999023438 c 2
 274 243.999023438 l 1
 201 243.999023438 l 2
 139 243.999023438 108 211.666015625 108 146.999023438 c 0
 108 82.9990234375 134.666992188 50.9990234375 188 50.9990234375 c 0
 215.333007812 50.9990234375 236.5 59.4990234375 251.5 76.4990234375 c 0
168 710.999023438 m 1
 232 710.999023438 l 1
 332 567.999023438 l 1
 265 567.999023438 l 1
 202 657.999023438 l 1
 138 567.999023438 l 1
 71 567.999023438 l 1
 168 710.999023438 l 1
EndSplineSet
EndChar

StartChar: atilde
Encoding: 227 227 164
Width: 401
GlyphClass: 2
Flags: W
LayerCount: 2
Fore
SplineSet
304 485.5 m 0
 329.333007812 459.166992188 342 422.333007812 342 375 c 2
 342 0 l 1
 277 0 l 1
 277 48 l 1
 253.666992188 10.6669921875 218.666992188 -8 172 -8 c 0
 129.333007812 -8 96.666015625 5.5 73.9990234375 32.5 c 0
 51.33203125 59.5 39.9990234375 97.3330078125 39.9990234375 146 c 0
 39.9990234375 192.666992188 53.166015625 229.166992188 79.4990234375 255.5 c 0
 105.83203125 281.833007812 143.999023438 295 193.999023438 295 c 2
 273.999023438 295 l 1
 273.999023438 378 l 2
 273.999023438 436 247.33203125 465 193.999023438 465 c 0
 169.33203125 465 150.33203125 458.333007812 136.999023438 445 c 0
 123.666015625 431.666992188 116.999023438 413 116.999023438 389 c 2
 116.999023438 381 l 1
 52.9990234375 381 l 1
 52.9990234375 390 l 2
 52.9990234375 432 65.83203125 465 91.4990234375 489 c 0
 117.166015625 513 151.333007812 525 194 525 c 0
 242 525 278.666992188 511.833007812 304 485.5 c 0
251.5 76.4990234375 m 0
 266.5 93.4990234375 274 117.33203125 274 147.999023438 c 2
 274 243.999023438 l 1
 201 243.999023438 l 2
 139 243.999023438 108 211.666015625 108 146.999023438 c 0
 108 82.9990234375 134.666992188 50.9990234375 188 50.9990234375 c 0
 215.333007812 50.9990234375 236.5 59.4990234375 251.5 76.4990234375 c 0
93 640.999023438 m 1
 105 653.666015625 115.3359375 662.499023438 124.002929688 667.499023438 c 0
 132.669921875 672.499023438 143.002929688 674.999023438 155.002929688 674.999023438 c 0
 165.002929688 674.999023438 173.502929688 673.499023438 180.502929688 670.499023438 c 0
 187.502929688 667.499023438 195.669921875 662.999023438 205.002929688 656.999023438 c 0
 214.3359375 650.999023438 222.502929688 646.499023438 229.502929688 643.499023438 c 0
 236.502929688 640.499023438 244.3359375 638.999023438 253.002929688 638.999023438 c 0
 263.002929688 638.999023438 271.502929688 641.499023438 278.502929688 646.499023438 c 0
 285.502929688 651.499023438 295.3359375 661.33203125 308.002929688 675.999023438 c 1
 308.002929688 605.999023438 l 1
 297.334960938 593.33203125 287.66796875 584.499023438 279.001953125 579.499023438 c 0
 270.334960938 574.499023438 259.66796875 571.999023438 247.001953125 571.999023438 c 0
 236.334960938 571.999023438 227.16796875 573.666015625 219.500976562 576.999023438 c 0
 211.833984375 580.33203125 202.666992188 584.999023438 192 590.999023438 c 0
 182.666015625 596.33203125 175.333007812 600.33203125 170 602.999023438 c 0
 164.666992188 605.666015625 158.666992188 606.999023438 152 606.999023438 c 0
 141.333007812 606.999023438 131.833007812 604.33203125 123.5 598.999023438 c 0
 115.166992188 593.666015625 105 583.666015625 93 568.999023438 c 1
 93 640.999023438 l 1
EndSplineSet
EndChar

StartChar: adieresis
Encoding: 228 228 165
Width: 401
GlyphClass: 2
Flags: W
LayerCount: 2
Fore
SplineSet
304 485.5 m 0
 329.333007812 459.166992188 342 422.333007812 342 375 c 2
 342 0 l 1
 277 0 l 1
 277 48 l 1
 253.666992188 10.6669921875 218.666992188 -8 172 -8 c 0
 129.333007812 -8 96.666015625 5.5 73.9990234375 32.5 c 0
 51.33203125 59.5 39.9990234375 97.3330078125 39.9990234375 146 c 0
 39.9990234375 192.666992188 53.166015625 229.166992188 79.4990234375 255.5 c 0
 105.83203125 281.833007812 143.999023438 295 193.999023438 295 c 2
 273.999023438 295 l 1
 273.999023438 378 l 2
 273.999023438 436 247.33203125 465 193.999023438 465 c 0
 169.33203125 465 150.33203125 458.333007812 136.999023438 445 c 0
 123.666015625 431.666992188 116.999023438 413 116.999023438 389 c 2
 116.999023438 381 l 1
 52.9990234375 381 l 1
 52.9990234375 390 l 2
 52.9990234375 432 65.83203125 465 91.4990234375 489 c 0
 117.166015625 513 151.333007812 525 194 525 c 0
 242 525 278.666992188 511.833007812 304 485.5 c 0
251.5 76.4990234375 m 0
 266.5 93.4990234375 274 117.33203125 274 147.999023438 c 2
 274 243.999023438 l 1
 201 243.999023438 l 2
 139 243.999023438 108 211.666015625 108 146.999023438 c 0
 108 82.9990234375 134.666992188 50.9990234375 188 50.9990234375 c 0
 215.333007812 50.9990234375 236.5 59.4990234375 251.5 76.4990234375 c 0
87 664.999023438 m 1
 162 664.999023438 l 1
 162 578.999023438 l 1
 87 578.999023438 l 1
 87 664.999023438 l 1
239 664.999023438 m 1
 314 664.999023438 l 1
 314 578.999023438 l 1
 239 578.999023438 l 1
 239 664.999023438 l 1
EndSplineSet
EndChar

StartChar: aring
Encoding: 229 229 166
Width: 401
GlyphClass: 2
Flags: W
LayerCount: 2
Fore
SplineSet
304 485.5 m 0
 329.333007812 459.166992188 342 422.333007812 342 375 c 2
 342 0 l 1
 277 0 l 1
 277 48 l 1
 253.666992188 10.6669921875 218.666992188 -8 172 -8 c 0
 129.333007812 -8 96.666015625 5.5 73.9990234375 32.5 c 0
 51.33203125 59.5 39.9990234375 97.3330078125 39.9990234375 146 c 0
 39.9990234375 192.666992188 53.166015625 229.166992188 79.4990234375 255.5 c 0
 105.83203125 281.833007812 143.999023438 295 193.999023438 295 c 2
 273.999023438 295 l 1
 273.999023438 378 l 2
 273.999023438 436 247.33203125 465 193.999023438 465 c 0
 169.33203125 465 150.33203125 458.333007812 136.999023438 445 c 0
 123.666015625 431.666992188 116.999023438 413 116.999023438 389 c 2
 116.999023438 381 l 1
 52.9990234375 381 l 1
 52.9990234375 390 l 2
 52.9990234375 432 65.83203125 465 91.4990234375 489 c 0
 117.166015625 513 151.333007812 525 194 525 c 0
 242 525 278.666992188 511.833007812 304 485.5 c 0
251.5 76.4990234375 m 0
 266.5 93.4990234375 274 117.33203125 274 147.999023438 c 2
 274 243.999023438 l 1
 201 243.999023438 l 2
 139 243.999023438 108 211.666015625 108 146.999023438 c 0
 108 82.9990234375 134.666992188 50.9990234375 188 50.9990234375 c 0
 215.333007812 50.9990234375 236.5 59.4990234375 251.5 76.4990234375 c 0
137 581.499023438 m 0
 120.333007812 598.499023438 112 619.666015625 112 644.999023438 c 0
 112 670.33203125 120.333007812 691.499023438 137 708.499023438 c 0
 153.666992188 725.499023438 174.666992188 733.999023438 200 733.999023438 c 0
 226 733.999023438 247.5 725.499023438 264.5 708.499023438 c 0
 281.5 691.499023438 290 670.33203125 290 644.999023438 c 0
 290 619.666015625 281.5 598.499023438 264.5 581.499023438 c 0
 247.5 564.499023438 226 555.999023438 200 555.999023438 c 0
 174.666992188 555.999023438 153.666992188 564.499023438 137 581.499023438 c 0
235.5 608.999023438 m 0
 244.5 618.33203125 249 630.333007812 249 645 c 0
 249 659.668945312 244.5 671.8359375 235.5 681.5 c 0
 226.5 691.166992188 214.666992188 696 200 696 c 0
 186 696 174.5 691.166992188 165.5 681.5 c 0
 156.5 671.833007812 152 659.666015625 152 644.999023438 c 0
 152 630.33203125 156.5 618.33203125 165.5 608.999023438 c 0
 174.5 599.666015625 186 594.999023438 200 594.999023438 c 0
 214.666992188 594.999023438 226.5 599.666015625 235.5 608.999023438 c 0
EndSplineSet
EndChar

StartChar: ae
Encoding: 230 230 167
Width: 633
GlyphClass: 2
Flags: W
LayerCount: 2
Fore
SplineSet
342 239 m 1
 341.99609375 176.999023438 l 2
 341.99609375 131.666015625 349.829101562 99.3330078125 365.49609375 80 c 0
 381.163085938 60.6669921875 403.330078125 51 431.997070312 51 c 0
 458.6640625 51 479.1640625 59.5 493.497070312 76.5 c 0
 507.830078125 93.5 514.997070312 119.333007812 514.997070312 154 c 2
 514.997070312 158 l 1
 581.997070312 158 l 1
 581.997070312 155 l 2
 581.997070312 101 568.830078125 60.3330078125 542.497070312 33 c 0
 516.1640625 5.6669921875 479.331054688 -8 431.998046875 -8 c 0
 374.665039062 -8 332.33203125 11.3330078125 304.999023438 50 c 1
 291.666015625 31.3330078125 274.499023438 17 253.499023438 7 c 0
 232.499023438 -3 208.666015625 -8 181.999023438 -8 c 0
 136.666015625 -8 101.666015625 5.3330078125 76.9990234375 32 c 0
 52.33203125 58.6669921875 39.9990234375 96 39.9990234375 144 c 0
 39.9990234375 190 53.166015625 226 79.4990234375 252 c 0
 105.83203125 278 143.999023438 291 193.999023438 291 c 2
 273.999023438 291 l 1
 273.999023438 378 l 2
 273.999023438 436 247.33203125 465 193.999023438 465 c 0
 169.33203125 465 150.33203125 458.333007812 136.999023438 445 c 0
 123.666015625 431.666992188 116.999023438 413 116.999023438 389 c 2
 116.999023438 381 l 1
 52.9990234375 381 l 1
 52.9990234375 390 l 2
 52.9990234375 432 65.83203125 465 91.4990234375 489 c 0
 117.166015625 513 151.333007812 525 194 525 c 0
 248 525 287.333007812 508.666992188 312 476 c 1
 338.666992188 508.666992188 377.333984375 525 428.000976562 525 c 0
 476.000976562 525 513.833984375 509.666992188 541.5 479 c 0
 569.166992188 448.333007812 583 403 583 343 c 2
 583 239 l 1
 342 239 l 1
364.49609375 435.999023438 m 0
 349.49609375 417.33203125 341.99609375 385.665039062 341.99609375 340.999023438 c 2
 341.99609375 290.999023438 l 1
 514.99609375 290.999023438 l 1
 514.99609375 342.999023438 l 2
 514.99609375 386.33203125 507.663085938 417.33203125 492.99609375 435.999023438 c 0
 478.329101562 454.666015625 456.99609375 463.999023438 428.99609375 463.999023438 c 0
 400.99609375 463.999023438 379.49609375 454.666015625 364.49609375 435.999023438 c 0
273.99609375 239.999023438 m 1
 200.99609375 239.999023438 l 2
 138.99609375 239.999023438 107.99609375 208.33203125 107.99609375 144.999023438 c 0
 107.99609375 82.33203125 134.663085938 50.9990234375 187.99609375 50.9990234375 c 0
 215.329101562 50.9990234375 236.49609375 59.666015625 251.49609375 76.9990234375 c 0
 266.49609375 94.33203125 273.99609375 118.33203125 273.99609375 148.999023438 c 2
 273.99609375 239.999023438 l 1
EndSplineSet
EndChar

StartChar: ccedilla
Encoding: 231 231 168
Width: 409
GlyphClass: 2
Flags: W
LayerCount: 2
Fore
SplineSet
291 346 m 1
 291 359.998046875 l 2
 291 429.331054688 263 463.998046875 207 463.998046875 c 0
 177.666992188 463.998046875 155.5 454.665039062 140.5 435.998046875 c 0
 125.5 417.331054688 118 385.6640625 118 340.998046875 c 2
 118 175.998046875 l 2
 118 131.331054688 125.5 99.6640625 140.5 80.9970703125 c 0
 155.5 62.330078125 177.333007812 52.9970703125 206 52.9970703125 c 0
 262.666992188 52.9970703125 291 87.6640625 291 156.997070312 c 2
 291 170.997070312 l 1
 359 170.997070312 l 1
 359 157.997070312 l 2
 359 113.997070312 350.5 78.830078125 333.5 52.4970703125 c 0
 316.5 26.1640625 292 8.3310546875 260 -1.001953125 c 1
 207 -152.001953125 l 1
 131 -152.001953125 l 1
 192 -8.001953125 l 1
 97.3330078125 -1.3349609375 50 57.33203125 50 167.999023438 c 2
 50 348.999023438 l 2
 50 409.666015625 63.6669921875 454.166015625 91 482.499023438 c 0
 118.333007812 510.83203125 156.666015625 524.999023438 205.999023438 524.999023438 c 0
 254.666015625 524.999023438 292.333007812 511.33203125 319 483.999023438 c 0
 345.666992188 456.666015625 359 415.333007812 359 360 c 2
 359 346 l 1
 291 346 l 1
EndSplineSet
EndChar

StartChar: egrave
Encoding: 232 232 169
Width: 408
GlyphClass: 2
Flags: W
LayerCount: 2
Fore
SplineSet
118 238 m 1
 118 176.999023438 l 2
 118 131.666015625 125.833007812 99.3330078125 141.5 80 c 0
 157.166992188 60.6669921875 179.333984375 51 208 51 c 0
 262.666992188 51 290 85.3330078125 290 154 c 2
 290 158 l 1
 357 158 l 1
 357 155 l 2
 357 101 343.833007812 60.3330078125 317.5 33 c 0
 291.166992188 5.6669921875 254 -8 206 -8 c 0
 102 -8 50 53.3330078125 50 176 c 2
 50 343 l 2
 50 403 63.5 448.333007812 90.5 479 c 0
 117.5 509.666992188 155 525 203 525 c 0
 251 525 288.833007812 509.666992188 316.5 479 c 0
 344.166992188 448.333007812 358 403 358 343 c 2
 358 238 l 1
 118 238 l 1
140 435.499023438 m 0
 125.333007812 416.499023438 118 384.999023438 118 340.999023438 c 2
 118 289.999023438 l 1
 291 289.999023438 l 1
 291 342.999023438 l 2
 291 386.33203125 283.5 417.33203125 268.5 435.999023438 c 0
 253.5 454.666015625 232 463.999023438 204 463.999023438 c 0
 176 463.999023438 154.666992188 454.499023438 140 435.499023438 c 0
198 575.999023438 m 1
 89 704.999023438 l 1
 163 704.999023438 l 1
 254 575.999023438 l 1
 198 575.999023438 l 1
EndSplineSet
EndChar

StartChar: eacute
Encoding: 233 233 170
Width: 408
GlyphClass: 2
Flags: W
LayerCount: 2
Fore
SplineSet
118 238 m 1
 118 176.999023438 l 2
 118 131.666015625 125.833007812 99.3330078125 141.5 80 c 0
 157.166992188 60.6669921875 179.333984375 51 208 51 c 0
 262.666992188 51 290 85.3330078125 290 154 c 2
 290 158 l 1
 357 158 l 1
 357 155 l 2
 357 101 343.833007812 60.3330078125 317.5 33 c 0
 291.166992188 5.6669921875 254 -8 206 -8 c 0
 102 -8 50 53.3330078125 50 176 c 2
 50 343 l 2
 50 403 63.5 448.333007812 90.5 479 c 0
 117.5 509.666992188 155 525 203 525 c 0
 251 525 288.833007812 509.666992188 316.5 479 c 0
 344.166992188 448.333007812 358 403 358 343 c 2
 358 238 l 1
 118 238 l 1
140 435.499023438 m 0
 125.333007812 416.499023438 118 384.999023438 118 340.999023438 c 2
 118 289.999023438 l 1
 291 289.999023438 l 1
 291 342.999023438 l 2
 291 386.33203125 283.5 417.33203125 268.5 435.999023438 c 0
 253.5 454.666015625 232 463.999023438 204 463.999023438 c 0
 176 463.999023438 154.666992188 454.499023438 140 435.499023438 c 0
227 704.999023438 m 1
 301 704.999023438 l 1
 192 575.999023438 l 1
 136 575.999023438 l 1
 227 704.999023438 l 1
EndSplineSet
EndChar

StartChar: ecircumflex
Encoding: 234 234 171
Width: 408
GlyphClass: 2
Flags: W
LayerCount: 2
Fore
SplineSet
118 238 m 1
 118 176.999023438 l 2
 118 131.666015625 125.833007812 99.3330078125 141.5 80 c 0
 157.166992188 60.6669921875 179.333984375 51 208 51 c 0
 262.666992188 51 290 85.3330078125 290 154 c 2
 290 158 l 1
 357 158 l 1
 357 155 l 2
 357 101 343.833007812 60.3330078125 317.5 33 c 0
 291.166992188 5.6669921875 254 -8 206 -8 c 0
 102 -8 50 53.3330078125 50 176 c 2
 50 343 l 2
 50 403 63.5 448.333007812 90.5 479 c 0
 117.5 509.666992188 155 525 203 525 c 0
 251 525 288.833007812 509.666992188 316.5 479 c 0
 344.166992188 448.333007812 358 403 358 343 c 2
 358 238 l 1
 118 238 l 1
140 435.499023438 m 0
 125.333007812 416.499023438 118 384.999023438 118 340.999023438 c 2
 118 289.999023438 l 1
 291 289.999023438 l 1
 291 342.999023438 l 2
 291 386.33203125 283.5 417.33203125 268.5 435.999023438 c 0
 253.5 454.666015625 232 463.999023438 204 463.999023438 c 0
 176 463.999023438 154.666992188 454.499023438 140 435.499023438 c 0
167 710.999023438 m 1
 231 710.999023438 l 1
 331 567.999023438 l 1
 264 567.999023438 l 1
 201 657.999023438 l 1
 137 567.999023438 l 1
 70 567.999023438 l 1
 167 710.999023438 l 1
EndSplineSet
EndChar

StartChar: edieresis
Encoding: 235 235 172
Width: 408
GlyphClass: 2
Flags: W
LayerCount: 2
Fore
SplineSet
118 238 m 1
 118 176.999023438 l 2
 118 131.666015625 125.833007812 99.3330078125 141.5 80 c 0
 157.166992188 60.6669921875 179.333984375 51 208 51 c 0
 262.666992188 51 290 85.3330078125 290 154 c 2
 290 158 l 1
 357 158 l 1
 357 155 l 2
 357 101 343.833007812 60.3330078125 317.5 33 c 0
 291.166992188 5.6669921875 254 -8 206 -8 c 0
 102 -8 50 53.3330078125 50 176 c 2
 50 343 l 2
 50 403 63.5 448.333007812 90.5 479 c 0
 117.5 509.666992188 155 525 203 525 c 0
 251 525 288.833007812 509.666992188 316.5 479 c 0
 344.166992188 448.333007812 358 403 358 343 c 2
 358 238 l 1
 118 238 l 1
140 435.499023438 m 0
 125.333007812 416.499023438 118 384.999023438 118 340.999023438 c 2
 118 289.999023438 l 1
 291 289.999023438 l 1
 291 342.999023438 l 2
 291 386.33203125 283.5 417.33203125 268.5 435.999023438 c 0
 253.5 454.666015625 232 463.999023438 204 463.999023438 c 0
 176 463.999023438 154.666992188 454.499023438 140 435.499023438 c 0
86 664.999023438 m 1
 161 664.999023438 l 1
 161 578.999023438 l 1
 86 578.999023438 l 1
 86 664.999023438 l 1
238 664.999023438 m 1
 313 664.999023438 l 1
 313 578.999023438 l 1
 238 578.999023438 l 1
 238 664.999023438 l 1
EndSplineSet
EndChar

StartChar: igrave
Encoding: 236 236 173
Width: 198
GlyphClass: 2
Flags: W
LayerCount: 2
Fore
SplineSet
65 517 m 1
 133 517 l 1
 133 0 l 1
 65 0 l 1
 65 517 l 1
97 576 m 1
 -12 705 l 1
 62 705 l 1
 153 576 l 1
 97 576 l 1
EndSplineSet
EndChar

StartChar: iacute
Encoding: 237 237 174
Width: 198
GlyphClass: 2
Flags: W
LayerCount: 2
Fore
SplineSet
65 517 m 1
 133 517 l 1
 133 0 l 1
 65 0 l 1
 65 517 l 1
126 705 m 1
 200 705 l 1
 91 576 l 1
 35 576 l 1
 126 705 l 1
EndSplineSet
EndChar

StartChar: icircumflex
Encoding: 238 238 175
Width: 198
GlyphClass: 2
Flags: W
LayerCount: 2
Fore
SplineSet
65 517 m 1
 133 517 l 1
 133 0 l 1
 65 0 l 1
 65 517 l 1
66 711 m 1
 130 711 l 1
 230 568 l 1
 163 568 l 1
 100 658 l 1
 36 568 l 1
 -31 568 l 1
 66 711 l 1
EndSplineSet
EndChar

StartChar: idieresis
Encoding: 239 239 176
Width: 198
GlyphClass: 2
Flags: W
LayerCount: 2
Fore
SplineSet
65 517 m 1
 133 517 l 1
 133 0 l 1
 65 0 l 1
 65 517 l 1
-15 665 m 1
 60 665 l 1
 60 579 l 1
 -15 579 l 1
 -15 665 l 1
137 665 m 1
 212 665 l 1
 212 579 l 1
 137 579 l 1
 137 665 l 1
EndSplineSet
EndChar

StartChar: eth
Encoding: 240 240 177
Width: 406
GlyphClass: 2
Flags: W
LayerCount: 2
Fore
SplineSet
341.5 397 m 0
 351.166992188 364.333007812 356 325.333007812 356 280 c 2
 356 180 l 2
 356 54 304.666992188 -9 202 -9 c 0
 100.666992188 -9 50 53.3330078125 50 178 c 2
 50 291 l 2
 50 411.666992188 95.3330078125 472 186 472 c 0
 209.333007812 472 228.333007812 468 243 460 c 1
 187 556 l 1
 103 529 l 1
 87 580 l 1
 160 603 l 1
 108 693 l 1
 184 693 l 1
 224 624 l 1
 305 650 l 1
 320 599 l 1
 251 577 l 1
 289 511 l 2
 314.333007812 467.666992188 331.833007812 429.666992188 341.5 397 c 0
288 299 m 2
 288 373.666992188 259.666992188 411 203 411 c 0
 146.333007812 411 118 374 118 300 c 2
 118 166 l 2
 118 90.6669921875 146.333007812 53 203 53 c 0
 259.666992188 53 288 90.6669921875 288 166 c 2
 288 299 l 2
EndSplineSet
EndChar

StartChar: ntilde
Encoding: 241 241 178
Width: 416
GlyphClass: 2
Flags: W
LayerCount: 2
Fore
SplineSet
59 517 m 1
 125.000976562 516.999023438 l 1
 125.000976562 469.999023438 l 1
 135.000976562 486.666015625 149.000976562 499.999023438 167.000976562 509.999023438 c 0
 185.000976562 519.999023438 205.000976562 524.999023438 227.000976562 524.999023438 c 0
 268.333984375 524.999023438 300.333984375 511.666015625 323.000976562 484.999023438 c 0
 345.66796875 458.33203125 357.000976562 421.33203125 357.000976562 373.999023438 c 2
 357.000976562 -0.0009765625 l 1
 289.000976562 -0.0009765625 l 1
 289.000976562 370.999023438 l 2
 289.000976562 400.999023438 281.66796875 423.999023438 267.000976562 439.999023438 c 0
 252.333984375 455.999023438 232.666992188 463.999023438 208 463.999023438 c 0
 184 463.999023438 164.5 455.83203125 149.5 439.499023438 c 0
 134.5 423.166015625 127 400.333007812 127 371 c 2
 127 0 l 1
 59 0 l 1
 59 517 l 1
100.000976562 640.999023438 m 1
 112.000976562 653.666015625 122.3359375 662.499023438 131.002929688 667.499023438 c 0
 139.669921875 672.499023438 150.002929688 674.999023438 162.002929688 674.999023438 c 0
 172.002929688 674.999023438 180.502929688 673.499023438 187.502929688 670.499023438 c 0
 194.502929688 667.499023438 202.669921875 662.999023438 212.002929688 656.999023438 c 0
 221.3359375 650.999023438 229.502929688 646.499023438 236.502929688 643.499023438 c 0
 243.502929688 640.499023438 251.3359375 638.999023438 260.002929688 638.999023438 c 0
 270.002929688 638.999023438 278.502929688 641.499023438 285.502929688 646.499023438 c 0
 292.502929688 651.499023438 302.3359375 661.33203125 315.002929688 675.999023438 c 1
 315.002929688 605.999023438 l 1
 304.334960938 593.33203125 294.66796875 584.499023438 286.002929688 579.499023438 c 0
 277.3359375 574.499023438 266.668945312 571.999023438 254.002929688 571.999023438 c 0
 243.3359375 571.999023438 234.168945312 573.666015625 226.501953125 576.999023438 c 0
 218.834960938 580.33203125 209.66796875 584.999023438 199.000976562 590.999023438 c 0
 189.666992188 596.33203125 182.333984375 600.33203125 177.000976562 602.999023438 c 0
 171.66796875 605.666015625 165.66796875 606.999023438 159.000976562 606.999023438 c 0
 148.333984375 606.999023438 138.833984375 604.33203125 130.500976562 598.999023438 c 0
 122.16796875 593.666015625 112.000976562 583.666015625 100.000976562 568.999023438 c 1
 100.000976562 640.999023438 l 1
EndSplineSet
EndChar

StartChar: ograve
Encoding: 242 242 179
Width: 409
GlyphClass: 2
Flags: W
LayerCount: 2
Fore
SplineSet
91 34.5 m 0
 63.6669921875 62.8330078125 50 107.333007812 50 168 c 2
 50 349 l 2
 50 409.666992188 63.6669921875 454.166992188 91 482.5 c 0
 118.333007812 510.833007812 156.666015625 525 205.999023438 525 c 0
 253.999023438 525 291.499023438 510.666992188 318.499023438 482 c 0
 345.499023438 453.333007812 358.999023438 409 358.999023438 349 c 2
 358.999023438 168 l 2
 358.999023438 108 345.499023438 63.6669921875 318.499023438 35 c 0
 291.499023438 6.3330078125 253.999023438 -8 205.999023438 -8 c 0
 156.666015625 -8 118.333007812 6.1669921875 91 34.5 c 0
269 81.5 m 0
 283.666992188 100.5 291 132.000976562 291 176.000976562 c 2
 291 341.000976562 l 2
 291 385.000976562 283.666992188 416.500976562 269 435.500976562 c 0
 254.333007812 454.500976562 233 464.000976562 205 464.000976562 c 0
 177 464.000976562 155.5 454.66796875 140.5 436.000976562 c 0
 125.5 417.333984375 118 385.666992188 118 341.000976562 c 2
 118 176.000976562 l 2
 118 131.333984375 125.5 99.6669921875 140.5 81 c 0
 155.5 62.3330078125 177 53 205 53 c 0
 233 53 254.333007812 62.5 269 81.5 c 0
203 576.000976562 m 1
 94 705.000976562 l 1
 168 705.000976562 l 1
 259 576.000976562 l 1
 203 576.000976562 l 1
EndSplineSet
EndChar

StartChar: oacute
Encoding: 243 243 180
Width: 409
GlyphClass: 2
Flags: W
LayerCount: 2
Fore
SplineSet
91 34.5 m 0
 63.6669921875 62.8330078125 50 107.333007812 50 168 c 2
 50 349 l 2
 50 409.666992188 63.6669921875 454.166992188 91 482.5 c 0
 118.333007812 510.833007812 156.666015625 525 205.999023438 525 c 0
 253.999023438 525 291.499023438 510.666992188 318.499023438 482 c 0
 345.499023438 453.333007812 358.999023438 409 358.999023438 349 c 2
 358.999023438 168 l 2
 358.999023438 108 345.499023438 63.6669921875 318.499023438 35 c 0
 291.499023438 6.3330078125 253.999023438 -8 205.999023438 -8 c 0
 156.666015625 -8 118.333007812 6.1669921875 91 34.5 c 0
269 81.5 m 0
 283.666992188 100.5 291 132.000976562 291 176.000976562 c 2
 291 341.000976562 l 2
 291 385.000976562 283.666992188 416.500976562 269 435.500976562 c 0
 254.333007812 454.500976562 233 464.000976562 205 464.000976562 c 0
 177 464.000976562 155.5 454.66796875 140.5 436.000976562 c 0
 125.5 417.333984375 118 385.666992188 118 341.000976562 c 2
 118 176.000976562 l 2
 118 131.333984375 125.5 99.6669921875 140.5 81 c 0
 155.5 62.3330078125 177 53 205 53 c 0
 233 53 254.333007812 62.5 269 81.5 c 0
232 705.000976562 m 1
 306 705.000976562 l 1
 197 576.000976562 l 1
 141 576.000976562 l 1
 232 705.000976562 l 1
EndSplineSet
EndChar

StartChar: ocircumflex
Encoding: 244 244 181
Width: 409
GlyphClass: 2
Flags: W
LayerCount: 2
Fore
SplineSet
91 34.5 m 0
 63.6669921875 62.8330078125 50 107.333007812 50 168 c 2
 50 349 l 2
 50 409.666992188 63.6669921875 454.166992188 91 482.5 c 0
 118.333007812 510.833007812 156.666015625 525 205.999023438 525 c 0
 253.999023438 525 291.499023438 510.666992188 318.499023438 482 c 0
 345.499023438 453.333007812 358.999023438 409 358.999023438 349 c 2
 358.999023438 168 l 2
 358.999023438 108 345.499023438 63.6669921875 318.499023438 35 c 0
 291.499023438 6.3330078125 253.999023438 -8 205.999023438 -8 c 0
 156.666015625 -8 118.333007812 6.1669921875 91 34.5 c 0
269 81.5 m 0
 283.666992188 100.5 291 132.000976562 291 176.000976562 c 2
 291 341.000976562 l 2
 291 385.000976562 283.666992188 416.500976562 269 435.500976562 c 0
 254.333007812 454.500976562 233 464.000976562 205 464.000976562 c 0
 177 464.000976562 155.5 454.66796875 140.5 436.000976562 c 0
 125.5 417.333984375 118 385.666992188 118 341.000976562 c 2
 118 176.000976562 l 2
 118 131.333984375 125.5 99.6669921875 140.5 81 c 0
 155.5 62.3330078125 177 53 205 53 c 0
 233 53 254.333007812 62.5 269 81.5 c 0
172 711.000976562 m 1
 236 711.000976562 l 1
 336 568.000976562 l 1
 269 568.000976562 l 1
 206 658.000976562 l 1
 142 568.000976562 l 1
 75 568.000976562 l 1
 172 711.000976562 l 1
EndSplineSet
EndChar

StartChar: otilde
Encoding: 245 245 182
Width: 409
GlyphClass: 2
Flags: W
LayerCount: 2
Fore
SplineSet
91 34.5 m 0
 63.6669921875 62.8330078125 50 107.333007812 50 168 c 2
 50 349 l 2
 50 409.666992188 63.6669921875 454.166992188 91 482.5 c 0
 118.333007812 510.833007812 156.666015625 525 205.999023438 525 c 0
 253.999023438 525 291.499023438 510.666992188 318.499023438 482 c 0
 345.499023438 453.333007812 358.999023438 409 358.999023438 349 c 2
 358.999023438 168 l 2
 358.999023438 108 345.499023438 63.6669921875 318.499023438 35 c 0
 291.499023438 6.3330078125 253.999023438 -8 205.999023438 -8 c 0
 156.666015625 -8 118.333007812 6.1669921875 91 34.5 c 0
269 81.5 m 0
 283.666992188 100.5 291 132.000976562 291 176.000976562 c 2
 291 341.000976562 l 2
 291 385.000976562 283.666992188 416.500976562 269 435.500976562 c 0
 254.333007812 454.500976562 233 464.000976562 205 464.000976562 c 0
 177 464.000976562 155.5 454.66796875 140.5 436.000976562 c 0
 125.5 417.333984375 118 385.666992188 118 341.000976562 c 2
 118 176.000976562 l 2
 118 131.333984375 125.5 99.6669921875 140.5 81 c 0
 155.5 62.3330078125 177 53 205 53 c 0
 233 53 254.333007812 62.5 269 81.5 c 0
97 641.000976562 m 1
 109 653.66796875 119.3359375 662.500976562 128.002929688 667.500976562 c 0
 136.669921875 672.500976562 147.002929688 675.000976562 159.002929688 675.000976562 c 0
 169.002929688 675.000976562 177.502929688 673.500976562 184.502929688 670.500976562 c 0
 191.502929688 667.500976562 199.669921875 663.000976562 209.002929688 657.000976562 c 0
 218.3359375 651.000976562 226.502929688 646.500976562 233.502929688 643.500976562 c 0
 240.502929688 640.500976562 248.3359375 639.000976562 257.002929688 639.000976562 c 0
 267.002929688 639.000976562 275.502929688 641.500976562 282.502929688 646.500976562 c 0
 289.502929688 651.500976562 299.3359375 661.333984375 312.002929688 676.000976562 c 1
 312.002929688 606.000976562 l 1
 301.3359375 593.333984375 291.668945312 584.500976562 283.002929688 579.500976562 c 0
 274.334960938 574.500976562 263.66796875 572.000976562 251.001953125 572.000976562 c 0
 240.334960938 572.000976562 231.16796875 573.66796875 223.500976562 577.000976562 c 0
 215.833984375 580.333984375 206.666992188 585.000976562 196 591.000976562 c 0
 186.666015625 596.333984375 179.333007812 600.333984375 174 603.000976562 c 0
 168.666992188 605.66796875 162.666992188 607.000976562 156 607.000976562 c 0
 145.333007812 607.000976562 135.833007812 604.333984375 127.5 599.000976562 c 0
 119.166992188 593.66796875 109 583.66796875 97 569.000976562 c 1
 97 641.000976562 l 1
EndSplineSet
EndChar

StartChar: odieresis
Encoding: 246 246 183
Width: 409
GlyphClass: 2
Flags: W
LayerCount: 2
Fore
SplineSet
91 34.5 m 0
 63.6669921875 62.8330078125 50 107.333007812 50 168 c 2
 50 349 l 2
 50 409.666992188 63.6669921875 454.166992188 91 482.5 c 0
 118.333007812 510.833007812 156.666015625 525 205.999023438 525 c 0
 253.999023438 525 291.499023438 510.666992188 318.499023438 482 c 0
 345.499023438 453.333007812 358.999023438 409 358.999023438 349 c 2
 358.999023438 168 l 2
 358.999023438 108 345.499023438 63.6669921875 318.499023438 35 c 0
 291.499023438 6.3330078125 253.999023438 -8 205.999023438 -8 c 0
 156.666015625 -8 118.333007812 6.1669921875 91 34.5 c 0
269 81.5 m 0
 283.666992188 100.5 291 132.000976562 291 176.000976562 c 2
 291 341.000976562 l 2
 291 385.000976562 283.666992188 416.500976562 269 435.500976562 c 0
 254.333007812 454.500976562 233 464.000976562 205 464.000976562 c 0
 177 464.000976562 155.5 454.66796875 140.5 436.000976562 c 0
 125.5 417.333984375 118 385.666992188 118 341.000976562 c 2
 118 176.000976562 l 2
 118 131.333984375 125.5 99.6669921875 140.5 81 c 0
 155.5 62.3330078125 177 53 205 53 c 0
 233 53 254.333007812 62.5 269 81.5 c 0
91 665.000976562 m 1
 166 665.000976562 l 1
 166 579.000976562 l 1
 91 579.000976562 l 1
 91 665.000976562 l 1
243 665.000976562 m 1
 318 665.000976562 l 1
 318 579.000976562 l 1
 243 579.000976562 l 1
 243 665.000976562 l 1
EndSplineSet
EndChar

StartChar: divide
Encoding: 247 247 184
Width: 420
GlyphClass: 2
Flags: W
LayerCount: 2
Fore
SplineSet
177 378 m 0
 167.666992188 387.333984375 163 398.666015625 163 411.999023438 c 0
 163 425.33203125 167.666992188 436.499023438 177 445.499023438 c 0
 186.333007812 454.499023438 197.666015625 458.999023438 210.999023438 458.999023438 c 0
 224.33203125 458.999023438 235.499023438 454.499023438 244.499023438 445.499023438 c 0
 253.499023438 436.499023438 257.999023438 425.33203125 257.999023438 411.999023438 c 0
 257.999023438 398.666015625 253.499023438 387.333007812 244.499023438 378 c 0
 235.499023438 368.666992188 224.33203125 364 210.999023438 364 c 0
 197.666015625 364 186.333007812 368.666992188 177 378 c 0
40 308.999023438 m 1
 381 308.999023438 l 1
 381 242.999023438 l 1
 40 242.999023438 l 1
 40 308.999023438 l 1
177 109.999023438 m 0
 167.666992188 119.33203125 163 130.665039062 163 143.998046875 c 0
 163 157.331054688 167.666992188 168.498046875 177 177.498046875 c 0
 186.333007812 186.498046875 197.666015625 190.998046875 210.999023438 190.998046875 c 0
 224.33203125 190.998046875 235.499023438 186.498046875 244.499023438 177.498046875 c 0
 253.499023438 168.498046875 257.999023438 157.331054688 257.999023438 143.998046875 c 0
 257.999023438 130.665039062 253.499023438 119.33203125 244.499023438 109.999023438 c 0
 235.499023438 100.666015625 224.33203125 95.9990234375 210.999023438 95.9990234375 c 0
 197.666015625 95.9990234375 186.333007812 100.666015625 177 109.999023438 c 0
EndSplineSet
EndChar

StartChar: oslash
Encoding: 248 248 185
Width: 409
GlyphClass: 2
Flags: W
LayerCount: 2
Fore
SplineSet
326 473 m 1
 348 443.666992188 359.000976562 402.33203125 359.000976562 348.999023438 c 2
 359.000976562 167.999023438 l 2
 359.000976562 107.999023438 345.500976562 63.666015625 318.500976562 34.9990234375 c 0
 291.500976562 6.33203125 254.000976562 -8.0009765625 206.000976562 -8.0009765625 c 0
 168.000976562 -8.0009765625 136.66796875 0.33203125 112.000976562 16.9990234375 c 1
 90.0009765625 -30.0009765625 l 1
 50.0009765625 -30.0009765625 l 1
 84.0009765625 42.9990234375 l 1
 61.333984375 71.666015625 50.0009765625 113.333007812 50.0009765625 168 c 2
 50.0009765625 349 l 2
 50.0009765625 409.666992188 63.66796875 454.166992188 91.0009765625 482.5 c 0
 118.333984375 510.833007812 156.666992188 525 206 525 c 0
 244 525 274.666992188 516.666992188 298 500 c 1
 319 544 l 1
 359 544 l 1
 326 473 l 1
123.000976562 124.998046875 m 1
 268.000976562 435.998046875 l 1
 254.000976562 454.665039062 233.000976562 463.998046875 205.000976562 463.998046875 c 0
 177.000976562 463.998046875 155.500976562 454.665039062 140.500976562 435.998046875 c 0
 125.500976562 417.331054688 118.000976562 385.6640625 118.000976562 340.998046875 c 2
 118.000976562 175.998046875 l 2
 118.000976562 157.331054688 119.66796875 140.331054688 123.000976562 124.998046875 c 1
287.000976562 389.998046875 m 1
 141.001953125 79.998046875 l 1
 156.334960938 61.998046875 177.66796875 52.998046875 205.000976562 52.998046875 c 0
 233.000976562 52.998046875 254.333984375 62.498046875 269.000976562 81.498046875 c 0
 283.66796875 100.498046875 291.000976562 131.998046875 291.000976562 175.998046875 c 2
 291.000976562 340.998046875 l 2
 291.000976562 360.998046875 289.66796875 377.331054688 287.000976562 389.998046875 c 1
EndSplineSet
EndChar

StartChar: ugrave
Encoding: 249 249 186
Width: 416
GlyphClass: 2
Flags: W
LayerCount: 2
Fore
SplineSet
95.5 33.5 m 0
 71.1669921875 61.1669921875 59.0009765625 103 59.0009765625 159 c 2
 59.0009765625 517 l 1
 127.000976562 517 l 1
 127.000976562 205 l 2
 127.000976562 150.333007812 132.500976562 111.333007812 143.500976562 88 c 0
 154.500976562 64.6669921875 176.333984375 53 209.000976562 53 c 0
 231.000976562 53 247.66796875 58 259.000976562 68 c 0
 270.334960938 78 278.16796875 93.6669921875 282.5 115 c 0
 286.833007812 136.333007812 289 166.333007812 289 205 c 2
 289 517 l 1
 357 517 l 1
 357 159 l 2
 357 103 344.833007812 61.1669921875 320.5 33.5 c 0
 296.166992188 5.8330078125 258.666992188 -8 208 -8 c 0
 157.333007812 -8 119.833007812 5.8330078125 95.5 33.5 c 0
206.000976562 576 m 1
 97.0009765625 705 l 1
 171.000976562 705 l 1
 262.000976562 576 l 1
 206.000976562 576 l 1
EndSplineSet
EndChar

StartChar: uacute
Encoding: 250 250 187
Width: 416
GlyphClass: 2
Flags: W
LayerCount: 2
Fore
SplineSet
95.5 33.5 m 0
 71.1669921875 61.1669921875 59.0009765625 103 59.0009765625 159 c 2
 59.0009765625 517 l 1
 127.000976562 517 l 1
 127.000976562 205 l 2
 127.000976562 150.333007812 132.500976562 111.333007812 143.500976562 88 c 0
 154.500976562 64.6669921875 176.333984375 53 209.000976562 53 c 0
 231.000976562 53 247.66796875 58 259.000976562 68 c 0
 270.334960938 78 278.16796875 93.6669921875 282.5 115 c 0
 286.833007812 136.333007812 289 166.333007812 289 205 c 2
 289 517 l 1
 357 517 l 1
 357 159 l 2
 357 103 344.833007812 61.1669921875 320.5 33.5 c 0
 296.166992188 5.8330078125 258.666992188 -8 208 -8 c 0
 157.333007812 -8 119.833007812 5.8330078125 95.5 33.5 c 0
235.000976562 705 m 1
 309.000976562 705 l 1
 200.000976562 576 l 1
 144.000976562 576 l 1
 235.000976562 705 l 1
EndSplineSet
EndChar

StartChar: ucircumflex
Encoding: 251 251 188
Width: 416
GlyphClass: 2
Flags: W
LayerCount: 2
Fore
SplineSet
95.5 33.5 m 0
 71.1669921875 61.1669921875 59.0009765625 103 59.0009765625 159 c 2
 59.0009765625 517 l 1
 127.000976562 517 l 1
 127.000976562 205 l 2
 127.000976562 150.333007812 132.500976562 111.333007812 143.500976562 88 c 0
 154.500976562 64.6669921875 176.333984375 53 209.000976562 53 c 0
 231.000976562 53 247.66796875 58 259.000976562 68 c 0
 270.334960938 78 278.16796875 93.6669921875 282.5 115 c 0
 286.833007812 136.333007812 289 166.333007812 289 205 c 2
 289 517 l 1
 357 517 l 1
 357 159 l 2
 357 103 344.833007812 61.1669921875 320.5 33.5 c 0
 296.166992188 5.8330078125 258.666992188 -8 208 -8 c 0
 157.333007812 -8 119.833007812 5.8330078125 95.5 33.5 c 0
175.000976562 711 m 1
 239.000976562 711 l 1
 339.000976562 568 l 1
 272.000976562 568 l 1
 209.000976562 658 l 1
 145.000976562 568 l 1
 78.0009765625 568 l 1
 175.000976562 711 l 1
EndSplineSet
EndChar

StartChar: udieresis
Encoding: 252 252 189
Width: 416
GlyphClass: 2
Flags: W
LayerCount: 2
Fore
SplineSet
95.5 33.5 m 0
 71.1669921875 61.1669921875 59.0009765625 103 59.0009765625 159 c 2
 59.0009765625 517 l 1
 127.000976562 517 l 1
 127.000976562 205 l 2
 127.000976562 150.333007812 132.500976562 111.333007812 143.500976562 88 c 0
 154.500976562 64.6669921875 176.333984375 53 209.000976562 53 c 0
 231.000976562 53 247.66796875 58 259.000976562 68 c 0
 270.334960938 78 278.16796875 93.6669921875 282.5 115 c 0
 286.833007812 136.333007812 289 166.333007812 289 205 c 2
 289 517 l 1
 357 517 l 1
 357 159 l 2
 357 103 344.833007812 61.1669921875 320.5 33.5 c 0
 296.166992188 5.8330078125 258.666992188 -8 208 -8 c 0
 157.333007812 -8 119.833007812 5.8330078125 95.5 33.5 c 0
94.0009765625 665 m 1
 169.000976562 665 l 1
 169.000976562 579 l 1
 94.0009765625 579 l 1
 94.0009765625 665 l 1
246.000976562 665 m 1
 321.000976562 665 l 1
 321.000976562 579 l 1
 246.000976562 579 l 1
 246.000976562 665 l 1
EndSplineSet
EndChar

StartChar: yacute
Encoding: 253 253 190
Width: 371
GlyphClass: 2
Flags: W
LayerCount: 2
Fore
SplineSet
356 517 m 1
 205 -48.9990234375 l 2
 195 -87.666015625 178 -114.833007812 154 -130.5 c 0
 130 -146.166992188 97 -154 55 -154 c 2
 45 -154 l 1
 45 -93 l 1
 62 -93 l 2
 88 -93 108 -88 122 -78 c 0
 136 -68 145.666992188 -51.3330078125 151 -28 c 2
 155 -12 l 1
 15 517 l 1
 89 517 l 1
 187 122 l 1
 282 517 l 1
 356 517 l 1
215 705.000976562 m 1
 289 705.000976562 l 1
 180 576.000976562 l 1
 124 576.000976562 l 1
 215 705.000976562 l 1
EndSplineSet
EndChar

StartChar: thorn
Encoding: 254 254 191
Width: 412
GlyphClass: 2
Flags: W
LayerCount: 2
Fore
SplineSet
59 690 m 1
 126.999023438 690 l 1
 126.999023438 467 l 1
 149.666015625 505.666992188 182.333007812 525 225 525 c 0
 266.333007812 525 299.5 510.5 324.5 481.5 c 0
 349.5 452.5 362 408.333007812 362 349 c 2
 362 168 l 2
 362 108.666992188 349.5 64.5 324.5 35.5 c 0
 299.5 6.5 266.666992188 -8 226 -8 c 0
 182.666992188 -8 149.666992188 10.3330078125 127 47 c 1
 127 -152 l 1
 59 -152 l 1
 59 690 l 1
273.499023438 81.5 m 0
 287.166015625 100.5 293.998046875 132 293.998046875 176 c 2
 293.998046875 341 l 2
 293.998046875 423 266.998046875 464 212.998046875 464 c 0
 184.998046875 464 163.665039062 453.5 148.998046875 432.5 c 0
 134.331054688 411.5 126.998046875 380.666992188 126.998046875 340 c 2
 126.998046875 175 l 2
 126.998046875 135 134.331054688 104.666992188 148.998046875 84 c 0
 163.665039062 63.3330078125 184.998046875 53 212.998046875 53 c 0
 239.665039062 53 259.83203125 62.5 273.499023438 81.5 c 0
EndSplineSet
EndChar

StartChar: ydieresis
Encoding: 255 255 192
Width: 371
GlyphClass: 2
Flags: W
LayerCount: 2
Fore
SplineSet
356 517 m 1
 205 -48.9990234375 l 2
 195 -87.666015625 178 -114.833007812 154 -130.5 c 0
 130 -146.166992188 97 -154 55 -154 c 2
 45 -154 l 1
 45 -93 l 1
 62 -93 l 2
 88 -93 108 -88 122 -78 c 0
 136 -68 145.666992188 -51.3330078125 151 -28 c 2
 155 -12 l 1
 15 517 l 1
 89 517 l 1
 187 122 l 1
 282 517 l 1
 356 517 l 1
74 665.000976562 m 1
 149 665.000976562 l 1
 149 579.000976562 l 1
 74 579.000976562 l 1
 74 665.000976562 l 1
226 665.000976562 m 1
 301 665.000976562 l 1
 301 579.000976562 l 1
 226 579.000976562 l 1
 226 665.000976562 l 1
EndSplineSet
EndChar

StartChar: dotlessi
Encoding: 305 305 193
Width: 198
GlyphClass: 2
Flags: W
LayerCount: 2
Fore
SplineSet
65 517 m 1
 133 517 l 1
 133 0 l 1
 65 0 l 1
 65 517 l 1
EndSplineSet
EndChar

StartChar: OE
Encoding: 338 338 194
Width: 683
GlyphClass: 2
Flags: W
LayerCount: 2
Fore
SplineSet
425 625 m 1
 425 450 l 2
 425.666992188 441.33203125 426 427.665039062 426 408.999023438 c 2
 426 383.999023438 l 1
 614 383.999023438 l 1
 614 317.999023438 l 1
 426 317.999023438 l 1
 426 288.999023438 l 2
 426 270.33203125 425.666992188 256.33203125 425 246.999023438 c 2
 425 64.9990234375 l 1
 647 64.9990234375 l 1
 647 -0.0009765625 l 1
 360 -0.0009765625 l 1
 360 41.9990234375 l 1
 329.333007812 8.666015625 287 -8.0009765625 233 -8.0009765625 c 0
 177 -8.0009765625 132.833007812 9.33203125 100.5 43.9990234375 c 0
 68.1669921875 78.666015625 52 130.999023438 52 200.999023438 c 2
 52 489.999023438 l 2
 52 560.666992188 68.1669921875 613.333984375 100.5 648 c 0
 132.833007812 682.666992188 177 700 233 700 c 0
 286.333984375 700 328.666992188 684 360 652 c 1
 360 690 l 1
 647 690 l 1
 647 625 l 1
 425 625 l 1
353 483 m 2
 353 533.666992188 343.333007812 571.5 324 596.5 c 0
 304.666992188 621.5 276.666992188 634 240 634 c 0
 201.333007812 634 172.5 621.666992188 153.5 597 c 0
 134.5 572.333007812 125 534.333007812 125 483 c 2
 125 200 l 2
 125 105.333007812 163.333007812 58 240 58 c 0
 276 58 303.833007812 69.8330078125 323.5 93.5 c 0
 343.166992188 117.166992188 353 152.666992188 353 200 c 2
 353 483 l 2
EndSplineSet
EndChar

StartChar: oe
Encoding: 339 339 195
Width: 650
GlyphClass: 2
Flags: W
LayerCount: 2
Fore
SplineSet
359 239 m 1
 358.999023438 176.999023438 l 2
 358.999023438 131.666015625 366.83203125 99.3330078125 382.499023438 80 c 0
 398.166015625 60.6669921875 420.333007812 51 449 51 c 0
 475.666992188 51 496.166992188 59.5 510.5 76.5 c 0
 524.833007812 93.5 532 119.333007812 532 154 c 2
 532 158 l 1
 599 158 l 1
 599 155 l 2
 599 101 585.666992188 60.3330078125 559 33 c 0
 532.333007812 5.6669921875 495 -8 447 -8 c 0
 392.333007812 -8 352 9.3330078125 326 44 c 1
 300 9.3330078125 260 -8 206 -8 c 0
 156.666992188 -8 118.333984375 6.1669921875 91.0009765625 34.5 c 0
 63.66796875 62.8330078125 50.0009765625 107.333007812 50.0009765625 168 c 2
 50.0009765625 349 l 2
 50.0009765625 409.666992188 63.66796875 454.166992188 91.0009765625 482.5 c 0
 118.333984375 510.833007812 156.666992188 525 206 525 c 0
 261.333007812 525 301.333007812 507.333007812 326 472 c 1
 352.666992188 507.333007812 392.333984375 525 445.000976562 525 c 0
 493.000976562 525 530.833984375 509.666992188 558.5 479 c 0
 586.166992188 448.333007812 600 403 600 343 c 2
 600 239 l 1
 359 239 l 1
268.999023438 81.4990234375 m 0
 283.666015625 100.499023438 290.999023438 132 290.999023438 176 c 2
 290.999023438 341 l 2
 290.999023438 385 283.666015625 416.5 268.999023438 435.5 c 0
 254.33203125 454.5 232.999023438 464 204.999023438 464 c 0
 176.999023438 464 155.499023438 454.666992188 140.499023438 436 c 0
 125.499023438 417.333007812 117.999023438 385.666015625 117.999023438 341 c 2
 117.999023438 176 l 2
 117.999023438 131.333007812 125.499023438 99.666015625 140.499023438 80.9990234375 c 0
 155.499023438 62.33203125 176.999023438 52.9990234375 204.999023438 52.9990234375 c 0
 232.999023438 52.9990234375 254.33203125 62.4990234375 268.999023438 81.4990234375 c 0
381.499023438 436 m 0
 366.499023438 417.333007812 358.999023438 385.666015625 358.999023438 341 c 2
 358.999023438 291 l 1
 531.999023438 291 l 1
 531.999023438 343 l 2
 531.999023438 386.333007812 524.666015625 417.333007812 509.999023438 436 c 0
 495.33203125 454.666992188 473.999023438 464 445.999023438 464 c 0
 417.999023438 464 396.499023438 454.666992188 381.499023438 436 c 0
EndSplineSet
EndChar

StartChar: Scaron
Encoding: 352 352 196
Width: 426
GlyphClass: 2
Flags: W
LayerCount: 2
Fore
SplineSet
73.5 43 m 0
 43.1669921875 76.3330078125 27.3310546875 125 25.998046875 189 c 1
 96.998046875 189 l 1
 98.998046875 142.333007812 109.498046875 108.833007812 128.498046875 88.5 c 0
 147.498046875 68.1669921875 174.665039062 58 209.998046875 58 c 0
 245.998046875 58 272.831054688 68.1669921875 290.498046875 88.5 c 0
 308.165039062 108.833007812 316.998046875 140 316.998046875 182 c 0
 316.998046875 218.666992188 309.165039062 246.333984375 293.498046875 265 c 0
 277.831054688 283.666992188 249.6640625 301.333984375 208.997070312 318.000976562 c 2
 168.997070312 334.000976562 l 2
 123.6640625 352.000976562 89.6640625 375.000976562 66.9970703125 403.000976562 c 0
 44.330078125 431.000976562 32.9970703125 468.66796875 32.9970703125 516.000976562 c 0
 32.9970703125 572.000976562 48.830078125 616.66796875 80.4970703125 650.000976562 c 0
 112.1640625 683.333984375 155.6640625 700.000976562 210.997070312 700.000976562 c 0
 263.6640625 700.000976562 305.331054688 684.500976562 335.998046875 653.500976562 c 0
 366.665039062 622.500976562 383.33203125 576.000976562 385.999023438 514.000976562 c 1
 316.999023438 514.000976562 l 1
 312.33203125 594.66796875 276.665039062 635.000976562 209.999023438 635.000976562 c 0
 175.33203125 635.000976562 149.33203125 625.000976562 131.999023438 605.000976562 c 0
 114.666015625 585.000976562 105.999023438 556.66796875 105.999023438 520.000976562 c 0
 105.999023438 487.333007812 113.83203125 461.666015625 129.499023438 443 c 0
 145.166015625 424.333007812 171.999023438 407.666015625 209.999023438 393 c 2
 250.999023438 377 l 2
 296.999023438 359 331.666015625 335.333007812 354.999023438 306 c 0
 378.33203125 276.666992188 389.999023438 235.666992188 389.999023438 183 c 0
 389.999023438 122.333007812 374.33203125 75.5 342.999023438 42.5 c 0
 311.666015625 9.5 266.333007812 -7 207 -7 c 0
 148.333007812 -7 103.833007812 9.6669921875 73.5 43 c 0
77.9970703125 892 m 1
 144.997070312 892 l 1
 208.997070312 802 l 1
 271.997070312 892 l 1
 338.997070312 892 l 1
 238.997070312 749 l 1
 174.997070312 749 l 1
 77.9970703125 892 l 1
EndSplineSet
EndChar

StartChar: scaron
Encoding: 353 353 197
Width: 382
GlyphClass: 2
Flags: W
LayerCount: 2
Fore
SplineSet
80.5 31.5 m 0
 53.5 57.8330078125 40.0029296875 93.6669921875 40.0029296875 139 c 2
 40.0029296875 145 l 1
 103.002929688 145 l 1
 103.002929688 139 l 2
 103.002929688 111 111.002929688 89.5 127.002929688 74.5 c 0
 143.002929688 59.5 165.002929688 52 193.002929688 52 c 0
 219.002929688 52 239.8359375 58.8330078125 255.502929688 72.5 c 0
 271.169921875 86.1669921875 279.002929688 107 279.002929688 135 c 0
 279.002929688 157 273.669921875 174.333007812 263.002929688 187 c 0
 252.3359375 199.666992188 234.3359375 211.333984375 209.002929688 222 c 2
 144.002929688 249 l 2
 78.0029296875 276.333007812 45.0029296875 321.333007812 45.0029296875 384 c 0
 45.0029296875 426.666992188 58.5029296875 460.833984375 85.5029296875 486.500976562 c 0
 112.502929688 512.16796875 148.669921875 525.000976562 194.002929688 525.000976562 c 0
 239.3359375 525.000976562 275.168945312 512.000976562 301.501953125 486.000976562 c 0
 327.834960938 460.000976562 341.001953125 425.000976562 341.001953125 381.000976562 c 2
 341.001953125 368.000976562 l 1
 278.001953125 368.000976562 l 1
 278.001953125 374.000976562 l 2
 278.001953125 403.333984375 270.668945312 426.000976562 256.001953125 442.000976562 c 0
 241.334960938 458.000976562 220.334960938 466.000976562 193.001953125 466.000976562 c 0
 168.334960938 466.000976562 148.834960938 459.16796875 134.501953125 445.500976562 c 0
 120.168945312 431.833984375 113.001953125 413.000976562 113.001953125 389.000976562 c 0
 113.001953125 371.000976562 117.668945312 355.333984375 127.001953125 342.000976562 c 0
 136.334960938 328.66796875 152.66796875 317.000976562 176.000976562 307.000976562 c 2
 241.000976562 280.000976562 l 2
 276.333984375 265.333984375 302.833984375 247.666992188 320.500976562 227 c 0
 338.16796875 206.333007812 347.000976562 177.333007812 347.000976562 140 c 0
 347.000976562 93.3330078125 333.16796875 57 305.500976562 31 c 0
 277.833984375 5 239.666992188 -8 191 -8 c 0
 144.333007812 -8 107.5 5.1669921875 80.5 31.5 c 0
61.0029296875 719.000976562 m 1
 128.002929688 719.000976562 l 1
 192.002929688 629.000976562 l 1
 255.002929688 719.000976562 l 1
 322.002929688 719.000976562 l 1
 222.002929688 576.000976562 l 1
 158.002929688 576.000976562 l 1
 61.0029296875 719.000976562 l 1
EndSplineSet
EndChar

StartChar: Ydieresis
Encoding: 376 376 198
Width: 392
GlyphClass: 2
Flags: W
LayerCount: 2
Fore
SplineSet
232 287 m 1
 232 0 l 1
 160 0 l 1
 160 287 l 1
 9 690 l 1
 89 690 l 1
 196 374 l 1
 303 690 l 1
 383 690 l 1
 232 287 l 1
86 838 m 1
 161 838 l 1
 161 752 l 1
 86 752 l 1
 86 838 l 1
238 838 m 1
 313 838 l 1
 313 752 l 1
 238 752 l 1
 238 838 l 1
EndSplineSet
EndChar

StartChar: Zcaron
Encoding: 381 381 199
Width: 385
GlyphClass: 2
Flags: W
LayerCount: 2
Fore
SplineSet
358 65 m 1
 358 0 l 1
 30 0 l 1
 30 65 l 1
 279 625 l 1
 41 625 l 1
 41 690 l 1
 351 690 l 1
 351 625 l 1
 101 65 l 1
 358 65 l 1
65 892 m 1
 132 892 l 1
 196 802 l 1
 259 892 l 1
 326 892 l 1
 226 749 l 1
 162 749 l 1
 65 892 l 1
EndSplineSet
EndChar

StartChar: zcaron
Encoding: 382 382 200
Width: 376
GlyphClass: 2
Flags: W
LayerCount: 2
Fore
SplineSet
326 455 m 1
 123 62 l 1
 326 62 l 1
 326 0 l 1
 50 0 l 1
 50 62 l 1
 253 455 l 1
 50 455 l 1
 50 517 l 1
 326 517 l 1
 326 455 l 1
64 719 m 1
 131 719 l 1
 195 629 l 1
 258 719 l 1
 325 719 l 1
 225 576 l 1
 161 576 l 1
 64 719 l 1
EndSplineSet
EndChar

StartChar: florin
Encoding: 402 402 201
Width: 383
GlyphClass: 2
Flags: W
LayerCount: 2
Fore
SplineSet
10 -87 m 1
 29.9990234375 -86.9990234375 l 2
 48.666015625 -86.9990234375 63.166015625 -84.4990234375 73.4990234375 -79.4990234375 c 0
 83.83203125 -74.4990234375 91.9990234375 -65.4990234375 97.9990234375 -52.4990234375 c 0
 103.999023438 -39.4990234375 108.999023438 -20.33203125 112.999023438 5.0009765625 c 2
 160.999023438 348.000976562 l 1
 87.9990234375 348.000976562 l 1
 87.9990234375 412.000976562 l 1
 169.999023438 412.000976562 l 1
 186.999023438 536.000976562 l 2
 194.999023438 590.000976562 210.83203125 629.16796875 234.499023438 653.500976562 c 0
 258.166015625 677.833984375 294.333007812 690.000976562 343 690.000976562 c 2
 373 690.000976562 l 1
 373 625.000976562 l 1
 343 625.000976562 l 2
 324.333007812 625.000976562 309.833007812 622.500976562 299.5 617.500976562 c 0
 289.166992188 612.500976562 281 603.66796875 275 591.000976562 c 0
 269 578.333984375 264 559.666992188 260 535 c 2
 243 412 l 1
 329 412 l 1
 329 348 l 1
 234 348 l 1
 185 3 l 2
 177.666992188 -51.6669921875 162 -91.1669921875 138 -115.5 c 0
 114 -139.833007812 77.6669921875 -152 29 -152 c 2
 10 -152 l 1
 10 -87 l 1
EndSplineSet
EndChar

StartChar: circumflex
Encoding: 710 710 202
Width: 501
GlyphClass: 2
Flags: W
LayerCount: 2
Fore
SplineSet
217 711 m 1
 281 711 l 1
 381 568 l 1
 314 568 l 1
 251 658 l 1
 187 568 l 1
 120 568 l 1
 217 711 l 1
EndSplineSet
EndChar

StartChar: caron
Encoding: 711 711 203
Width: 520
GlyphClass: 2
Flags: W
LayerCount: 2
Fore
SplineSet
130 719 m 1
 197 719 l 1
 261 629 l 1
 324 719 l 1
 391 719 l 1
 291 576 l 1
 227 576 l 1
 130 719 l 1
EndSplineSet
EndChar

StartChar: dotaccent
Encoding: 729 729 204
Width: 501
GlyphClass: 2
Flags: W
LayerCount: 2
Fore
SplineSet
216 685 m 1
 285 685 l 1
 285 595 l 1
 216 595 l 1
 216 685 l 1
EndSplineSet
EndChar

StartChar: ring
Encoding: 730 730 205
Width: 512
GlyphClass: 2
Flags: W
LayerCount: 2
Fore
SplineSet
192 581.5 m 0
 175.333007812 598.5 167 619.666992188 167 645 c 0
 167 670.333007812 175.333007812 691.5 192 708.5 c 0
 208.666992188 725.5 229.666992188 734 255 734 c 0
 281 734 302.5 725.5 319.5 708.5 c 0
 336.5 691.5 345 670.333007812 345 645 c 0
 345 619.666992188 336.5 598.5 319.5 581.5 c 0
 302.5 564.5 281 556 255 556 c 0
 229.666992188 556 208.666992188 564.5 192 581.5 c 0
290.5 609 m 0
 299.5 618.333007812 304 630.333984375 304 645.000976562 c 0
 304 659.669921875 299.5 671.836914062 290.5 681.500976562 c 0
 281.5 691.16796875 269.666992188 696.000976562 255 696.000976562 c 0
 241 696.000976562 229.5 691.16796875 220.5 681.500976562 c 0
 211.5 671.833984375 207 659.666992188 207 645 c 0
 207 630.333007812 211.5 618.333007812 220.5 609 c 0
 229.5 599.666992188 241 595 255 595 c 0
 269.666992188 595 281.5 599.666992188 290.5 609 c 0
EndSplineSet
EndChar

StartChar: tilde
Encoding: 732 732 206
Width: 501
GlyphClass: 2
Flags: W
LayerCount: 2
Fore
SplineSet
143 641 m 1
 155 653.666992188 165.334960938 662.5 174.001953125 667.5 c 0
 182.668945312 672.5 193.001953125 675 205.001953125 675 c 0
 215.001953125 675 223.501953125 673.5 230.501953125 670.5 c 0
 237.501953125 667.5 245.668945312 663 255.001953125 657 c 0
 264.334960938 651 272.501953125 646.5 279.501953125 643.5 c 0
 286.501953125 640.5 294.334960938 639 303.001953125 639 c 0
 313.001953125 639 321.501953125 641.5 328.501953125 646.5 c 0
 335.501953125 651.5 345.334960938 661.333007812 358.001953125 676 c 1
 358.001953125 606 l 1
 347.333984375 593.333007812 337.666992188 584.5 329.001953125 579.5 c 0
 320.333984375 574.5 309.666992188 572 297.001953125 572 c 0
 286.333984375 572 277.166992188 573.666992188 269.500976562 577 c 0
 261.833984375 580.333007812 252.666992188 585 242 591 c 0
 232.666015625 596.333007812 225.333007812 600.333007812 220 603 c 0
 214.666992188 605.666992188 208.666992188 607 202 607 c 0
 191.333007812 607 181.833007812 604.333007812 173.5 599 c 0
 165.166992188 593.666992188 155 583.666992188 143 569 c 1
 143 641 l 1
EndSplineSet
EndChar

StartChar: gravecomb
Encoding: 768 768 207
Width: 0
GlyphClass: 2
Flags: W
LayerCount: 2
Fore
SplineSet
-2 576 m 1
 -111 705 l 1
 -37 705 l 1
 54 576 l 1
 -2 576 l 1
EndSplineSet
EndChar

StartChar: acutecomb
Encoding: 769 769 208
Width: 0
GlyphClass: 2
Flags: W
LayerCount: 2
Fore
SplineSet
27 705 m 1
 101 705 l 1
 -8 576 l 1
 -64 576 l 1
 27 705 l 1
EndSplineSet
EndChar

StartChar: uni0302
Encoding: 770 770 209
Width: 0
GlyphClass: 2
Flags: W
LayerCount: 2
Fore
SplineSet
-33 711 m 1
 31 711 l 1
 131 568 l 1
 64 568 l 1
 1 658 l 1
 -63 568 l 1
 -130 568 l 1
 -33 711 l 1
EndSplineSet
EndChar

StartChar: tildecomb
Encoding: 771 771 210
Width: 0
GlyphClass: 2
Flags: W
LayerCount: 2
Fore
SplineSet
-108 641 m 1
 -96 653.666992188 -85.6640625 662.5 -76.9970703125 667.5 c 0
 -68.330078125 672.5 -57.9970703125 675 -45.9970703125 675 c 0
 -35.9970703125 675 -27.4970703125 673.5 -20.4970703125 670.5 c 0
 -13.4970703125 667.5 -5.330078125 663 4.0029296875 657 c 0
 13.3359375 651 21.5029296875 646.5 28.5029296875 643.5 c 0
 35.5029296875 640.5 43.3359375 639 52.0029296875 639 c 0
 62.0029296875 639 70.5029296875 641.5 77.5029296875 646.5 c 0
 84.5029296875 651.5 94.3359375 661.333007812 107.002929688 676 c 1
 107.002929688 606 l 1
 96.3359375 593.333007812 86.6689453125 584.5 78.001953125 579.5 c 0
 69.3349609375 574.5 58.66796875 572 46.0009765625 572 c 0
 35.333984375 572 26.1669921875 573.666992188 18.5 577 c 0
 10.8330078125 580.333007812 1.666015625 585 -9.0009765625 591 c 0
 -18.333984375 596.333007812 -25.6669921875 600.333007812 -31 603 c 0
 -36.3330078125 605.666992188 -42.3330078125 607 -49 607 c 0
 -59.6669921875 607 -69.1669921875 604.333007812 -77.5 599 c 0
 -85.8330078125 593.666992188 -96 583.666992188 -108 569 c 1
 -108 641 l 1
EndSplineSet
EndChar

StartChar: uni0308
Encoding: 776 776 211
Width: 0
GlyphClass: 2
Flags: W
LayerCount: 2
Fore
SplineSet
-114 665 m 1
 -39 665 l 1
 -39 579 l 1
 -114 579 l 1
 -114 665 l 1
38 665 m 1
 113 665 l 1
 113 579 l 1
 38 579 l 1
 38 665 l 1
EndSplineSet
EndChar

StartChar: uni030A
Encoding: 778 778 212
Width: 0
GlyphClass: 2
Flags: W
LayerCount: 2
Fore
SplineSet
-64 581.5 m 0
 -80.6669921875 598.5 -89 619.666992188 -89 645 c 0
 -89 670.333007812 -80.6669921875 691.5 -64 708.5 c 0
 -47.3330078125 725.5 -26.3330078125 734 -1 734 c 0
 25 734 46.5 725.5 63.5 708.5 c 0
 80.5 691.5 89 670.333007812 89 645 c 0
 89 619.666992188 80.5 598.5 63.5 581.5 c 0
 46.5 564.5 25 556 -1 556 c 0
 -26.3330078125 556 -47.3330078125 564.5 -64 581.5 c 0
34.5 609 m 0
 43.5 618.333007812 48 630.333984375 48 645.000976562 c 0
 48 659.669921875 43.5 671.836914062 34.5 681.500976562 c 0
 25.5 691.16796875 13.6669921875 696.000976562 -1 696.000976562 c 0
 -15 696.000976562 -26.5 691.16796875 -35.5 681.500976562 c 0
 -44.5 671.833984375 -49 659.666992188 -49 645 c 0
 -49 630.333007812 -44.5 618.333007812 -35.5 609 c 0
 -26.5 599.666992188 -15 595 -1 595 c 0
 13.6669921875 595 25.5 599.666992188 34.5 609 c 0
EndSplineSet
EndChar

StartChar: endash
Encoding: 8211 8211 213
Width: 417
GlyphClass: 2
Flags: W
LayerCount: 2
Fore
SplineSet
0 380 m 1
 417 380 l 1
 417 315 l 1
 0 315 l 1
 0 380 l 1
EndSplineSet
EndChar

StartChar: emdash
Encoding: 8212 8212 214
Width: 833
GlyphClass: 2
Flags: W
LayerCount: 2
Fore
SplineSet
0 380 m 1
 833 380 l 1
 833 315 l 1
 0 315 l 1
 0 380 l 1
EndSplineSet
EndChar

StartChar: quoteleft
Encoding: 8216 8216 215
Width: 150
GlyphClass: 2
Flags: W
LayerCount: 2
Fore
SplineSet
109 489 m 1
 41 489 l 1
 41 664 l 1
 109 723 l 1
 109 489 l 1
59 690 m 1024
EndSplineSet
EndChar

StartChar: quoteright
Encoding: 8217 8217 216
Width: 150
GlyphClass: 2
Flags: W
LayerCount: 2
Fore
SplineSet
41 690 m 1
 109 690 l 1
 109 515 l 1
 41 456 l 1
 41 690 l 1
EndSplineSet
EndChar

StartChar: quotesinglbase
Encoding: 8218 8218 217
Width: 150
GlyphClass: 2
Flags: W
LayerCount: 2
Fore
SplineSet
41 93 m 1
 109 93 l 1
 109 -82 l 1
 41 -141 l 1
 41 93 l 1
EndSplineSet
EndChar

StartChar: quotedblleft
Encoding: 8220 8220 218
Width: 280
GlyphClass: 2
Flags: W
LayerCount: 2
Fore
SplineSet
109 489 m 1
 41 489 l 1
 41 664 l 1
 109 723 l 1
 109 489 l 1
239 489 m 1
 171 489 l 1
 171 664 l 1
 239 723 l 1
 239 489 l 1
92 690 m 1024
EndSplineSet
EndChar

StartChar: quotedblright
Encoding: 8221 8221 219
Width: 280
GlyphClass: 2
Flags: W
LayerCount: 2
Fore
SplineSet
41 690 m 1
 109 690 l 1
 109 515 l 1
 41 456 l 1
 41 690 l 1
171 690 m 1
 239 690 l 1
 239 515 l 1
 171 456 l 1
 171 690 l 1
EndSplineSet
EndChar

StartChar: quotedblbase
Encoding: 8222 8222 220
Width: 280
GlyphClass: 2
Flags: W
LayerCount: 2
Fore
SplineSet
171 93 m 1
 239 93 l 1
 239 -82 l 1
 171 -141 l 1
 171 93 l 1
41 93 m 1
 109 93 l 1
 109 -82 l 1
 41 -141 l 1
 41 93 l 1
EndSplineSet
EndChar

StartChar: dagger
Encoding: 8224 8224 221
Width: 472
GlyphClass: 2
Flags: W
LayerCount: 2
Fore
SplineSet
413 379 m 1
 273 379 l 1
 273 -152 l 1
 200 -152 l 1
 200 379 l 1
 59 379 l 1
 59 445 l 1
 200 445 l 1
 200 690 l 1
 273 690 l 1
 273 445 l 1
 413 445 l 1
 413 379 l 1
EndSplineSet
EndChar

StartChar: daggerdbl
Encoding: 8225 8225 222
Width: 472
GlyphClass: 2
Flags: W
LayerCount: 2
Fore
SplineSet
273 384 m 1
 273 155 l 1
 413 155 l 1
 413 89 l 1
 273 89 l 1
 273 -152 l 1
 200 -152 l 1
 200 89 l 1
 59 89 l 1
 59 155 l 1
 200 155 l 1
 200 384 l 1
 59 384 l 1
 59 450 l 1
 200 450 l 1
 200 690 l 1
 273 690 l 1
 273 450 l 1
 413 450 l 1
 413 384 l 1
 273 384 l 1
EndSplineSet
EndChar

StartChar: bullet
Encoding: 8226 8226 223
Width: 422
GlyphClass: 2
Flags: W
LayerCount: 2
Fore
SplineSet
124 221 m 0
 100.666992188 244.333007812 89 273.333007812 89 308 c 0
 89 343.333007812 100.666992188 372.5 124 395.5 c 0
 147.333007812 418.5 176.333007812 430 211 430 c 0
 246.333007812 430 275.5 418.5 298.5 395.5 c 0
 321.5 372.5 333 343.333007812 333 308 c 0
 333 273.333007812 321.5 244.333007812 298.5 221 c 0
 275.5 197.666992188 246.333007812 186 211 186 c 0
 176.333007812 186 147.333007812 197.666992188 124 221 c 0
EndSplineSet
EndChar

StartChar: ellipsis
Encoding: 8230 8230 224
Width: 574
GlyphClass: 2
Flags: W
LayerCount: 2
Fore
SplineSet
41 89 m 1
 119 89 l 1
 119 0 l 1
 41 0 l 1
 41 89 l 1
455 89 m 1
 533 89 l 1
 533 0 l 1
 455 0 l 1
 455 89 l 1
248 89 m 1
 326 89 l 1
 326 0 l 1
 248 0 l 1
 248 89 l 1
EndSplineSet
EndChar

StartChar: perthousand
Encoding: 8240 8240 225
Width: 969
GlyphClass: 2
Flags: W
LayerCount: 2
Fore
SplineSet
58.5 295.5 m 0
 41.5 316.5 33.0009765625 348.333007812 33.0009765625 391 c 2
 33.0009765625 572 l 2
 33.0009765625 614 41.66796875 645.333007812 59.0009765625 666 c 0
 76.333984375 686.666992188 102.666992188 697 138 697 c 0
 174 697 200.5 686.666992188 217.5 666 c 0
 234.5 645.333007812 243 614 243 572 c 2
 243 391 l 2
 243 348.333007812 234.5 316.5 217.5 295.5 c 0
 200.5 274.5 174 264 138 264 c 0
 102 264 75.5 274.5 58.5 295.5 c 0
439.000976562 690 m 1
 502.000976562 690 l 1
 254.000976562 0 l 1
 191.000976562 0 l 1
 439.000976562 690 l 1
166.000976562 341 m 0
 171.333984375 351 174.001953125 367.66796875 174.001953125 391.000976562 c 2
 174.001953125 572.000976562 l 2
 174.001953125 594.669921875 171.334960938 610.836914062 166.001953125 620.500976562 c 0
 160.66796875 630.16796875 151.334960938 635.000976562 138.001953125 635.000976562 c 0
 124.668945312 635.000976562 115.3359375 630.16796875 110.002929688 620.500976562 c 0
 104.669921875 610.833984375 102.002929688 594.666992188 102.002929688 572 c 2
 102.002929688 391 l 2
 102.002929688 367.666992188 104.669921875 351 110.002929688 341 c 0
 115.3359375 331 124.668945312 326 138.001953125 326 c 0
 151.334960938 326 160.66796875 331 166.000976562 341 c 0
474.501953125 23.5009765625 m 0
 457.501953125 44.5009765625 449.002929688 76.333984375 449.002929688 119.000976562 c 2
 449.002929688 300.000976562 l 2
 449.002929688 342.000976562 457.669921875 373.333984375 475.002929688 394.000976562 c 0
 492.3359375 414.66796875 518.668945312 425.000976562 554.001953125 425.000976562 c 0
 590.001953125 425.000976562 616.501953125 414.66796875 633.501953125 394.000976562 c 0
 650.501953125 373.333984375 659.001953125 342.000976562 659.001953125 300.000976562 c 2
 659.001953125 119.000976562 l 2
 659.001953125 76.333984375 650.501953125 44.5009765625 633.501953125 23.5009765625 c 0
 616.501953125 2.5009765625 590.001953125 -7.9990234375 554.001953125 -7.9990234375 c 0
 518.001953125 -7.9990234375 491.501953125 2.5009765625 474.501953125 23.5009765625 c 0
752.502929688 23.5009765625 m 0
 735.502929688 44.5009765625 727.00390625 76.333984375 727.00390625 119.000976562 c 2
 727.00390625 300.000976562 l 2
 727.00390625 342.000976562 735.670898438 373.333984375 753.00390625 394.000976562 c 0
 770.336914062 414.66796875 796.669921875 425.000976562 832.002929688 425.000976562 c 0
 868.002929688 425.000976562 894.502929688 414.66796875 911.502929688 394.000976562 c 0
 928.502929688 373.333984375 937.002929688 342.000976562 937.002929688 300.000976562 c 2
 937.002929688 119.000976562 l 2
 937.002929688 76.333984375 928.502929688 44.5009765625 911.502929688 23.5009765625 c 0
 894.502929688 2.5009765625 868.002929688 -7.9990234375 832.002929688 -7.9990234375 c 0
 796.002929688 -7.9990234375 769.502929688 2.5009765625 752.502929688 23.5009765625 c 0
582.00390625 69.0009765625 m 0
 587.336914062 79.0009765625 590.004882812 95.6669921875 590.004882812 119 c 2
 590.004882812 300 l 2
 590.004882812 322.666992188 587.337890625 338.833984375 582.004882812 348.500976562 c 0
 576.666992188 358.16796875 567.333984375 363.000976562 554.004882812 363.000976562 c 0
 540.669921875 363.000976562 531.336914062 358.16796875 526.005859375 348.500976562 c 0
 520.672851562 338.833984375 518.005859375 322.666992188 518.005859375 300.000976562 c 2
 518.005859375 119.000976562 l 2
 518.005859375 95.66796875 520.672851562 79.0009765625 526.005859375 69.0009765625 c 0
 531.338867188 59.0009765625 540.671875 54.0009765625 554.004882812 54.0009765625 c 0
 567.337890625 54.0009765625 576.670898438 59.0009765625 582.00390625 69.0009765625 c 0
860.004882812 69 m 0
 865.337890625 79 868.006835938 95.666015625 868.006835938 118.999023438 c 2
 868.006835938 299.999023438 l 2
 868.006835938 322.666015625 865.33984375 338.833007812 860.006835938 348.5 c 0
 854.666992188 358.166992188 845.333984375 363 832.006835938 363 c 0
 818.666992188 363 809.333984375 358.166992188 804.006835938 348.5 c 0
 798.673828125 338.833007812 796.006835938 322.666015625 796.006835938 300 c 2
 796.006835938 119 l 2
 796.006835938 95.6669921875 798.673828125 79 804.006835938 69 c 0
 809.33984375 59 818.672851562 54 832.005859375 54 c 0
 845.338867188 54 854.671875 59 860.004882812 69 c 0
EndSplineSet
EndChar

StartChar: guilsinglleft
Encoding: 8249 8249 226
Width: 258
GlyphClass: 2
Flags: W
LayerCount: 2
Fore
SplineSet
20 264 m 1
 199 447 l 1
 199 371 l 1
 95 264 l 1
 199 157 l 1
 199 81 l 1
 20 264 l 1
EndSplineSet
Substitution2: "'rtla' Right to Left Alternates lookup 0 subtable" guilsinglright
EndChar

StartChar: guilsinglright
Encoding: 8250 8250 227
Width: 268
GlyphClass: 2
Flags: W
LayerCount: 2
Fore
SplineSet
59 157 m 1
 163 264 l 1
 59 371 l 1
 59 447 l 1
 238 264 l 1
 59 81 l 1
 59 157 l 1
EndSplineSet
Substitution2: "'rtla' Right to Left Alternates lookup 0 subtable" guilsinglleft
EndChar

StartChar: Euro
Encoding: 8364 8364 228
Width: 455
GlyphClass: 2
Flags: W
LayerCount: 2
Fore
SplineSet
129 41 m 0
 105 73.6669921875 92.998046875 119.66796875 92.998046875 179.000976562 c 2
 92.998046875 253.000976562 l 1
 29.998046875 253.000976562 l 1
 29.998046875 315.000976562 l 1
 92.998046875 315.000976562 l 1
 92.998046875 381.000976562 l 1
 29.998046875 381.000976562 l 1
 29.998046875 444.000976562 l 1
 92.998046875 444.000976562 l 1
 92.998046875 521.000976562 l 2
 92.998046875 575.66796875 105.831054688 619.16796875 131.498046875 651.500976562 c 0
 157.165039062 683.833984375 196.665039062 700.000976562 249.998046875 700.000976562 c 0
 298.665039062 700.000976562 335.83203125 685.833984375 361.499023438 657.500976562 c 0
 387.166015625 629.16796875 400.666015625 589.000976562 401.999023438 537.000976562 c 1
 333.999023438 537.000976562 l 1
 331.999023438 569.66796875 324.666015625 594.16796875 311.999023438 610.500976562 c 0
 299.33203125 626.833984375 278.999023438 635.000976562 250.999023438 635.000976562 c 0
 194.33203125 635.000976562 165.999023438 598.66796875 165.999023438 526.000976562 c 2
 165.999023438 444.000976562 l 1
 339.999023438 444.000976562 l 1
 327.999023438 381.000976562 l 1
 165.999023438 381.000976562 l 1
 165.999023438 315.000976562 l 1
 314.999023438 315.000976562 l 1
 302.999023438 253.000976562 l 1
 165.999023438 253.000976562 l 1
 165.999023438 176.000976562 l 2
 165.999023438 137.333984375 172.166015625 107.833984375 184.499023438 87.5009765625 c 0
 196.83203125 67.16796875 218.999023438 57.0009765625 250.999023438 57.0009765625 c 0
 278.33203125 57.0009765625 298.33203125 65.16796875 310.999023438 81.5009765625 c 0
 323.666015625 97.833984375 331.333007812 122.666992188 334 156 c 1
 403 156 l 1
 401.666992188 102 387.666992188 61.1669921875 361 33.5 c 0
 334.333007812 5.8330078125 297.333007812 -8 250 -8 c 0
 193.333007812 -8 153 8.3330078125 129 41 c 0
EndSplineSet
EndChar

StartChar: trademark
Encoding: 8482 8482 229
Width: 669
GlyphClass: 2
Flags: W
LayerCount: 2
Fore
SplineSet
115 630 m 1
 30 630 l 1
 30 690 l 1
 265 690 l 1
 265 630 l 1
 180 630 l 1
 180 296 l 1
 115 296 l 1
 115 630 l 1
318 690 m 1
 383 690 l 1
 464 446 l 1
 466 446 l 1
 545 690 l 1
 609 690 l 1
 609 296 l 1
 548 296 l 1
 548 536 l 1
 546 536 l 1
 485 357 l 1
 443 357 l 1
 382 536 l 1
 380 536 l 1
 380 296 l 1
 318 296 l 1
 318 690 l 1
EndSplineSet
EndChar

